mtllib model_0.mtl
o model_0
v 0.011284399777650833 0.11004267632961273 -0.027238355949521065 
v 0.016378464177250862 0.11004267632961273 -0.024518605321645737 
v 0.011440998874604702 0.01863819546997547 -0.02761910669505596 
v 0.016617968678474426 0.01863819546997547 -0.024872159585356712 
v 0.02085534669458866 0.11004268378019333 -0.02084694430232048 
v 0.021150119602680206 0.01863819546997547 -0.021146101877093315 
v 0.02452159859240055 0.11004268378019333 -0.016386553645133972 
v 0.024871643632650375 0.01863819733262062 -0.016604118049144745 
v 0.02723904699087143 0.11004268378019333 -0.01127342227846384 
v 0.027635149657726288 0.01863819733262062 -0.011436592787504196 
v 0.028924785554409027 0.11004268378019333 -0.005752330645918846 
v 0.029330100864171982 0.01863819733262062 -0.005833908449858427 
v 0.029486699029803276 0.11004268378019333 -0.000013657928320753854 
v 0.029910437762737274 0.01863819919526577 -0.000013643037164001726 
v 0.028924785554409027 0.11004268378019333 0.005752211902290583 
v 0.029330100864171982 0.01863820105791092 0.005833819042891264 
v 0.02723904699087143 0.11004268378019333 0.011273304931819439 
v 0.027635149657726288 0.01863820105791092 0.011436504311859608 
v 0.02452159859240055 0.11004268378019333 0.01638643443584442 
v 0.024871643632650375 0.01863820105791092 0.016604028642177582 
v 0.02085534669458866 0.11004268378019333 0.02084682323038578 
v 0.021150119602680206 0.01863820292055607 0.021146010607481003 
v 0.016378464177250862 0.11004269123077393 0.024518486112356186 
v 0.016617968678474426 0.01863820292055607 0.0248720683157444 
v 0.011284399777650833 0.11004269123077393 0.027238236740231514 
v 0.011440998874604702 0.01863820292055607 0.02761901542544365 
v 0.01674693264067173 0.01863819546997547 -0.02506254054605961 
v 0.021011944860219955 0.11004268378019333 -0.021010128781199455 
v 0.021315930411219597 0.01863819546997547 -0.02130928635597229 
v 0.024715043604373932 0.11004268378019333 -0.016522541642189026 
v 0.025065088644623756 0.01863819733262062 -0.0167401060461998 
v 0.02746012806892395 0.11004268378019333 -0.011382212862372398 
v 0.027847018092870712 0.01863819733262062 -0.01154538244009018 
v 0.029145866632461548 0.11004268378019333 -0.005806725472211838 
v 0.02956039272248745 0.01863819733262062 -0.005888303276151419 
v 0.029716990888118744 0.11004268378019333 -0.000013657928320753854 
v 0.030140729621052742 0.01863819919526577 -0.000013643037164001726 
v 0.029145866632461548 0.11004268378019333 0.005806606728583574 
v 0.02956039272248745 0.01863820105791092 0.005888214334845543 
v 0.02746012806892395 0.11004268378019333 0.011382094584405422 
v 0.027847018092870712 0.01863820105791092 0.011545294895768166 
v 0.024715043604373932 0.11004268378019333 0.016522420570254326 
v 0.025065088644623756 0.01863820105791092 0.016740016639232635 
v 0.021011944860219955 0.11004268378019333 0.021010009571909904 
v 0.021315930411219597 0.01863820292055607 0.021309196949005127 
v 0.016507428139448166 0.11004269123077393 0.02470886893570423 
v 0.01674693264067173 0.01863820292055607 0.025062451139092445 
v 0.011394940316677094 0.11004269123077393 0.02745581604540348 
v 0.011551539413630962 0.01863820292055607 0.027836596593260765 
v 0.016507428139448166 0.11004267632961273 -0.024708988144993782 
v 0.011551539413630962 0.01863819546997547 -0.027836686000227928 
v 0.011394940316677094 0.11004267632961273 -0.02745593525469303 
v 0.028924785554409027 0.11004268378019333 0.005752211902290583 
v 0.029486699029803276 0.11004268378019333 -0.000013657928320753854 
v 0.029716990888118744 0.11004268378019333 -0.000013657928320753854 
v 0.029145866632461548 0.11004268378019333 -0.005806725472211838 
v 0.028924785554409027 0.11004268378019333 -0.005752330645918846 
v 0.02746012806892395 0.11004268378019333 -0.011382212862372398 
v 0.02723904699087143 0.11004268378019333 -0.01127342227846384 
v 0.024715043604373932 0.11004268378019333 -0.016522541642189026 
v 0.02452159859240055 0.11004268378019333 -0.016386553645133972 
v 0.021011944860219955 0.11004268378019333 -0.021010128781199455 
v 0.02085534669458866 0.11004268378019333 -0.02084694430232048 
v 0.016507428139448166 0.11004267632961273 -0.024708988144993782 
v 0.016378464177250862 0.11004267632961273 -0.024518605321645737 
v 0.011394940316677094 0.11004267632961273 -0.02745593525469303 
v 0.011284399777650833 0.11004267632961273 -0.027238355949521065 
v 0.029145866632461548 0.11004268378019333 0.005806606728583574 
v 0.02723904699087143 0.11004268378019333 0.011273304931819439 
v 0.02746012806892395 0.11004268378019333 0.011382094584405422 
v 0.02452159859240055 0.11004268378019333 0.01638643443584442 
v 0.024715043604373932 0.11004268378019333 0.016522420570254326 
v 0.02085534669458866 0.11004268378019333 0.02084682323038578 
v 0.021011944860219955 0.11004268378019333 0.021010009571909904 
v 0.016378464177250862 0.11004269123077393 0.024518486112356186 
v 0.016507428139448166 0.11004269123077393 0.02470886893570423 
v 0.011284399777650833 0.11004269123077393 0.027238236740231514 
v 0.011394940316677094 0.11004269123077393 0.02745581604540348 
v 0.021150119602680206 0.01863819546997547 -0.021146101877093315 
v 0.024871643632650375 0.01863819733262062 -0.016604118049144745 
v 0.025065088644623756 0.01863819733262062 -0.0167401060461998 
v 0.027847018092870712 0.01863819733262062 -0.01154538244009018 
v 0.027635149657726288 0.01863819733262062 -0.011436592787504196 
v 0.02956039272248745 0.01863819733262062 -0.005888303276151419 
v 0.029330100864171982 0.01863819733262062 -0.005833908449858427 
v 0.030140729621052742 0.01863819919526577 -0.000013643037164001726 
v 0.029910437762737274 0.01863819919526577 -0.000013643037164001726 
v 0.02956039272248745 0.01863820105791092 0.005888214334845543 
v 0.029330100864171982 0.01863820105791092 0.005833819042891264 
v 0.027847018092870712 0.01863820105791092 0.011545294895768166 
v 0.027635149657726288 0.01863820105791092 0.011436504311859608 
v 0.025065088644623756 0.01863820105791092 0.016740016639232635 
v 0.024871643632650375 0.01863820105791092 0.016604028642177582 
v 0.021315930411219597 0.01863820292055607 0.021309196949005127 
v 0.021150119602680206 0.01863820292055607 0.021146010607481003 
v 0.01674693264067173 0.01863820292055607 0.025062451139092445 
v 0.016617968678474426 0.01863820292055607 0.0248720683157444 
v 0.011551539413630962 0.01863820292055607 0.027836596593260765 
v 0.011440998874604702 0.01863820292055607 0.02761901542544365 
v 0.021315930411219597 0.01863819546997547 -0.02130928635597229 
v 0.016617968678474426 0.01863819546997547 -0.024872159585356712 
v 0.01674693264067173 0.01863819546997547 -0.02506254054605961 
v 0.011440998874604702 0.01863819546997547 -0.02761910669505596 
v 0.011551539413630962 0.01863819546997547 -0.027836686000227928 
v 0.011440998874604702 0.01863819546997547 -0.02761910669505596 
v 0.011551539413630962 0.01863819546997547 -0.027836686000227928 
v 0.011284399777650833 0.11004267632961273 -0.027238355949521065 
v 0.011394940316677094 0.11004267632961273 -0.02745593525469303 
v 0.011284399777650833 0.11004269123077393 0.027238236740231514 
v 0.011394940316677094 0.11004269123077393 0.02745581604540348 
v 0.011440998874604702 0.01863820292055607 0.02761901542544365 
v 0.011551539413630962 0.01863820292055607 0.027836596593260765 
vn 0.4713866114616394 0.006553896702826023 -0.8819023370742798 
vn 0.5555583238601685 0.006553905084729195 -0.8314517736434937 
vn 0.4713866114616394 0.006553896702826023 -0.8819023370742798 
vn 0.5555583238601685 0.006553905084729195 -0.8314517736434937 
vn 0.7070915699005127 0.006553925573825836 -0.7070915699005127 
vn 0.7070915699005127 0.006553925573825836 -0.7070915699005127 
vn 0.8314517736434937 0.0065539502538740635 -0.5555583238601685 
vn 0.8314517736434937 0.0065539502538740635 -0.5555583238601685 
vn 0.923859715461731 0.006553978193551302 -0.3826752007007599 
vn 0.923859715461731 0.006553978193551302 -0.3826752007007599 
vn 0.9807642102241516 0.006554008927196264 -0.19508613646030426 
vn 0.9807642102241516 0.006554008927196264 -0.19508613646030426 
vn 0.9999785423278809 0.006554040592163801 -1.0677908557354954e-9 
vn 0.9999785423278809 0.006554040592163801 -1.0677908557354954e-9 
vn 0.9807642102241516 0.006554072257131338 0.19508613646030426 
vn 0.9807642102241516 0.006554072257131338 0.19508613646030426 
vn 0.923859715461731 0.0065541029907763 0.3826752007007599 
vn 0.923859715461731 0.0065541029907763 0.3826752007007599 
vn 0.8314517736434937 0.006554130930453539 0.5555583238601685 
vn 0.8314517736434937 0.006554130930453539 0.5555583238601685 
vn 0.7070915699005127 0.006554155610501766 0.7070915699005127 
vn 0.7070915699005127 0.006554155610501766 0.7070915699005127 
vn 0.5555583238601685 0.006554176099598408 0.8314517736434937 
vn 0.5555583238601685 0.006554176099598408 0.8314517736434937 
vn 0.4713866114616394 0.006554184481501579 0.8819023370742798 
vn 0.4713866114616394 0.006554184481501579 0.8819023370742798 
vn -0.5555583238601685 -0.006553905084729195 0.8314517736434937 
vn -0.7070915699005127 -0.006553925573825836 0.7070915699005127 
vn -0.7070915699005127 -0.006553925573825836 0.7070915699005127 
vn -0.8314517736434937 -0.0065539502538740635 0.5555583238601685 
vn -0.8314517736434937 -0.0065539502538740635 0.5555583238601685 
vn -0.923859715461731 -0.006553978193551302 0.3826752007007599 
vn -0.923859715461731 -0.006553978193551302 0.3826752007007599 
vn -0.9807642102241516 -0.006554008927196264 0.19508613646030426 
vn -0.9807642102241516 -0.006554008927196264 0.19508613646030426 
vn -0.9999785423278809 -0.006554040592163801 1.067997690284983e-9 
vn -0.9999785423278809 -0.006554040592163801 1.067997690284983e-9 
vn -0.9807642102241516 -0.006554072257131338 -0.19508613646030426 
vn -0.9807642102241516 -0.006554072257131338 -0.19508613646030426 
vn -0.923859715461731 -0.0065541029907763 -0.3826752007007599 
vn -0.923859715461731 -0.0065541029907763 -0.3826752007007599 
vn -0.8314517736434937 -0.006554130930453539 -0.5555583238601685 
vn -0.8314517736434937 -0.006554130930453539 -0.5555583238601685 
vn -0.7070915699005127 -0.006554155610501766 -0.7070915699005127 
vn -0.7070915699005127 -0.006554155610501766 -0.7070915699005127 
vn -0.5555583238601685 -0.006554176099598408 -0.8314517736434937 
vn -0.5555583238601685 -0.006554176099598408 -0.8314517736434937 
vn -0.4713866114616394 -0.006554184481501579 -0.8819023370742798 
vn -0.4713866114616394 -0.006554184481501579 -0.8819023370742798 
vn -0.5555583238601685 -0.006553905084729195 0.8314517736434937 
vn -0.4713866114616394 -0.006553896702826023 0.8819023370742798 
vn -0.4713866114616394 -0.006553896702826023 0.8819023370742798 
vn 0.013107799924910069 -0.9999141097068787 1.629069998898558e-7 
vn 0.013107799924910069 -0.9999141097068787 1.629069998898558e-7 
vn 0.013107799924910069 -0.9999141097068787 1.629069998898558e-7 
vn 0.013107799924910069 -0.9999141097068787 1.629069998898558e-7 
vn 0.013107799924910069 -0.9999141097068787 1.629069998898558e-7 
vn 0.0106044327840209 -0.9999141097068787 -0.007704408373683691 
vn 0.0106044327840209 -0.9999141097068787 -0.007704408373683691 
vn 0.0106044327840209 -0.9999141097068787 -0.007704408373683691 
vn 0.0106044327840209 -0.9999141097068787 -0.007704408373683691 
vn 0.0106044327840209 -0.9999141097068787 -0.007704408373683691 
vn 0.0106044327840209 -0.9999141097068787 -0.007704408373683691 
vn 0.0040505328215658665 -0.9999141097068787 -0.012466095387935638 
vn 0.0040505328215658665 -0.9999141097068787 -0.012466095387935638 
vn 0.0040505328215658665 -0.9999141097068787 -0.012466095387935638 
vn 0.0040505328215658665 -0.9999141097068787 -0.012466095387935638 
vn 0.013107799924910069 -0.9999141097068787 1.629069998898558e-7 
vn 0.0106044327840209 -0.9999141097068787 0.0077047343365848064 
vn 0.0106044327840209 -0.9999141097068787 0.0077047343365848064 
vn 0.0106044327840209 -0.9999141097068787 0.0077047343365848064 
vn 0.0106044327840209 -0.9999141097068787 0.0077047343365848064 
vn 0.0106044327840209 -0.9999141097068787 0.0077047343365848064 
vn 0.0106044327840209 -0.9999141097068787 0.0077047343365848064 
vn 0.0040505328215658665 -0.9999141097068787 0.012466421350836754 
vn 0.0040505328215658665 -0.9999141097068787 0.012466421350836754 
vn 0.0040505328215658665 -0.9999141097068787 0.012466421350836754 
vn 0.0040505328215658665 -0.9999141097068787 0.012466421350836754 
vn -0.011351687833666801 0.9999141097068787 0.0065537369810044765 
vn -0.011351687833666801 0.9999141097068787 0.0065537369810044765 
vn -0.011351687833666801 0.9999141097068787 0.0065537369810044765 
vn -0.011351687833666801 0.9999141097068787 0.0065537369810044765 
vn -0.011351687833666801 0.9999141097068787 0.0065537369810044765 
vn -0.013107799924910069 0.9999141097068787 -1.629069998898558e-7 
vn -0.013107799924910069 0.9999141097068787 -1.629069998898558e-7 
vn -0.013107799924910069 0.9999141097068787 -1.629069998898558e-7 
vn -0.013107799924910069 0.9999141097068787 -1.629069998898558e-7 
vn -0.013107799924910069 0.9999141097068787 -1.629069998898558e-7 
vn -0.013107799924910069 0.9999141097068787 -1.629069998898558e-7 
vn -0.011351687833666801 0.9999141097068787 -0.006554062943905592 
vn -0.011351687833666801 0.9999141097068787 -0.006554062943905592 
vn -0.011351687833666801 0.9999141097068787 -0.006554062943905592 
vn -0.011351687833666801 0.9999141097068787 -0.006554062943905592 
vn -0.011351687833666801 0.9999141097068787 -0.006554062943905592 
vn -0.011351687833666801 0.9999141097068787 -0.006554062943905592 
vn -0.006553899962455034 0.9999141097068787 -0.01135185081511736 
vn -0.006553899962455034 0.9999141097068787 -0.01135185081511736 
vn -0.006553899962455034 0.9999141097068787 -0.01135185081511736 
vn -0.006553899962455034 0.9999141097068787 -0.01135185081511736 
vn -0.011351687833666801 0.9999141097068787 0.0065537369810044765 
vn -0.006553899962455034 0.9999141097068787 0.011351524852216244 
vn -0.006553899962455034 0.9999141097068787 0.011351524852216244 
vn -0.006553899962455034 0.9999141097068787 0.011351524852216244 
vn -0.006553899962455034 0.9999141097068787 0.011351524852216244 
vn 0.8819191455841064 -0.002184617333114147 0.4713956117630005 
vn 0.8819191455841064 -0.002184617333114147 0.4713956117630005 
vn 0.8819191455841064 -0.002184617333114147 0.4713956117630005 
vn 0.8819191455841064 -0.002184617333114147 0.4713956117630005 
vn 0.8819191455841064 -0.0021847710013389587 -0.4713956117630005 
vn 0.8819191455841064 -0.0021847710013389587 -0.4713956117630005 
vn 0.8819191455841064 -0.0021847710013389587 -0.4713956117630005 
vn 0.8819191455841064 -0.0021847710013389587 -0.4713956117630005 
vt 0.9930646419525146 0.8909296989440918 
vt 0.9439880847930908 0.8909296989440918 
vt 1.0001277923583984 0.16205599904060364 
vt 0.950198769569397 0.16205599904060364 
vt 0.8777408599853516 0.8909296989440918 
vt 0.8830990791320801 0.16205599904060364 
vt 0.7971238493919373 0.8909296989440918 
vt 0.8012642860412598 0.16205599904060364 
vt 0.7050596475601196 0.8909296989440918 
vt 0.7079823017120361 0.16205599904060364 
vt 0.6052017211914062 0.8909296989440918 
vt 0.6066630482673645 0.16205599904060364 
vt 0.5014468431472778 0.8909296989440918 
vt 0.5014468431472778 0.16205599904060364 
vt 0.3975701928138733 0.8909296989440918 
vt 0.39610886573791504 0.16205599904060364 
vt 0.2977122366428375 0.8909296989440918 
vt 0.294789582490921 0.16205599904060364 
vt 0.20564807951450348 0.8909296989440918 
vt 0.20150762796401978 0.16205599904060364 
vt 0.12503103911876678 0.8909296989440918 
vt 0.11967280507087708 0.16205599904060364 
vt 0.05878380686044693 0.8909296989440918 
vt 0.052573129534721375 0.16205599904060364 
vt 0.009707273915410042 0.8909296989440918 
vt 0.0026441500522196293 0.16205599904060364 
vt 0.950198769569397 0.16205599904060364 
vt 0.8777408599853516 0.8909296989440918 
vt 0.8830990791320801 0.16205599904060364 
vt 0.7971238493919373 0.8909296989440918 
vt 0.8012642860412598 0.16205599904060364 
vt 0.7050596475601196 0.8909296989440918 
vt 0.7079823017120361 0.16205599904060364 
vt 0.6052017211914062 0.8909296989440918 
vt 0.6066630482673645 0.16205599904060364 
vt 0.5014468431472778 0.8909296989440918 
vt 0.5014468431472778 0.16205599904060364 
vt 0.3975701928138733 0.8909296989440918 
vt 0.39610886573791504 0.16205599904060364 
vt 0.2977122366428375 0.8909296989440918 
vt 0.294789582490921 0.16205599904060364 
vt 0.20564807951450348 0.8909296989440918 
vt 0.20150762796401978 0.16205599904060364 
vt 0.12503103911876678 0.8909296989440918 
vt 0.11967280507087708 0.16205599904060364 
vt 0.05878380686044693 0.8909296989440918 
vt 0.052573129534721375 0.16205599904060364 
vt 0.009707273915410042 0.8909296989440918 
vt 0.0026441500522196293 0.16205599904060364 
vt 0.9439880847930908 0.8909296989440918 
vt 1.0001277923583984 0.16205599904060364 
vt 0.9930646419525146 0.8909296989440918 
vt 0.3975701928138733 0.8909296989440918 
vt 0.5014468431472778 0.8909296989440918 
vt 0.5014468431472778 0.8909296989440918 
vt 0.6052017211914062 0.8909296989440918 
vt 0.6052017211914062 0.8909296989440918 
vt 0.7050596475601196 0.8909296989440918 
vt 0.7050596475601196 0.8909296989440918 
vt 0.7971238493919373 0.8909296989440918 
vt 0.7971238493919373 0.8909296989440918 
vt 0.8777408599853516 0.8909296989440918 
vt 0.8777408599853516 0.8909296989440918 
vt 0.9439880847930908 0.8909296989440918 
vt 0.9439880847930908 0.8909296989440918 
vt 0.9930646419525146 0.8909296989440918 
vt 0.9930646419525146 0.8909296989440918 
vt 0.3975701928138733 0.8909296989440918 
vt 0.2977122366428375 0.8909296989440918 
vt 0.2977122366428375 0.8909296989440918 
vt 0.20564807951450348 0.8909296989440918 
vt 0.20564807951450348 0.8909296989440918 
vt 0.12503103911876678 0.8909296989440918 
vt 0.12503103911876678 0.8909296989440918 
vt 0.05878380686044693 0.8909296989440918 
vt 0.05878380686044693 0.8909296989440918 
vt 0.009707273915410042 0.8909296989440918 
vt 0.009707273915410042 0.8909296989440918 
vt 0.8830990791320801 0.16205599904060364 
vt 0.8012642860412598 0.16205599904060364 
vt 0.8012642860412598 0.16205599904060364 
vt 0.7079823017120361 0.16205599904060364 
vt 0.7079823017120361 0.16205599904060364 
vt 0.6066630482673645 0.16205599904060364 
vt 0.6066630482673645 0.16205599904060364 
vt 0.5014468431472778 0.16205599904060364 
vt 0.5014468431472778 0.16205599904060364 
vt 0.39610886573791504 0.16205599904060364 
vt 0.39610886573791504 0.16205599904060364 
vt 0.294789582490921 0.16205599904060364 
vt 0.294789582490921 0.16205599904060364 
vt 0.20150762796401978 0.16205599904060364 
vt 0.20150762796401978 0.16205599904060364 
vt 0.11967280507087708 0.16205599904060364 
vt 0.11967280507087708 0.16205599904060364 
vt 0.052573129534721375 0.16205599904060364 
vt 0.052573129534721375 0.16205599904060364 
vt 0.0026441500522196293 0.16205599904060364 
vt 0.0026441500522196293 0.16205599904060364 
vt 0.8830990791320801 0.16205599904060364 
vt 0.950198769569397 0.16205599904060364 
vt 0.950198769569397 0.16205599904060364 
vt 1.0001277923583984 0.16205599904060364 
vt 1.0001277923583984 0.16205599904060364 
vt 1.0001277923583984 0.16205599904060364 
vt 1.0001277923583984 0.16205599904060364 
vt 0.9930646419525146 0.8909296989440918 
vt 0.9930646419525146 0.8909296989440918 
vt 0.009707273915410042 0.8909296989440918 
vt 0.009707273915410042 0.8909296989440918 
vt 0.0026441500522196293 0.16205599904060364 
vt 0.0026441500522196293 0.16205599904060364 
s on 
f 1/1/1 2/2/2 3/3/3 
f 2/2/2 2/2/2 3/3/3 
f 3/3/3 2/2/2 4/4/4 
f 2/2/2 5/5/5 4/4/4 
f 4/4/4 5/5/5 6/6/6 
f 5/5/5 7/7/7 6/6/6 
f 6/6/6 7/7/7 8/8/8 
f 7/7/7 9/9/9 8/8/8 
f 8/8/8 9/9/9 10/10/10 
f 9/9/9 11/11/11 10/10/10 
f 10/10/10 11/11/11 12/12/12 
f 11/11/11 13/13/13 12/12/12 
f 12/12/12 13/13/13 14/14/14 
f 13/13/13 15/15/15 14/14/14 
f 14/14/14 15/15/15 16/16/16 
f 15/15/15 17/17/17 16/16/16 
f 16/16/16 17/17/17 18/18/18 
f 17/17/17 19/19/19 18/18/18 
f 18/18/18 19/19/19 20/20/20 
f 19/19/19 21/21/21 20/20/20 
f 20/20/20 21/21/21 22/22/22 
f 21/21/21 23/23/23 22/22/22 
f 22/22/22 23/23/23 24/24/24 
f 23/23/23 25/25/25 24/24/24 
f 24/24/24 25/25/25 26/26/26 
f 25/25/25 26/26/26 26/26/26 
f 26/26/26 26/26/26 27/27/27 
f 26/26/26 27/27/27 27/27/27 
f 27/27/27 27/27/27 28/28/28 
f 27/27/27 29/29/29 28/28/28 
f 28/28/28 29/29/29 30/30/30 
f 29/29/29 31/31/31 30/30/30 
f 30/30/30 31/31/31 32/32/32 
f 31/31/31 33/33/33 32/32/32 
f 32/32/32 33/33/33 34/34/34 
f 33/33/33 35/35/35 34/34/34 
f 34/34/34 35/35/35 36/36/36 
f 35/35/35 37/37/37 36/36/36 
f 36/36/36 37/37/37 38/38/38 
f 37/37/37 39/39/39 38/38/38 
f 38/38/38 39/39/39 40/40/40 
f 39/39/39 41/41/41 40/40/40 
f 40/40/40 41/41/41 42/42/42 
f 41/41/41 43/43/43 42/42/42 
f 42/42/42 43/43/43 44/44/44 
f 43/43/43 45/45/45 44/44/44 
f 44/44/44 45/45/45 46/46/46 
f 45/45/45 47/47/47 46/46/46 
f 46/46/46 47/47/47 48/48/48 
f 47/47/47 49/49/49 48/48/48 
f 48/48/48 49/49/49 49/49/49 
f 49/49/49 28/28/28 49/49/49 
f 49/49/49 28/28/28 28/28/28 
f 28/28/28 50/50/50 28/28/28 
f 28/28/28 50/50/50 27/27/27 
f 50/50/50 50/50/50 27/27/27 
f 27/27/27 50/50/50 51/51/51 
f 50/50/50 52/52/52 51/51/51 
f 51/51/51 52/52/52 52/52/52 
f 52/52/52 53/53/53 52/52/52 
f 52/52/52 53/53/53 53/53/53 
f 53/53/53 54/54/54 53/53/53 
f 53/53/53 54/54/54 55/55/55 
f 54/54/54 54/54/54 55/55/55 
f 55/55/55 54/54/54 56/56/56 
f 54/54/54 57/57/57 56/56/56 
f 56/56/56 57/57/57 58/58/58 
f 57/57/57 59/59/59 58/58/58 
f 58/58/58 59/59/59 60/60/60 
f 59/59/59 61/61/61 60/60/60 
f 60/60/60 61/61/61 62/62/62 
f 61/61/61 63/63/63 62/62/62 
f 62/62/62 63/63/63 64/64/64 
f 63/63/63 65/65/65 64/64/64 
f 64/64/64 65/65/65 66/66/66 
f 65/65/65 67/67/67 66/66/66 
f 66/66/66 67/67/67 67/67/67 
f 67/67/67 55/55/55 67/67/67 
f 67/67/67 55/55/55 55/55/55 
f 55/55/55 68/68/68 55/55/55 
f 55/55/55 68/68/68 53/53/53 
f 68/68/68 68/68/68 53/53/53 
f 53/53/53 68/68/68 69/69/69 
f 68/68/68 70/70/70 69/69/69 
f 69/69/69 70/70/70 71/71/71 
f 70/70/70 72/72/72 71/71/71 
f 71/71/71 72/72/72 73/73/73 
f 72/72/72 74/74/74 73/73/73 
f 73/73/73 74/74/74 75/75/75 
f 74/74/74 76/76/76 75/75/75 
f 75/75/75 76/76/76 77/77/77 
f 76/76/76 78/78/78 77/77/77 
f 77/77/77 78/78/78 78/78/78 
f 78/78/78 79/79/79 78/78/78 
f 78/78/78 79/79/79 79/79/79 
f 79/79/79 80/80/80 79/79/79 
f 79/79/79 80/80/80 81/81/81 
f 80/80/80 80/80/80 81/81/81 
f 81/81/81 80/80/80 82/82/82 
f 80/80/80 83/83/83 82/82/82 
f 82/82/82 83/83/83 84/84/84 
f 83/83/83 85/85/85 84/84/84 
f 84/84/84 85/85/85 86/86/86 
f 85/85/85 87/87/87 86/86/86 
f 86/86/86 87/87/87 88/88/88 
f 87/87/87 89/89/89 88/88/88 
f 88/88/88 89/89/89 90/90/90 
f 89/89/89 91/91/91 90/90/90 
f 90/90/90 91/91/91 92/92/92 
f 91/91/91 93/93/93 92/92/92 
f 92/92/92 93/93/93 94/94/94 
f 93/93/93 95/95/95 94/94/94 
f 94/94/94 95/95/95 96/96/96 
f 95/95/95 97/97/97 96/96/96 
f 96/96/96 97/97/97 98/98/98 
f 97/97/97 99/99/99 98/98/98 
f 98/98/98 99/99/99 99/99/99 
f 99/99/99 81/81/81 99/99/99 
f 99/99/99 81/81/81 81/81/81 
f 81/81/81 100/100/100 81/81/81 
f 81/81/81 100/100/100 79/79/79 
f 100/100/100 100/100/100 79/79/79 
f 79/79/79 100/100/100 101/101/101 
f 100/100/100 102/102/102 101/101/101 
f 101/101/101 102/102/102 103/103/103 
f 102/102/102 104/104/104 103/103/103 
f 103/103/103 104/104/104 104/104/104 
f 104/104/104 105/105/105 104/104/104 
f 104/104/104 105/105/105 105/105/105 
f 105/105/105 106/106/106 105/105/105 
f 105/105/105 106/106/106 107/107/107 
f 106/106/106 108/108/108 107/107/107 
f 107/107/107 108/108/108 108/108/108 
f 108/108/108 109/109/109 108/108/108 
f 108/108/108 109/109/109 109/109/109 
f 109/109/109 110/110/110 109/109/109 
f 109/109/109 110/110/110 111/111/111 
f 110/110/110 112/112/112 111/111/111 

