mtllib model_0.mtl
o model_0
v 8.034588813781738 25.24237632751465 0.004070959985256195 
v 5.55302095413208 25.24237632751465 -5.764558792114258 
v 5.764564514160156 25.24237632751465 5.55302095413208 
v 0.004070959985256195 25.24237632751465 -0.0040653301402926445 
v -5.553015232086182 25.24237632751465 5.764564514160156 
v -8.03458309173584 25.24237632751465 -0.0040653301402926445 
v 0.004070959985256195 25.24237632751465 -8.03458309173584 
v -5.764558792114258 25.24237632751465 -5.553015232086182 
v 7.513866424560547 -1.7881400538044545e-7 7.513866424560547 
v 0.004070959985256195 -1.7881400538044545e-7 7.513866424560547 
v 7.513866424560547 -1.7881400538044545e-7 -0.0040653301402926445 
v 0.004070959985256195 -1.7881400538044545e-7 -0.0040653301402926445 
v 7.513866424560547 -1.7881400538044545e-7 -7.513861179351807 
v 0.004070959985256195 -1.7881400538044545e-7 -7.513861179351807 
v -7.513861179351807 -1.7881400538044545e-7 -0.0040653301402926445 
v -7.513861179351807 -1.7881400538044545e-7 -7.513861179351807 
v -5.276381015777588 22.825420379638672 -5.08111047744751 
v -5.276381015777588 21.530624389648438 -5.08111047744751 
v -7.35113525390625 22.825420379638672 -0.0040653301402926445 
v -7.35113525390625 21.530624389648438 -0.0040653301402926445 
v -5.08111047744751 22.825420379638672 5.276386737823486 
v -5.08111047744751 21.530624389648438 5.276386737823486 
v -0.0040653301402926445 21.530624389648438 7.351140975952148 
v -0.0040653301402926445 22.825420379638672 7.351140975952148 
v 5.276386737823486 21.530624389648438 5.08111572265625 
v 5.276386737823486 22.825420379638672 5.08111572265625 
v 7.351140975952148 22.825420379638672 0.004070959985256195 
v 7.351140975952148 21.530624389648438 0.004070959985256195 
v 5.08111572265625 22.825420379638672 -5.276381015777588 
v 5.08111572265625 21.530624389648438 -5.276381015777588 
v 0.004070959985256195 21.530624389648438 -7.35113525390625 
v 0.004070959985256195 22.825420379638672 -7.35113525390625 
v -5.276381015777588 22.825420379638672 -5.08111047744751 
v 5.764564514160156 22.825420379638672 5.55302095413208 
v 5.276386737823486 22.825420379638672 5.08111572265625 
v 8.034588813781738 22.825420379638672 0.004070959985256195 
v 7.351140975952148 22.825420379638672 0.004070959985256195 
v 8.034588813781738 22.825420379638672 0.004070959985256195 
v 7.351140975952148 22.825420379638672 0.004070959985256195 
v 5.55302095413208 22.825420379638672 -5.764558792114258 
v 5.08111572265625 22.825420379638672 -5.276381015777588 
v -5.08111047744751 22.825420379638672 5.276386737823486 
v -0.0040653301402926445 22.825420379638672 7.351140975952148 
v -5.553015232086182 22.825420379638672 5.764564514160156 
v -0.0040653301402926445 22.825420379638672 8.034588813781738 
v -0.0040653301402926445 22.825420379638672 7.351140975952148 
v 5.276386737823486 22.825420379638672 5.08111572265625 
v -0.0040653301402926445 22.825420379638672 8.034588813781738 
v 5.764564514160156 22.825420379638672 5.55302095413208 
v 0.004070959985256195 22.825420379638672 -8.03458309173584 
v 0.004070959985256195 22.825420379638672 -7.35113525390625 
v -5.764558792114258 22.825420379638672 -5.553015232086182 
v -5.276381015777588 22.825420379638672 -5.08111047744751 
v 0.004070959985256195 22.825420379638672 -8.03458309173584 
v 5.55302095413208 22.825420379638672 -5.764558792114258 
v 0.004070959985256195 22.825420379638672 -7.35113525390625 
v 5.08111572265625 22.825420379638672 -5.276381015777588 
v -5.764558792114258 22.825420379638672 -5.553015232086182 
v -5.276381015777588 22.825420379638672 -5.08111047744751 
v -8.03458309173584 22.825420379638672 -0.0040653301402926445 
v -7.35113525390625 22.825420379638672 -0.0040653301402926445 
v -8.03458309173584 22.825420379638672 -0.0040653301402926445 
v -7.35113525390625 22.825420379638672 -0.0040653301402926445 
v -5.553015232086182 22.825420379638672 5.764564514160156 
v -5.08111047744751 22.825420379638672 5.276386737823486 
v -5.764558792114258 25.24237632751465 -5.553015232086182 
v -5.764558792114258 22.825420379638672 -5.553015232086182 
v -8.03458309173584 25.24237632751465 -0.0040653301402926445 
v -8.03458309173584 22.825420379638672 -0.0040653301402926445 
v -5.553015232086182 25.24237632751465 5.764564514160156 
v -5.553015232086182 22.825420379638672 5.764564514160156 
v -0.0040653301402926445 22.825420379638672 8.034588813781738 
v -0.0040653301402926445 25.24237632751465 8.034588813781738 
v 5.764564514160156 22.825420379638672 5.55302095413208 
v 5.764564514160156 25.24237632751465 5.55302095413208 
v 8.034588813781738 25.24237632751465 0.004070959985256195 
v 8.034588813781738 22.825420379638672 0.004070959985256195 
v 5.55302095413208 25.24237632751465 -5.764558792114258 
v 5.55302095413208 22.825420379638672 -5.764558792114258 
v 0.004070959985256195 22.825420379638672 -8.03458309173584 
v 0.004070959985256195 25.24237632751465 -8.03458309173584 
v -5.764558792114258 25.24237632751465 -5.553015232086182 
v -7.513861179351807 -1.7881400538044545e-7 -7.513861179351807 
v -8.327489852905273 0.7152210474014282 -8.327489852905273 
v 0.004070959985256195 -1.7881400538044545e-7 -7.513861179351807 
v 0.004070959985256195 0.7152210474014282 -8.327489852905273 
v 8.327495574951172 0.7152210474014282 -8.327489852905273 
v 0.004070959985256195 3.6500942707061768 -8.327489852905273 
v 8.327495574951172 3.6500942707061768 -8.327489852905273 
v 0.004070959985256195 4.932559967041016 -8.327489852905273 
v 8.327495574951172 4.932559967041016 -8.327489852905273 
v 7.977635383605957 5.598455429077148 -7.904402732849121 
v -8.327489852905273 3.6500942707061768 -8.327489852905273 
v -8.327489852905273 4.932559967041016 -8.327489852905273 
v -7.977629661560059 5.598455429077148 -7.904402732849121 
v 0.004070959985256195 5.598455429077148 -7.904402732849121 
v 6.68396520614624 7.337182998657227 -7.904402732849121 
v -6.692095756530762 7.337182998657227 -7.904402732849121 
v 0.004070959985256195 7.337182998657227 -7.904402732849121 
v 6.68396520614624 14.329086303710938 -7.904402732849121 
v -6.692095756530762 14.329086303710938 -7.904402732849121 
v 0.004070959985256195 14.329086303710938 -7.904402732849121 
v 7.977635383605957 16.067813873291016 -7.904402732849121 
v -7.977629661560059 16.067813873291016 -7.904402732849121 
v 0.004070959985256195 16.067813873291016 -7.904402732849121 
v 8.327495574951172 16.807697296142578 -8.327489852905273 
v -8.327489852905273 16.807697296142578 -8.327489852905273 
v 0.004070959985256195 16.807697296142578 -8.327489852905273 
v 8.327495574951172 17.83120346069336 -8.327489852905273 
v -8.327489852905273 17.83120346069336 -8.327489852905273 
v 0.004070959985256195 17.83120346069336 -8.327489852905273 
v 8.327495574951172 21.086694717407227 -8.327489852905273 
v -8.327489852905273 21.086694717407227 -8.327489852905273 
v 0.004070959985256195 21.086694717407227 -8.327489852905273 
v 7.513866424560547 -1.7881400538044545e-7 -7.513861179351807 
v 8.327495574951172 0.7152210474014282 -8.327489852905273 
v 7.513866424560547 -1.7881400538044545e-7 -0.0040653301402926445 
v 8.327495574951172 0.7152210474014282 -0.0040653301402926445 
v 7.513866424560547 -1.7881400538044545e-7 7.513866424560547 
v 8.327495574951172 0.7152210474014282 8.327495574951172 
v 8.327495574951172 3.6500942707061768 -0.0040653301402926445 
v 8.327495574951172 3.6500942707061768 -8.327489852905273 
v 8.327495574951172 4.932559967041016 -0.0040653301402926445 
v 8.327495574951172 3.6500942707061768 8.327495574951172 
v 8.327495574951172 4.932559967041016 8.327495574951172 
v 7.977635383605957 5.598455429077148 -0.0040653301402926445 
v 7.977635383605957 5.598455429077148 7.977635383605957 
v 7.977635383605957 16.067813873291016 -0.0040653301402926445 
v 7.977635383605957 16.067813873291016 7.977635383605957 
v 8.327495574951172 16.807697296142578 -0.0040653301402926445 
v 8.327495574951172 16.807697296142578 8.327495574951172 
v 8.327495574951172 17.83120346069336 -0.0040653301402926445 
v 8.327495574951172 17.83120346069336 8.327495574951172 
v 8.327495574951172 21.086694717407227 -0.0040653301402926445 
v 8.327495574951172 21.086694717407227 8.327495574951172 
v 7.977635383605957 16.067813873291016 -7.904402732849121 
v 8.327495574951172 16.807697296142578 -8.327489852905273 
v 8.327495574951172 17.83120346069336 -8.327489852905273 
v 8.327495574951172 21.086694717407227 -8.327489852905273 
v 6.68396520614624 14.329086303710938 -1.5011427402496338 
v 6.68396520614624 7.337182998657227 -1.5011427402496338 
v 6.68396520614624 7.337182998657227 -7.904402732849121 
v 7.977635383605957 5.598455429077148 -7.904402732849121 
v 8.327495574951172 4.932559967041016 -8.327489852905273 
v -7.513861179351807 -1.7881400538044545e-7 7.513866424560547 
v -8.327489852905273 0.7152210474014282 8.327495574951172 
v -7.513861179351807 -1.7881400538044545e-7 -0.0040653301402926445 
v -8.327489852905273 0.7152210474014282 -0.0040653301402926445 
v -7.513861179351807 -1.7881400538044545e-7 -7.513861179351807 
v -8.327489852905273 0.7152210474014282 -8.327489852905273 
v -8.327489852905273 3.6500942707061768 -0.0040653301402926445 
v -8.327489852905273 3.6500942707061768 8.327495574951172 
v -8.327489852905273 4.932559967041016 -0.0040653301402926445 
v -8.327489852905273 3.6500942707061768 -8.327489852905273 
v -8.327489852905273 4.932559967041016 -8.327489852905273 
v -7.977629661560059 5.598455429077148 -0.0040653301402926445 
v -7.977629661560059 5.598455429077148 -7.904402732849121 
v -6.692095756530762 7.337182998657227 -1.4930063486099243 
v -6.692095756530762 7.337182998657227 -7.904402732849121 
v -6.692095756530762 14.329086303710938 -1.4930063486099243 
v -6.692095756530762 14.329086303710938 -7.904402732849121 
v -7.977629661560059 16.067813873291016 -0.0040653301402926445 
v -7.977629661560059 16.067813873291016 -7.904402732849121 
v -8.327489852905273 16.807697296142578 -0.0040653301402926445 
v -8.327489852905273 16.807697296142578 -8.327489852905273 
v -8.327489852905273 17.83120346069336 -0.0040653301402926445 
v -8.327489852905273 17.83120346069336 -8.327489852905273 
v -8.327489852905273 21.086694717407227 -0.0040653301402926445 
v -8.327489852905273 21.086694717407227 -8.327489852905273 
v -8.327489852905273 4.932559967041016 8.327495574951172 
v -7.977629661560059 5.598455429077148 7.977635383605957 
v -7.977629661560059 16.067813873291016 7.977635383605957 
v -8.327489852905273 16.807697296142578 8.327495574951172 
v -8.327489852905273 17.83120346069336 8.327495574951172 
v -8.327489852905273 21.086694717407227 8.327495574951172 
v -8.327489852905273 21.086694717407227 8.327495574951172 
v -8.327489852905273 17.83120346069336 8.327495574951172 
v 0.004070959985256195 21.086694717407227 8.327495574951172 
v -6.854821681976318 17.83120346069336 8.327495574951172 
v 0.004070959985256195 17.83120346069336 8.327495574951172 
v 7.058234214782715 17.83120346069336 8.327495574951172 
v 8.327495574951172 17.83120346069336 8.327495574951172 
v 8.327495574951172 21.086694717407227 8.327495574951172 
v 8.327495574951172 16.807697296142578 8.327495574951172 
v 7.082643032073975 16.807697296142578 8.327495574951172 
v 7.041961669921875 16.067813873291016 7.977635383605957 
v 7.977635383605957 16.067813873291016 7.977635383605957 
v 7.977635383605957 5.598455429077148 7.977635383605957 
v 7.041961669921875 5.598455429077148 7.977635383605957 
v 8.327495574951172 4.932559967041016 8.327495574951172 
v 7.066370487213135 4.932559967041016 8.327495574951172 
v 8.327495574951172 3.6500942707061768 8.327495574951172 
v 7.066370487213135 3.6500942707061768 8.327495574951172 
v 0.004070959985256195 0.7152210474014282 8.327495574951172 
v 8.327495574951172 0.7152210474014282 8.327495574951172 
v 7.513866424560547 -1.7881400538044545e-7 7.513866424560547 
v 0.004070959985256195 3.6500942707061768 8.327495574951172 
v -6.887366771697998 3.6500942707061768 8.327495574951172 
v -8.327489852905273 0.7152210474014282 8.327495574951172 
v -8.327489852905273 3.6500942707061768 8.327495574951172 
v -7.513861179351807 -1.7881400538044545e-7 7.513866424560547 
v 0.004070959985256195 -1.7881400538044545e-7 7.513866424560547 
v -8.327489852905273 16.807697296142578 8.327495574951172 
v -6.871094226837158 16.807697296142578 8.327495574951172 
v -6.854821681976318 16.067813873291016 7.977635383605957 
v -7.977629661560059 16.067813873291016 7.977635383605957 
v -7.977629661560059 5.598455429077148 7.977635383605957 
v -6.854821681976318 5.598455429077148 7.977635383605957 
v -8.327489852905273 4.932559967041016 8.327495574951172 
v -6.879230499267578 4.932559967041016 8.327495574951172 
v 7.058234214782715 17.83120346069336 8.327495574951172 
v 0.004070959985256195 17.83120346069336 8.327495574951172 
v 7.082643032073975 16.807697296142578 8.327495574951172 
v 0.004070959985256195 16.807697296142578 8.327495574951172 
v 7.041961669921875 16.067813873291016 7.977635383605957 
v 0.004070959985256195 16.067813873291016 7.977635383605957 
v 7.041961669921875 5.598455429077148 7.977635383605957 
v 0.004070959985256195 5.598455429077148 7.977635383605957 
v 7.066370487213135 4.932559967041016 8.327495574951172 
v 0.004070959985256195 4.932559967041016 8.327495574951172 
v 7.066370487213135 3.6500942707061768 8.327495574951172 
v 0.004070959985256195 3.6500942707061768 8.327495574951172 
v -6.854821681976318 5.598455429077148 7.977635383605957 
v -6.854821681976318 16.067813873291016 7.977635383605957 
v -6.871094226837158 16.807697296142578 8.327495574951172 
v -6.854821681976318 17.83120346069336 8.327495574951172 
v -6.879230499267578 4.932559967041016 8.327495574951172 
v 6.68396520614624 14.329086303710938 -7.904402732849121 
v 8.327495574951172 21.086694717407227 -0.0040653301402926445 
v 8.327495574951172 21.086694717407227 -8.327489852905273 
v 7.652183532714844 21.530624389648438 -0.0040653301402926445 
v 7.652183532714844 21.530624389648438 -7.652177810668945 
v 7.351140975952148 21.530624389648438 0.004070959985256195 
v 5.08111572265625 21.530624389648438 -5.276381015777588 
v 0.004070959985256195 21.086694717407227 -8.327489852905273 
v 0.004070959985256195 21.530624389648438 -7.652177810668945 
v 0.004070959985256195 21.530624389648438 -7.35113525390625 
v -8.327489852905273 21.086694717407227 -8.327489852905273 
v -7.652177810668945 21.530624389648438 -7.652177810668945 
v -5.276381015777588 21.530624389648438 -5.08111047744751 
v -7.652177810668945 21.530624389648438 -0.0040653301402926445 
v -7.35113525390625 21.530624389648438 -0.0040653301402926445 
v -8.327489852905273 21.086694717407227 -0.0040653301402926445 
v -8.327489852905273 21.086694717407227 8.327495574951172 
v -7.652177810668945 21.530624389648438 7.652183532714844 
v 0.004070959985256195 21.086694717407227 8.327495574951172 
v 0.004070959985256195 21.530624389648438 7.652183532714844 
v 8.327495574951172 21.086694717407227 8.327495574951172 
v 7.652183532714844 21.530624389648438 7.652183532714844 
v 5.276386737823486 21.530624389648438 5.08111572265625 
v -0.0040653301402926445 21.530624389648438 7.351140975952148 
v -5.08111047744751 21.530624389648438 5.276386737823486 
v -7.513861179351807 -1.7881400538044545e-7 7.513866424560547 
v -0.0040653301402926445 25.24237632751465 8.034588813781738 
v -5.276381015777588 21.530624389648438 -5.08111047744751 
v -5.764558792114258 22.825420379638672 -5.553015232086182 
v 7.513866424560547 -1.7881400538044545e-7 -7.513861179351807 
v -6.887366771697998 3.6500942707061768 8.327495574951172 
vn -1.0341130485562108e-13 0.999997615814209 0.002184694167226553 
vn -1.0341130485562108e-13 0.999997615814209 0.002184694167226553 
vn -1.0341130485562108e-13 0.999997615814209 -0.002184694167226553 
vn -1.0341130485562108e-13 0.999997615814209 -0.002184694167226553 
vn -1.0341130485562108e-13 0.999997615814209 -0.002184694167226553 
vn -1.0341130485562108e-13 0.999997615814209 -0.002184694167226553 
vn -1.0341130485562108e-13 0.999997615814209 0.002184694167226553 
vn -1.0341130485562108e-13 0.999997615814209 0.002184694167226553 
vn 0.1054307073354721 -0.9886699914932251 0.10684575140476227 
vn 0.0018872113432735205 -0.9959892630577087 0.08945280313491821 
vn 0.0904986634850502 -0.995894193649292 0.002184694167226553 
vn 3.097898456858039e-13 -0.999997615814209 0.002184694167226553 
vn 0.10367967188358307 -0.9888551235198975 -0.10684575140476227 
vn 0.0018872113432735205 -0.9959892630577087 -0.08945280313491821 
vn -0.0904986634850502 -0.995894193649292 0.002184694167226553 
vn -0.10743536055088043 -0.9884541630744934 -0.10684575140476227 
vn -0.7078686952590942 0.0037756471429020166 -0.7063339352607727 
vn -0.7078686952590942 0.0037756471429020166 -0.7063339352607727 
vn -0.9998067021369934 -2.0678313119963654e-13 0.01966099627315998 
vn -0.9998067021369934 -2.0678313119963654e-13 0.01966099627315998 
vn -0.7078787684440613 -1.4640568759497624e-13 0.7063339352607727 
vn -0.7078787684440613 -1.4640568759497624e-13 0.7063339352607727 
vn 0.017476677894592285 0 0.9998472929000854 
vn 0.017476677894592285 0 0.9998472929000854 
vn 0.7078787684440613 0 0.7063339352607727 
vn 0.7078787684440613 0 0.7063339352607727 
vn 0.9998067021369934 0 -0.01966099627315998 
vn 0.9998067021369934 0 -0.01966099627315998 
vn 0.7078787684440613 0 -0.7063339352607727 
vn 0.7078787684440613 0 -0.7063339352607727 
vn -0.017476677894592285 -3.6145805417514814e-15 -0.9998472929000854 
vn -0.017476677894592285 -3.6145805417514814e-15 -0.9998472929000854 
vn -0.7078686952590942 0.0037756471429020166 -0.7063339352607727 
vn 3.097898456858039e-13 -0.999997615814209 0.002184694167226553 
vn 3.097898456858039e-13 -0.999997615814209 0.002184694167226553 
vn 3.097898456858039e-13 -0.999997615814209 0.002184694167226553 
vn 3.097898456858039e-13 -0.999997615814209 0.002184694167226553 
vn 3.097898456858039e-13 -0.999997615814209 -0.002184694167226553 
vn 3.097898456858039e-13 -0.999997615814209 -0.002184694167226553 
vn 3.097898456858039e-13 -0.999997615814209 -0.002184694167226553 
vn 3.097898456858039e-13 -0.999997615814209 -0.002184694167226553 
vn 3.097898456858039e-13 -0.999997615814209 0.002184694167226553 
vn 3.097898456858039e-13 -0.999997615814209 0.002184694167226553 
vn 3.097898456858039e-13 -0.999997615814209 0.002184694167226553 
vn 3.097898456858039e-13 -0.999997615814209 0.002184694167226553 
vn 3.097898456858039e-13 -0.999997615814209 0.002184694167226553 
vn 3.097898456858039e-13 -0.999997615814209 0.002184694167226553 
vn 3.097898456858039e-13 -0.999997615814209 0.002184694167226553 
vn 3.097898456858039e-13 -0.999997615814209 0.002184694167226553 
vn 3.097898456858039e-13 -0.999997615814209 -0.002184694167226553 
vn 3.097898456858039e-13 -0.999997615814209 -0.002184694167226553 
vn 3.097898456858039e-13 -0.999997615814209 -0.002184694167226553 
vn 3.097898456858039e-13 -0.999997615814209 -0.002184694167226553 
vn 3.097898456858039e-13 -0.999997615814209 0.002184694167226553 
vn 3.097898456858039e-13 -0.999997615814209 0.002184694167226553 
vn 3.097898456858039e-13 -0.999997615814209 0.002184694167226553 
vn 3.097898456858039e-13 -0.999997615814209 0.002184694167226553 
vn 3.097898456858039e-13 -0.999997615814209 -0.002184694167226553 
vn 3.097898456858039e-13 -0.999997615814209 -0.002184694167226553 
vn 3.097898456858039e-13 -0.999997615814209 -0.002184694167226553 
vn 3.097898456858039e-13 -0.999997615814209 -0.002184694167226553 
vn 3.097898456858039e-13 -0.999997615814209 0.002184694167226553 
vn 3.097898456858039e-13 -0.999997615814209 0.002184694167226553 
vn 3.097898456858039e-13 -0.999997615814209 0.002184694167226553 
vn 3.097898456858039e-13 -0.999997615814209 0.002184694167226553 
vn -0.7078686952590942 0.0037756471429020166 -0.7063339352607727 
vn -0.7078686952590942 0.0037756471429020166 -0.7063339352607727 
vn -0.9998067021369934 -2.0678313119963654e-13 0.01966099627315998 
vn -0.9998067021369934 -2.0678313119963654e-13 0.01966099627315998 
vn -0.7078787684440613 -1.4640568759497624e-13 0.7063339352607727 
vn -0.7078787684440613 -1.4640568759497624e-13 0.7063339352607727 
vn 0.017476677894592285 0 0.9998472929000854 
vn 0.017476677894592285 0 0.9998472929000854 
vn 0.7078787684440613 0 0.7063339352607727 
vn 0.7078787684440613 0 0.7063339352607727 
vn 0.9998067021369934 0 -0.01966099627315998 
vn 0.9998067021369934 0 -0.01966099627315998 
vn 0.7078787684440613 0 -0.7063339352607727 
vn 0.7078787684440613 0 -0.7063339352607727 
vn -0.017476677894592285 -3.6145805417514814e-15 -0.9998472929000854 
vn -0.017476677894592285 -3.6145805417514814e-15 -0.9998472929000854 
vn -0.7078686952590942 0.0037756471429020166 -0.7063339352607727 
vn -0.10743536055088043 -0.9884541630744934 -0.10684575140476227 
vn -0.6945074796676636 -0.19032858312129974 -0.6938546895980835 
vn 0.0018872113432735205 -0.9959892630577087 -0.08945280313491821 
vn 0.0018903466407209635 -0.2081880271434784 -0.9780870079994202 
vn 0.693499743938446 -0.19396844506263733 -0.6938546895980835 
vn -2.0682311115474694e-13 0 -1 
vn 0.7078787684440613 0 -0.7063339352607727 
vn 0.0018903466407209635 0.2081880271434784 -0.9780870079994202 
vn 0.6829349994659424 0.20839929580688477 -0.7001210451126099 
vn 0.655198872089386 0.5804555416107178 -0.4835140109062195 
vn -0.7078686952590942 0.0037756471429020166 -0.7063339352607727 
vn -0.6829349994659424 0.20839929580688477 -0.7001210451126099 
vn -0.655198872089386 0.5804555416107178 -0.4835140109062195 
vn -0.0018928318750113249 0.18677081167697906 -0.9824016690254211 
vn 0.6582516431808472 0.1054050549864769 -0.7453821301460266 
vn -0.6582516431808472 0.1054050549864769 -0.7453821301460266 
vn 2.0682311115474694e-13 4.2775797696334704e-26 -1 
vn 0.6582516431808472 -0.1054050549864769 -0.7453821301460266 
vn -0.6582516431808472 -0.1054050549864769 -0.7453821301460266 
vn -2.0682311115474694e-13 0 -1 
vn 0.660223126411438 -0.568227231502533 -0.4911448359489441 
vn -0.6599370837211609 -0.5652532577514648 -0.4949462115764618 
vn -0.0018983004847541451 -0.1824762523174286 -0.983208417892456 
vn 0.6774015426635742 -0.24432110786437988 -0.6938546895980835 
vn -0.6761108040809631 -0.2478705197572708 -0.6938546895980835 
vn 0.0037853566464036703 -0.23373335599899292 -0.9722933769226074 
vn 0.7078787684440613 0 -0.7063339352607727 
vn -0.7078686952590942 0.0037756471429020166 -0.7063339352607727 
vn -2.0682311115474694e-13 0 -1 
vn 0.6996522545814514 0.14253854751586914 -0.7001210451126099 
vn -0.6996522545814514 0.14253854751586914 -0.7001210451126099 
vn -1.7981948734397714e-14 0.1738872230052948 -0.9847655892372131 
vn 0.10367967188358307 -0.9888551235198975 -0.10684575140476227 
vn 0.693499743938446 -0.19396844506263733 -0.6938546895980835 
vn 0.0904986634850502 -0.995894193649292 0.002184694167226553 
vn 0.9777246117591858 -0.20988060534000397 0.002184694167226553 
vn 0.1054307073354721 -0.9886699914932251 0.10684575140476227 
vn 0.8259233236312866 -0.22358231246471405 0.5175535082817078 
vn 0.999997615814209 0 0.002184694167226553 
vn 0.7078787684440613 0 -0.7063339352607727 
vn 0.9849507808685303 0.17282135784626007 0.002184694167226553 
vn 0.9141958951950073 0 0.405272513628006 
vn 0.9772695899009705 0.15784130990505219 0.1415284425020218 
vn 0.992919921875 0.1054987832903862 -0.05459024757146835 
vn 0.9922720789909363 0.045264460146427155 0.11553031951189041 
vn 0.992919921875 -0.1054987832903862 -0.05459024757146835 
vn 0.9922720789909363 -0.045264460146427155 0.11553031951189041 
vn 0.9807829260826111 -0.19508986175060272 -0.002184694167226553 
vn 0.9734034538269043 -0.1801537722349167 0.1415284425020218 
vn 0.999997615814209 0 -0.002184694167226553 
vn 0.903258204460144 0 0.42909738421440125 
vn 0.9849507808685303 0.17282135784626007 -0.002184694167226553 
vn 0.8426805138587952 0.17242951691150665 0.5100564956665039 
vn 0.660223126411438 -0.568227231502533 -0.4911448359489441 
vn 0.6774015426635742 -0.24432110786437988 -0.6938546895980835 
vn 0.7078787684440613 0 -0.7063339352607727 
vn 0.6996522545814514 0.14253854751586914 -0.7001210451126099 
vn 0.9687014222145081 -0.1503702700138092 -0.1975002884864807 
vn 0.9687014222145081 0.1503702700138092 -0.1975002884864807 
vn 0.6582516431808472 0.1054050549864769 -0.7453821301460266 
vn 0.655198872089386 0.5804555416107178 -0.4835140109062195 
vn 0.6829349994659424 0.20839929580688477 -0.7001210451126099 
vn -0.1054307073354721 -0.9886699914932251 0.10684575140476227 
vn -0.8225705027580261 -0.22723856568336487 0.5212872624397278 
vn -0.0904986634850502 -0.995894193649292 0.002184694167226553 
vn -0.9777246117591858 -0.20988060534000397 0.002184694167226553 
vn -0.10743536055088043 -0.9884541630744934 -0.10684575140476227 
vn -0.6945074796676636 -0.19032858312129974 -0.6938546895980835 
vn -0.999997615814209 -2.0682260971124217e-13 0.002184694167226553 
vn -0.9087973237037659 0.0037715816870331764 0.417220801115036 
vn -0.9849507808685303 0.17282135784626007 0.002184694167226553 
vn -0.7078686952590942 0.0037756471429020166 -0.7063339352607727 
vn -0.6829349994659424 0.20839929580688477 -0.7001210451126099 
vn -0.9933116436004639 0.10174430906772614 -0.05459024757146835 
vn -0.655198872089386 0.5804555416107178 -0.4835140109062195 
vn -0.9687014222145081 0.1503702700138092 -0.1975002884864807 
vn -0.6582516431808472 0.1054050549864769 -0.7453821301460266 
vn -0.9687014222145081 -0.1503702700138092 -0.1975002884864807 
vn -0.6582516431808472 -0.1054050549864769 -0.7453821301460266 
vn -0.9933116436004639 -0.10174430906772614 -0.05459024757146835 
vn -0.6599370837211609 -0.5652532577514648 -0.4949462115764618 
vn -0.9807829260826111 -0.19508986175060272 -0.002184694167226553 
vn -0.6761108040809631 -0.2478705197572708 -0.6938546895980835 
vn -0.999997615814209 -2.0682260971124217e-13 -0.002184694167226553 
vn -0.7078686952590942 0.0037756471429020166 -0.7063339352607727 
vn -0.9849507808685303 0.17282135784626007 -0.002184694167226553 
vn -0.6996522545814514 0.14253854751586914 -0.7001210451126099 
vn -0.9732807278633118 0.1616060435771942 0.16312000155448914 
vn -0.9888983368873596 0.04527502506971359 0.1415284425020218 
vn -0.9888983368873596 -0.04527502506971359 0.1415284425020218 
vn -0.9693141579627991 -0.18390728533267975 0.16312000155448914 
vn -0.8975481390953064 0.0037747621536254883 0.4409002661705017 
vn -0.8373685479164124 0.17593252658843994 0.5175535082817078 
vn -0.8373685479164124 0.17593252658843994 0.5175535082817078 
vn -0.8975481390953064 0.0037747621536254883 0.4409002661705017 
vn 0.0037409996148198843 0.21670354902744293 0.976230263710022 
vn 0 0 1 
vn 0 0 1 
vn 0 0 1 
vn 0.903258204460144 0 0.42909738421440125 
vn 0.8426805138587952 0.17242951691150665 0.5100564956665039 
vn 0.9734034538269043 -0.1801537722349167 0.1415284425020218 
vn 6.069362406321138e-14 -0.19535815715789795 0.9807319641113281 
vn 0.0036530625075101852 -0.03475656732916832 0.999389111995697 
vn 0.9922720789909363 -0.045264460146427155 0.11553031951189041 
vn 0.9922720789909363 0.045264460146427155 0.11553031951189041 
vn -0.0036530625075101852 0.03475656732916832 0.999389111995697 
vn 0.9772695899009705 0.15784130990505219 0.1415284425020218 
vn -0.003741374472156167 0.17384697496891022 0.9847655892372131 
vn 0.9141958951950073 0 0.405272513628006 
vn 0 0 1 
vn 0.0018801316618919373 -0.25494125485420227 0.9669547080993652 
vn 0.8259233236312866 -0.22358231246471405 0.5175535082817078 
vn 0.1054307073354721 -0.9886699914932251 0.10684575140476227 
vn 0 0 1 
vn 0 0 1 
vn -0.8225705027580261 -0.22723856568336487 0.5212872624397278 
vn -0.9087973237037659 0.0037715816870331764 0.417220801115036 
vn -0.1054307073354721 -0.9886699914932251 0.10684575140476227 
vn 0.0018872113432735205 -0.9959892630577087 0.08945280313491821 
vn -0.9693141579627991 -0.18390728533267975 0.16312000155448914 
vn 6.069362406321138e-14 -0.19535815715789795 0.9807319641113281 
vn -0.0017781255301088095 -0.030529234558343887 0.9995322823524475 
vn -0.9888983368873596 -0.04527502506971359 0.1415284425020218 
vn -0.9888983368873596 0.04527502506971359 0.1415284425020218 
vn 0.0036530625075101852 0.03475656732916832 0.999389111995697 
vn -0.9732807278633118 0.1616060435771942 0.16312000155448914 
vn 0.003741374472156167 0.17384697496891022 0.9847655892372131 
vn 0 0 1 
vn 0 0 1 
vn 6.069362406321138e-14 -0.19535815715789795 0.9807319641113281 
vn 6.069362406321138e-14 -0.19535815715789795 0.9807319641113281 
vn 0.0036530625075101852 -0.03475656732916832 0.999389111995697 
vn -0.0017781255301088095 -0.030529234558343887 0.9995322823524475 
vn -0.0036530625075101852 0.03475656732916832 0.999389111995697 
vn -0.0017781255301088095 0.030529234558343887 0.9995322823524475 
vn -0.003741374472156167 0.17384697496891022 0.9847655892372131 
vn -0.0037316959351301193 0.1781492978334427 0.9839963912963867 
vn 0 0 1 
vn 0 0 1 
vn 0.0036530625075101852 0.03475656732916832 0.999389111995697 
vn -0.0017781255301088095 -0.030529234558343887 0.9995322823524475 
vn 6.069362406321138e-14 -0.19535815715789795 0.9807319641113281 
vn 0 0 1 
vn 0.003741374472156167 0.17384697496891022 0.9847655892372131 
vn 0.6582516431808472 -0.1054050549864769 -0.7453821301460266 
vn 0.9849507808685303 0.17282135784626007 -0.002184694167226553 
vn 0.6996522545814514 0.14253854751586914 -0.7001210451126099 
vn 0.21725822985172272 0.9761117100715637 0.002184694167226553 
vn 0.1894933432340622 0.9635347127914429 -0.18892620503902435 
vn -1.0341130485562108e-13 0.999997615814209 0.002184694167226553 
vn -1.0341130485562108e-13 0.999997615814209 -0.002184694167226553 
vn -1.7981948734397714e-14 0.1738872230052948 -0.9847655892372131 
vn -1.0112094809503619e-13 0.97575443983078 -0.21886809170246124 
vn -1.0341130485562108e-13 0.999997615814209 -0.002184694167226553 
vn -0.6996522545814514 0.14253854751586914 -0.7001210451126099 
vn -0.19319699704647064 0.9627989530563354 -0.18892620503902435 
vn -1.0341130485562108e-13 0.999997615814209 -0.002184694167226553 
vn -0.21725822985172272 0.9761117100715637 0.002184694167226553 
vn -1.0341130485562108e-13 0.999997615814209 0.002184694167226553 
vn -0.9849507808685303 0.17282135784626007 -0.002184694167226553 
vn -0.8373685479164124 0.17593252658843994 0.5175535082817078 
vn -0.19319699704647064 0.9627989530563354 0.18892620503902435 
vn 0.0037409996148198843 0.21670354902744293 0.976230263710022 
vn -1.0112094809503619e-13 0.97575443983078 0.21886809170246124 
vn 0.8426805138587952 0.17242951691150665 0.5100564956665039 
vn 0.1894933432340622 0.9635347127914429 0.18892620503902435 
vn -1.0341130485562108e-13 0.999997615814209 0.002184694167226553 
vn -1.0341130485562108e-13 0.999997615814209 0.002184694167226553 
vn -1.0341130485562108e-13 0.999997615814209 0.002184694167226553 
vn -0.1054307073354721 -0.9886699914932251 0.10684575140476227 
vn -1.0341130485562108e-13 0.999997615814209 -0.002184694167226553 
vn -0.7078686952590942 0.0037756471429020166 -0.7063339352607727 
vn -0.7078686952590942 0.0037756471429020166 -0.7063339352607727 
vn 0.10367967188358307 -0.9888551235198975 -0.10684575140476227 
vn 0 0 1 
vt 0.1327061504125595 0.26183101534843445 
vt 0.11547397822141647 0.3017998933792114 
vt 0.11695951223373413 0.22335593402385712 
vt 0.07699869573116302 0.26183101534843445 
vt 0.03852342069149017 0.22186215221881866 
vt 0.021291248500347137 0.2618713974952698 
vt 0.07699869573116302 0.31754520535469055 
vt 0.037037886679172516 0.3003464937210083 
vt 0.1816544234752655 0.19012929499149323 
vt 0.25347989797592163 0.19012929499149323 
vt 0.1816544234752655 0.26195213198661804 
vt 0.25347989797592163 0.26195213198661804 
vt 0.1816544234752655 0.3337346315383911 
vt 0.25347989797592163 0.3337346315383911 
vt 0.32530537247657776 0.26195213198661804 
vt 0.32530537247657776 0.3337346315383911 
vt 0.1692502349615097 0.1903715282678604 
vt 0.17771777510643005 0.1903715282678604 
vt 0.1692502349615097 0.20785285532474518 
vt 0.17771777510643005 0.20785285532474518 
vt 0.1692502349615097 0.22622239589691162 
vt 0.17771777510643005 0.22622239589691162 
vt 0.17771777510643005 0.2437441051006317 
vt 0.1692502349615097 0.2437441051006317 
vt 0.17771777510643005 0.26211363077163696 
vt 0.1692502349615097 0.26211363077163696 
vt 0.1692502349615097 0.27959495782852173 
vt 0.17771777510643005 0.27959495782852173 
vt 0.1692502349615097 0.29796451330184937 
vt 0.17771777510643005 0.29796451330184937 
vt 0.17771777510643005 0.31548622250556946 
vt 0.1692502349615097 0.31548622250556946 
vt 0.1692502349615097 0.3338557481765747 
vt 0.12156465649604797 0.21907643973827362 
vt 0.11785082519054413 0.22270998358726501 
vt 0.13909393548965454 0.26199251413345337 
vt 0.13389457762241364 0.26199251413345337 
vt 0.13909393548965454 0.26199251413345337 
vt 0.13389457762241364 0.26199251413345337 
vt 0.11993057280778885 0.3066042363643646 
vt 0.11629101634025574 0.3028092086315155 
vt 0.03770637512207031 0.22117581963539124 
vt 0.07699869573116302 0.2051478922367096 
vt 0.0340668223798275 0.21742117404937744 
vt 0.07699869573116302 0.19989946484565735 
vt 0.07699869573116302 0.2051478922367096 
vt 0.11785082519054413 0.22270998358726501 
vt 0.07699869573116302 0.19989946484565735 
vt 0.12156465649604797 0.21907643973827362 
vt 0.07699869573116302 0.3241259455680847 
vt 0.07699869573116302 0.31887751817703247 
vt 0.032432738691568375 0.30494895577430725 
vt 0.036220844835042953 0.30131542682647705 
vt 0.07699869573116302 0.3241259455680847 
vt 0.11993057280778885 0.3066042363643646 
vt 0.07699869573116302 0.31887751817703247 
vt 0.11629101634025574 0.3028092086315155 
vt 0.032432738691568375 0.30494895577430725 
vt 0.036220844835042953 0.30131542682647705 
vt 0.014903460629284382 0.2620328962802887 
vt 0.020177099853754044 0.2620328962802887 
vt 0.014903460629284382 0.2620328962802887 
vt 0.020177099853754044 0.2620328962802887 
vt 0.0340668223798275 0.21742117404937744 
vt 0.03770637512207031 0.22117581963539124 
vt 0.153429314494133 0.1903715282678604 
vt 0.1692502349615097 0.1903715282678604 
vt 0.153429314494133 0.20785285532474518 
vt 0.1692502349615097 0.20785285532474518 
vt 0.153429314494133 0.22622239589691162 
vt 0.1692502349615097 0.22622239589691162 
vt 0.1692502349615097 0.2437441051006317 
vt 0.153429314494133 0.2437441051006317 
vt 0.1692502349615097 0.26211363077163696 
vt 0.153429314494133 0.26211363077163696 
vt 0.153429314494133 0.27959495782852173 
vt 0.1692502349615097 0.27959495782852173 
vt 0.153429314494133 0.29796451330184937 
vt 0.1692502349615097 0.29796451330184937 
vt 0.1692502349615097 0.31548622250556946 
vt 0.153429314494133 0.31548622250556946 
vt 0.153429314494133 0.3338557481765747 
vt 0.45283830165863037 0.0031637800857424736 
vt 0.46026596426963806 0.009260042570531368 
vt 0.3849494755268097 0.0031637800857424736 
vt 0.3849494755268097 0.009260042570531368 
vt 0.3096330165863037 0.009260042570531368 
vt 0.3849494755268097 0.03429105505347252 
vt 0.3096330165863037 0.03429105505347252 
vt 0.3849494755268097 0.045272402465343475 
vt 0.3096330165863037 0.045272402465343475 
vt 0.31282690167427063 0.0508841946721077 
vt 0.46026596426963806 0.03429105505347252 
vt 0.46026596426963806 0.045272402465343475 
vt 0.45707204937934875 0.0508841946721077 
vt 0.3849494755268097 0.0508841946721077 
vt 0.3244883418083191 0.06578168272972107 
vt 0.4454106390476227 0.06578168272972107 
vt 0.38487520813941956 0.06578168272972107 
vt 0.3244883418083191 0.12537163496017456 
vt 0.4454106390476227 0.12537163496017456 
vt 0.38487520813941956 0.12537163496017456 
vt 0.31282690167427063 0.1402287632226944 
vt 0.45707204937934875 0.1402287632226944 
vt 0.3849494755268097 0.1402287632226944 
vt 0.3096330165863037 0.14648650586605072 
vt 0.46026596426963806 0.14648650586605072 
vt 0.3849494755268097 0.14648650586605072 
vt 0.3096330165863037 0.15520699322223663 
vt 0.46026596426963806 0.15520699322223663 
vt 0.3849494755268097 0.15520699322223663 
vt 0.3096330165863037 0.18306408822536469 
vt 0.46026596426963806 0.18306408822536469 
vt 0.3849494755268097 0.18306408822536469 
vt 0.6054766774177551 0.0031637800857424736 
vt 0.6128301024436951 0.009260042570531368 
vt 0.5375136137008667 0.0031637800857424736 
vt 0.5375136137008667 0.009260042570531368 
vt 0.4696248173713684 0.0031637800857424736 
vt 0.4621971547603607 0.009260042570531368 
vt 0.5375136137008667 0.03429105505347252 
vt 0.6128301024436951 0.03429105505347252 
vt 0.5375136137008667 0.045272402465343475 
vt 0.4621971547603607 0.03429105505347252 
vt 0.4621971547603607 0.045272402465343475 
vt 0.5375136137008667 0.0508841946721077 
vt 0.46539103984832764 0.0508841946721077 
vt 0.5375136137008667 0.1402287632226944 
vt 0.46539103984832764 0.1402287632226944 
vt 0.5375136137008667 0.14648650586605072 
vt 0.4621971547603607 0.14648650586605072 
vt 0.5375136137008667 0.15520699322223663 
vt 0.4621971547603607 0.15520699322223663 
vt 0.5375136137008667 0.18306408822536469 
vt 0.4621971547603607 0.18306408822536469 
vt 0.6089677214622498 0.1402287632226944 
vt 0.6128301024436951 0.14648650586605072 
vt 0.6128301024436951 0.15520699322223663 
vt 0.6128301024436951 0.18306408822536469 
vt 0.5511062145233154 0.12537163496017456 
vt 0.5511062145233154 0.06578168272972107 
vt 0.6089677214622498 0.06578168272972107 
vt 0.6089677214622498 0.0508841946721077 
vt 0.6128301024436951 0.045272402465343475 
vt 0.16412514448165894 0.0031637800857424736 
vt 0.15677176415920258 0.009260042570531368 
vt 0.23208823800086975 0.0031637800857424736 
vt 0.23208823800086975 0.009260042570531368 
vt 0.30005133152008057 0.0031637800857424736 
vt 0.30740469694137573 0.009260042570531368 
vt 0.23208823800086975 0.03429105505347252 
vt 0.15677176415920258 0.03429105505347252 
vt 0.23208823800086975 0.045272402465343475 
vt 0.30740469694137573 0.03429105505347252 
vt 0.30740469694137573 0.045272402465343475 
vt 0.23208823800086975 0.0508841946721077 
vt 0.3035423159599304 0.0508841946721077 
vt 0.2455323040485382 0.06578168272972107 
vt 0.3035423159599304 0.06578168272972107 
vt 0.2455323040485382 0.12537163496017456 
vt 0.3035423159599304 0.12537163496017456 
vt 0.23208823800086975 0.1402287632226944 
vt 0.3035423159599304 0.1402287632226944 
vt 0.23208823800086975 0.14648650586605072 
vt 0.30740469694137573 0.14648650586605072 
vt 0.23208823800086975 0.15520699322223663 
vt 0.30740469694137573 0.15520699322223663 
vt 0.23208823800086975 0.18306408822536469 
vt 0.30740469694137573 0.18306408822536469 
vt 0.15677176415920258 0.045272402465343475 
vt 0.1599656641483307 0.0508841946721077 
vt 0.1599656641483307 0.1402287632226944 
vt 0.15677176415920258 0.14648650586605072 
vt 0.15677176415920258 0.15520699322223663 
vt 0.15677176415920258 0.18306408822536469 
vt 0.004430459812283516 0.18306408822536469 
vt 0.004430459812283516 0.15520699322223663 
vt 0.07974693179130554 0.18306408822536469 
vt 0.01780024729669094 0.15520699322223663 
vt 0.07974693179130554 0.15520699322223663 
vt 0.14362481236457825 0.15520699322223663 
vt 0.15506340563297272 0.15520699322223663 
vt 0.15506340563297272 0.18306408822536469 
vt 0.15506340563297272 0.14648650586605072 
vt 0.14377336204051971 0.14648650586605072 
vt 0.14340198040008545 0.1402287632226944 
vt 0.1518695056438446 0.1402287632226944 
vt 0.1518695056438446 0.0508841946721077 
vt 0.14340198040008545 0.0508841946721077 
vt 0.15506340563297272 0.045272402465343475 
vt 0.14362481236457825 0.045272402465343475 
vt 0.15506340563297272 0.03429105505347252 
vt 0.14362481236457825 0.03429105505347252 
vt 0.07974693179130554 0.009260042570531368 
vt 0.15506340563297272 0.009260042570531368 
vt 0.14763574302196503 0.0031637800857424736 
vt 0.07974693179130554 0.03429105505347252 
vt 0.01750314235687256 0.03429105505347252 
vt 0.004430459812283516 0.009260042570531368 
vt 0.004430459812283516 0.03429105505347252 
vt 0.011783843860030174 0.0031637800857424736 
vt 0.07974693179130554 0.0031637800857424736 
vt 0.004430459812283516 0.14648650586605072 
vt 0.01757741905748844 0.14648650586605072 
vt 0.01780024729669094 0.1402287632226944 
vt 0.007624353747814894 0.1402287632226944 
vt 0.007624353747814894 0.0508841946721077 
vt 0.01780024729669094 0.0508841946721077 
vt 0.004430459812283516 0.045272402465343475 
vt 0.01750314235687256 0.045272402465343475 
vt 0.5837136507034302 0.3125793933868408 
vt 0.5203557014465332 0.3125793933868408 
vt 0.5839365124702454 0.30389928817749023 
vt 0.5203557014465332 0.30389928817749023 
vt 0.5835651159286499 0.29768189787864685 
vt 0.5203557014465332 0.29768189787864685 
vt 0.5835651159286499 0.2086603194475174 
vt 0.5203557014465332 0.2086603194475174 
vt 0.5837879180908203 0.2030888944864273 
vt 0.5203557014465332 0.2030888944864273 
vt 0.5837879180908203 0.19210754334926605 
vt 0.5203557014465332 0.19210754334926605 
vt 0.45885470509529114 0.2086603194475174 
vt 0.45885470509529114 0.29768189787864685 
vt 0.45863187313079834 0.30389928817749023 
vt 0.45885470509529114 0.3125793933868408 
vt 0.4585576057434082 0.2030888944864273 
vt 0.6089677214622498 0.12537163496017456 
vt 0.14867562055587769 0.26183101534843445 
vt 0.14867562055587769 0.3334923982620239 
vt 0.14288204908370972 0.26183101534843445 
vt 0.14288204908370972 0.32767874002456665 
vt 0.14028236269950867 0.26183101534843445 
vt 0.12074761837720871 0.3072502017021179 
vt 0.07699869573116302 0.3334923982620239 
vt 0.07699869573116302 0.32767874002456665 
vt 0.07699869573116302 0.3251352608203888 
vt 0.005396055988967419 0.3334923982620239 
vt 0.011189630255103111 0.32767874002456665 
vt 0.03161569684743881 0.30559492111206055 
vt 0.011189630255103111 0.26183101534843445 
vt 0.013715035282075405 0.2618713974952698 
vt 0.005396055988967419 0.26183101534843445 
vt 0.005396055988967419 0.19016966223716736 
vt 0.011189630255103111 0.19598332047462463 
vt 0.07699869573116302 0.19016966223716736 
vt 0.07699869573116302 0.19598332047462463 
vt 0.14867562055587769 0.19016966223716736 
vt 0.14288204908370972 0.19598332047462463 
vt 0.12245597690343857 0.21810750663280487 
vt 0.07699869573116302 0.19856716692447662 
vt 0.03324978053569794 0.21641185879707336 
vt 0.32530537247657776 0.19012929499149323 
vt 0.07699869573116302 0.20615720748901367 
vt 0.17771777510643005 0.3338557481765747 
vt 0.1692502349615097 0.3338557481765747 
vt 0.3169863820075989 0.0031637800857424736 
vt 0.4585576057434082 0.19210754334926605 
s on 
f 1/1/1 2/2/2 3/3/3 
f 2/2/2 4/4/4 3/3/3 
f 3/3/3 4/4/4 5/5/5 
f 4/4/4 6/6/6 5/5/5 
f 5/5/5 6/6/6 6/6/6 
f 6/6/6 2/2/2 6/6/6 
f 6/6/6 2/2/2 2/2/2 
f 2/2/2 7/7/7 2/2/2 
f 2/2/2 7/7/7 4/4/4 
f 7/7/7 8/8/8 4/4/4 
f 4/4/4 8/8/8 6/6/6 
f 8/8/8 6/6/6 6/6/6 
f 6/6/6 6/6/6 9/9/9 
f 6/6/6 9/9/9 9/9/9 
f 9/9/9 9/9/9 9/9/9 
f 9/9/9 10/10/10 9/9/9 
f 9/9/9 10/10/10 11/11/11 
f 10/10/10 12/12/12 11/11/11 
f 11/11/11 12/12/12 13/13/13 
f 12/12/12 14/14/14 13/13/13 
f 13/13/13 14/14/14 14/14/14 
f 14/14/14 10/10/10 14/14/14 
f 14/14/14 10/10/10 10/10/10 
f 10/10/10 15/15/15 10/10/10 
f 10/10/10 15/15/15 12/12/12 
f 15/15/15 16/16/16 12/12/12 
f 12/12/12 16/16/16 14/14/14 
f 16/16/16 14/14/14 14/14/14 
f 14/14/14 14/14/14 17/17/17 
f 14/14/14 17/17/17 17/17/17 
f 17/17/17 17/17/17 17/17/17 
f 17/17/17 18/18/18 17/17/17 
f 17/17/17 18/18/18 19/19/19 
f 18/18/18 20/20/20 19/19/19 
f 19/19/19 20/20/20 21/21/21 
f 20/20/20 22/22/22 21/21/21 
f 21/21/21 22/22/22 23/23/23 
f 22/22/22 23/23/23 23/23/23 
f 23/23/23 23/23/23 21/21/21 
f 23/23/23 21/21/21 21/21/21 
f 21/21/21 21/21/21 21/21/21 
f 21/21/21 23/23/23 21/21/21 
f 21/21/21 23/23/23 24/24/24 
f 23/23/23 25/25/25 24/24/24 
f 24/24/24 25/25/25 26/26/26 
f 25/25/25 27/27/27 26/26/26 
f 26/26/26 27/27/27 27/27/27 
f 27/27/27 25/25/25 27/27/27 
f 27/27/27 25/25/25 25/25/25 
f 25/25/25 28/28/28 25/25/25 
f 25/25/25 28/28/28 27/27/27 
f 28/28/28 29/29/29 27/27/27 
f 27/27/27 29/29/29 29/29/29 
f 29/29/29 28/28/28 29/29/29 
f 29/29/29 28/28/28 28/28/28 
f 28/28/28 30/30/30 28/28/28 
f 28/28/28 30/30/30 29/29/29 
f 30/30/30 31/31/31 29/29/29 
f 29/29/29 31/31/31 32/32/32 
f 31/31/31 33/33/33 32/32/32 
f 32/32/32 33/33/33 33/33/33 
f 33/33/33 34/34/34 33/33/33 
f 33/33/33 34/34/34 34/34/34 
f 34/34/34 35/35/35 34/34/34 
f 34/34/34 35/35/35 36/36/36 
f 35/35/35 37/37/37 36/36/36 
f 36/36/36 37/37/37 37/37/37 
f 37/37/37 38/38/38 37/37/37 
f 37/37/37 38/38/38 38/38/38 
f 38/38/38 39/39/39 38/38/38 
f 38/38/38 39/39/39 40/40/40 
f 39/39/39 41/41/41 40/40/40 
f 40/40/40 41/41/41 41/41/41 
f 41/41/41 42/42/42 41/41/41 
f 41/41/41 42/42/42 42/42/42 
f 42/42/42 43/43/43 42/42/42 
f 42/42/42 43/43/43 44/44/44 
f 43/43/43 45/45/45 44/44/44 
f 44/44/44 45/45/45 45/45/45 
f 45/45/45 46/46/46 45/45/45 
f 45/45/45 46/46/46 46/46/46 
f 46/46/46 47/47/47 46/46/46 
f 46/46/46 47/47/47 48/48/48 
f 47/47/47 49/49/49 48/48/48 
f 48/48/48 49/49/49 49/49/49 
f 49/49/49 50/50/50 49/49/49 
f 49/49/49 50/50/50 50/50/50 
f 50/50/50 51/51/51 50/50/50 
f 50/50/50 51/51/51 52/52/52 
f 51/51/51 53/53/53 52/52/52 
f 52/52/52 53/53/53 53/53/53 
f 53/53/53 54/54/54 53/53/53 
f 53/53/53 54/54/54 54/54/54 
f 54/54/54 55/55/55 54/54/54 
f 54/54/54 55/55/55 56/56/56 
f 55/55/55 57/57/57 56/56/56 
f 56/56/56 57/57/57 57/57/57 
f 57/57/57 58/58/58 57/57/57 
f 57/57/57 58/58/58 58/58/58 
f 58/58/58 59/59/59 58/58/58 
f 58/58/58 59/59/59 60/60/60 
f 59/59/59 61/61/61 60/60/60 
f 60/60/60 61/61/61 61/61/61 
f 61/61/61 62/62/62 61/61/61 
f 61/61/61 62/62/62 62/62/62 
f 62/62/62 63/63/63 62/62/62 
f 62/62/62 63/63/63 64/64/64 
f 63/63/63 65/65/65 64/64/64 
f 64/64/64 65/65/65 65/65/65 
f 65/65/65 66/66/66 65/65/65 
f 65/65/65 66/66/66 66/66/66 
f 66/66/66 67/67/67 66/66/66 
f 66/66/66 67/67/67 68/68/68 
f 67/67/67 69/69/69 68/68/68 
f 68/68/68 69/69/69 70/70/70 
f 69/69/69 71/71/71 70/70/70 
f 70/70/70 71/71/71 72/72/72 
f 71/71/71 72/72/72 72/72/72 
f 72/72/72 72/72/72 70/70/70 
f 72/72/72 70/70/70 70/70/70 
f 70/70/70 70/70/70 70/70/70 
f 70/70/70 72/72/72 70/70/70 
f 70/70/70 72/72/72 73/73/73 
f 72/72/72 74/74/74 73/73/73 
f 73/73/73 74/74/74 75/75/75 
f 74/74/74 76/76/76 75/75/75 
f 75/75/75 76/76/76 76/76/76 
f 76/76/76 74/74/74 76/76/76 
f 76/76/76 74/74/74 74/74/74 
f 74/74/74 77/77/77 74/74/74 
f 74/74/74 77/77/77 76/76/76 
f 77/77/77 78/78/78 76/76/76 
f 76/76/76 78/78/78 78/78/78 
f 78/78/78 77/77/77 78/78/78 
f 78/78/78 77/77/77 77/77/77 
f 77/77/77 79/79/79 77/77/77 
f 77/77/77 79/79/79 78/78/78 
f 79/79/79 80/80/80 78/78/78 
f 78/78/78 80/80/80 81/81/81 
f 80/80/80 82/82/82 81/81/81 
f 81/81/81 82/82/82 82/82/82 
f 82/82/82 83/83/83 82/82/82 
f 82/82/82 83/83/83 83/83/83 
f 83/83/83 84/84/84 83/83/83 
f 83/83/83 84/84/84 85/85/85 
f 84/84/84 86/86/86 85/85/85 
f 85/85/85 86/86/86 87/87/87 
f 86/86/86 88/88/88 87/87/87 
f 87/87/87 88/88/88 89/89/89 
f 88/88/88 90/90/90 89/89/89 
f 89/89/89 90/90/90 91/91/91 
f 90/90/90 92/92/92 91/91/91 
f 91/91/91 92/92/92 92/92/92 
f 92/92/92 84/84/84 92/92/92 
f 92/92/92 84/84/84 84/84/84 
f 84/84/84 93/93/93 84/84/84 
f 84/84/84 93/93/93 86/86/86 
f 93/93/93 88/88/88 86/86/86 
f 86/86/86 88/88/88 88/88/88 
f 88/88/88 93/93/93 88/88/88 
f 88/88/88 93/93/93 93/93/93 
f 93/93/93 94/94/94 93/93/93 
f 93/93/93 94/94/94 88/88/88 
f 94/94/94 90/90/90 88/88/88 
f 88/88/88 90/90/90 90/90/90 
f 90/90/90 94/94/94 90/90/90 
f 90/90/90 94/94/94 94/94/94 
f 94/94/94 95/95/95 94/94/94 
f 94/94/94 95/95/95 90/90/90 
f 95/95/95 96/96/96 90/90/90 
f 90/90/90 96/96/96 92/92/92 
f 96/96/96 97/97/97 92/92/92 
f 92/92/92 97/97/97 97/97/97 
f 97/97/97 95/95/95 97/97/97 
f 97/97/97 95/95/95 95/95/95 
f 95/95/95 98/98/98 95/95/95 
f 95/95/95 98/98/98 96/96/96 
f 98/98/98 99/99/99 96/96/96 
f 96/96/96 99/99/99 97/97/97 
f 99/99/99 100/100/100 97/97/97 
f 97/97/97 100/100/100 100/100/100 
f 100/100/100 98/98/98 100/100/100 
f 100/100/100 98/98/98 98/98/98 
f 98/98/98 101/101/101 98/98/98 
f 98/98/98 101/101/101 99/99/99 
f 101/101/101 102/102/102 99/99/99 
f 99/99/99 102/102/102 100/100/100 
f 102/102/102 103/103/103 100/100/100 
f 100/100/100 103/103/103 103/103/103 
f 103/103/103 101/101/101 103/103/103 
f 103/103/103 101/101/101 101/101/101 
f 101/101/101 104/104/104 101/101/101 
f 101/101/101 104/104/104 102/102/102 
f 104/104/104 105/105/105 102/102/102 
f 102/102/102 105/105/105 103/103/103 
f 105/105/105 106/106/106 103/103/103 
f 103/103/103 106/106/106 106/106/106 
f 106/106/106 104/104/104 106/106/106 
f 106/106/106 104/104/104 104/104/104 
f 104/104/104 107/107/107 104/104/104 
f 104/104/104 107/107/107 105/105/105 
f 107/107/107 108/108/108 105/105/105 
f 105/105/105 108/108/108 106/106/106 
f 108/108/108 109/109/109 106/106/106 
f 106/106/106 109/109/109 109/109/109 
f 109/109/109 107/107/107 109/109/109 
f 109/109/109 107/107/107 107/107/107 
f 107/107/107 110/110/110 107/107/107 
f 107/107/107 110/110/110 108/108/108 
f 110/110/110 111/111/111 108/108/108 
f 108/108/108 111/111/111 109/109/109 
f 111/111/111 112/112/112 109/109/109 
f 109/109/109 112/112/112 112/112/112 
f 112/112/112 110/110/110 112/112/112 
f 112/112/112 110/110/110 110/110/110 
f 110/110/110 113/113/113 110/110/110 
f 110/110/110 113/113/113 111/111/111 
f 113/113/113 114/114/114 111/111/111 
f 111/111/111 114/114/114 112/112/112 
f 114/114/114 112/112/112 112/112/112 
f 112/112/112 112/112/112 115/115/115 
f 112/112/112 115/115/115 115/115/115 
f 115/115/115 115/115/115 115/115/115 
f 115/115/115 116/116/116 115/115/115 
f 115/115/115 116/116/116 117/117/117 
f 116/116/116 118/118/118 117/117/117 
f 117/117/117 118/118/118 119/119/119 
f 118/118/118 120/120/120 119/119/119 
f 119/119/119 120/120/120 120/120/120 
f 120/120/120 118/118/118 120/120/120 
f 120/120/120 118/118/118 121/121/121 
f 118/118/118 116/116/116 121/121/121 
f 121/121/121 116/116/116 122/122/122 
f 116/116/116 122/122/122 122/122/122 
f 122/122/122 122/122/122 122/122/122 
f 122/122/122 123/123/123 122/122/122 
f 122/122/122 123/123/123 121/121/121 
f 123/123/123 124/124/124 121/121/121 
f 121/121/121 124/124/124 120/120/120 
f 124/124/124 120/120/120 120/120/120 
f 120/120/120 120/120/120 124/124/124 
f 120/120/120 124/124/124 124/124/124 
f 124/124/124 124/124/124 124/124/124 
f 124/124/124 123/123/123 124/124/124 
f 124/124/124 123/123/123 125/125/125 
f 123/123/123 126/126/126 125/125/125 
f 125/125/125 126/126/126 127/127/127 
f 126/126/126 128/128/128 127/127/127 
f 127/127/127 128/128/128 129/129/129 
f 128/128/128 130/130/130 129/129/129 
f 129/129/129 130/130/130 131/131/131 
f 130/130/130 132/132/132 131/131/131 
f 131/131/131 132/132/132 133/133/133 
f 132/132/132 134/134/134 133/133/133 
f 133/133/133 134/134/134 135/135/135 
f 134/134/134 135/135/135 135/135/135 
f 135/135/135 135/135/135 128/128/128 
f 135/135/135 128/128/128 128/128/128 
f 128/128/128 128/128/128 128/128/128 
f 128/128/128 136/136/136 128/128/128 
f 128/128/128 136/136/136 130/130/130 
f 136/136/136 137/137/137 130/130/130 
f 130/130/130 137/137/137 132/132/132 
f 137/137/137 138/138/138 132/132/132 
f 132/132/132 138/138/138 134/134/134 
f 138/138/138 139/139/139 134/134/134 
f 134/134/134 139/139/139 139/139/139 
f 139/139/139 136/136/136 139/139/139 
f 139/139/139 136/136/136 136/136/136 
f 136/136/136 128/128/128 136/136/136 
f 136/136/136 128/128/128 140/140/140 
f 128/128/128 141/141/141 140/140/140 
f 140/140/140 141/141/141 142/142/142 
f 141/141/141 126/126/126 142/142/142 
f 142/142/142 126/126/126 143/143/143 
f 126/126/126 144/144/144 143/143/143 
f 143/143/143 144/144/144 144/144/144 
f 144/144/144 126/126/126 144/144/144 
f 144/144/144 126/126/126 126/126/126 
f 126/126/126 123/123/123 126/126/126 
f 126/126/126 123/123/123 144/144/144 
f 123/123/123 122/122/122 144/144/144 
f 144/144/144 122/122/122 122/122/122 
f 122/122/122 145/145/145 122/122/122 
f 122/122/122 145/145/145 145/145/145 
f 145/145/145 146/146/146 145/145/145 
f 145/145/145 146/146/146 147/147/147 
f 146/146/146 148/148/148 147/147/147 
f 147/147/147 148/148/148 149/149/149 
f 148/148/148 150/150/150 149/149/149 
f 149/149/149 150/150/150 150/150/150 
f 150/150/150 148/148/148 150/150/150 
f 150/150/150 148/148/148 151/151/151 
f 148/148/148 146/146/146 151/151/151 
f 151/151/151 146/146/146 152/152/152 
f 146/146/146 152/152/152 152/152/152 
f 152/152/152 152/152/152 152/152/152 
f 152/152/152 153/153/153 152/152/152 
f 152/152/152 153/153/153 151/151/151 
f 153/153/153 154/154/154 151/151/151 
f 151/151/151 154/154/154 150/150/150 
f 154/154/154 150/150/150 150/150/150 
f 150/150/150 150/150/150 154/154/154 
f 150/150/150 154/154/154 154/154/154 
f 154/154/154 154/154/154 154/154/154 
f 154/154/154 153/153/153 154/154/154 
f 154/154/154 153/153/153 155/155/155 
f 153/153/153 156/156/156 155/155/155 
f 155/155/155 156/156/156 157/157/157 
f 156/156/156 158/158/158 157/157/157 
f 157/157/157 158/158/158 159/159/159 
f 158/158/158 160/160/160 159/159/159 
f 159/159/159 160/160/160 161/161/161 
f 160/160/160 162/162/162 161/161/161 
f 161/161/161 162/162/162 163/163/163 
f 162/162/162 164/164/164 163/163/163 
f 163/163/163 164/164/164 165/165/165 
f 164/164/164 166/166/166 165/165/165 
f 165/165/165 166/166/166 167/167/167 
f 166/166/166 168/168/168 167/167/167 
f 167/167/167 168/168/168 169/169/169 
f 168/168/168 169/169/169 169/169/169 
f 169/169/169 169/169/169 153/153/153 
f 169/169/169 153/153/153 153/153/153 
f 153/153/153 153/153/153 153/153/153 
f 153/153/153 170/170/170 153/153/153 
f 153/153/153 170/170/170 156/156/156 
f 170/170/170 171/171/171 156/156/156 
f 156/156/156 171/171/171 162/162/162 
f 171/171/171 172/172/172 162/162/162 
f 162/162/162 172/172/172 164/164/164 
f 172/172/172 173/173/173 164/164/164 
f 164/164/164 173/173/173 166/166/166 
f 173/173/173 174/174/174 166/166/166 
f 166/166/166 174/174/174 168/168/168 
f 174/174/174 175/175/175 168/168/168 
f 168/168/168 175/175/175 175/175/175 
f 175/175/175 162/162/162 175/175/175 
f 175/175/175 162/162/162 162/162/162 
f 162/162/162 160/160/160 162/162/162 
f 162/162/162 160/160/160 156/156/156 
f 160/160/160 158/158/158 156/156/156 
f 156/156/156 158/158/158 158/158/158 
f 158/158/158 176/176/176 158/158/158 
f 158/158/158 176/176/176 176/176/176 
f 176/176/176 177/177/177 176/176/176 
f 176/176/176 177/177/177 178/178/178 
f 177/177/177 179/179/179 178/178/178 
f 178/178/178 179/179/179 180/180/180 
f 179/179/179 180/180/180 180/180/180 
f 180/180/180 180/180/180 180/180/180 
f 180/180/180 181/181/181 180/180/180 
f 180/180/180 181/181/181 178/178/178 
f 181/181/181 182/182/182 178/178/178 
f 178/178/178 182/182/182 183/183/183 
f 182/182/182 183/183/183 183/183/183 
f 183/183/183 183/183/183 182/182/182 
f 183/183/183 182/182/182 182/182/182 
f 182/182/182 182/182/182 182/182/182 
f 182/182/182 181/181/181 182/182/182 
f 182/182/182 181/181/181 184/184/184 
f 181/181/181 185/185/185 184/184/184 
f 184/184/184 185/185/185 186/186/186 
f 185/185/185 186/186/186 186/186/186 
f 186/186/186 186/186/186 184/184/184 
f 186/186/186 184/184/184 184/184/184 
f 184/184/184 184/184/184 184/184/184 
f 184/184/184 186/186/186 184/184/184 
f 184/184/184 186/186/186 187/187/187 
f 186/186/186 188/188/188 187/187/187 
f 187/187/187 188/188/188 188/188/188 
f 188/188/188 186/186/186 188/188/188 
f 188/188/188 186/186/186 186/186/186 
f 186/186/186 189/189/189 186/186/186 
f 186/186/186 189/189/189 188/188/188 
f 189/189/189 190/190/190 188/188/188 
f 188/188/188 190/190/190 190/190/190 
f 190/190/190 189/189/189 190/190/190 
f 190/190/190 189/189/189 189/189/189 
f 189/189/189 191/191/191 189/189/189 
f 189/189/189 191/191/191 190/190/190 
f 191/191/191 192/192/192 190/190/190 
f 190/190/190 192/192/192 192/192/192 
f 192/192/192 191/191/191 192/192/192 
f 192/192/192 191/191/191 191/191/191 
f 191/191/191 193/193/193 191/191/191 
f 191/191/191 193/193/193 192/192/192 
f 193/193/193 194/194/194 192/192/192 
f 192/192/192 194/194/194 195/195/195 
f 194/194/194 196/196/196 195/195/195 
f 195/195/195 196/196/196 196/196/196 
f 196/196/196 193/193/193 196/196/196 
f 196/196/196 193/193/193 193/193/193 
f 193/193/193 197/197/197 193/193/193 
f 193/193/193 197/197/197 194/194/194 
f 197/197/197 198/198/198 194/194/194 
f 194/194/194 198/198/198 199/199/199 
f 198/198/198 200/200/200 199/199/199 
f 199/199/199 200/200/200 200/200/200 
f 200/200/200 199/199/199 200/200/200 
f 200/200/200 199/199/199 199/199/199 
f 199/199/199 201/201/201 199/199/199 
f 199/199/199 201/201/201 194/194/194 
f 201/201/201 202/202/202 194/194/194 
f 194/194/194 202/202/202 196/196/196 
f 202/202/202 196/196/196 196/196/196 
f 196/196/196 196/196/196 177/177/177 
f 196/196/196 177/177/177 177/177/177 
f 177/177/177 177/177/177 177/177/177 
f 177/177/177 203/203/203 177/177/177 
f 177/177/177 203/203/203 179/179/179 
f 203/203/203 204/204/204 179/179/179 
f 179/179/179 204/204/204 204/204/204 
f 204/204/204 203/203/203 204/204/204 
f 204/204/204 203/203/203 205/205/205 
f 203/203/203 206/206/206 205/205/205 
f 205/205/205 206/206/206 207/207/207 
f 206/206/206 207/207/207 207/207/207 
f 207/207/207 207/207/207 205/205/205 
f 207/207/207 205/205/205 205/205/205 
f 205/205/205 205/205/205 205/205/205 
f 205/205/205 207/207/207 205/205/205 
f 205/205/205 207/207/207 208/208/208 
f 207/207/207 209/209/209 208/208/208 
f 208/208/208 209/209/209 210/210/210 
f 209/209/209 198/198/198 210/210/210 
f 210/210/210 198/198/198 198/198/198 
f 198/198/198 211/211/211 198/198/198 
f 198/198/198 211/211/211 211/211/211 
f 211/211/211 212/212/212 211/211/211 
f 211/211/211 212/212/212 213/213/213 
f 212/212/212 214/214/214 213/213/213 
f 213/213/213 214/214/214 215/215/215 
f 214/214/214 216/216/216 215/215/215 
f 215/215/215 216/216/216 217/217/217 
f 216/216/216 218/218/218 217/217/217 
f 217/217/217 218/218/218 219/219/219 
f 218/218/218 220/220/220 219/219/219 
f 219/219/219 220/220/220 221/221/221 
f 220/220/220 222/222/222 221/221/221 
f 221/221/221 222/222/222 222/222/222 
f 222/222/222 220/220/220 222/222/222 
f 222/222/222 220/220/220 220/220/220 
f 220/220/220 218/218/218 220/220/220 
f 220/220/220 218/218/218 223/223/223 
f 218/218/218 216/216/216 223/223/223 
f 223/223/223 216/216/216 224/224/224 
f 216/216/216 214/214/214 224/224/224 
f 224/224/224 214/214/214 225/225/225 
f 214/214/214 226/226/226 225/225/225 
f 225/225/225 226/226/226 226/226/226 
f 226/226/226 223/223/223 226/226/226 
f 226/226/226 223/223/223 223/223/223 
f 223/223/223 227/227/227 223/223/223 
f 223/223/223 227/227/227 220/220/220 
f 227/227/227 222/222/222 220/220/220 
f 220/220/220 222/222/222 222/222/222 
f 222/222/222 142/142/142 222/222/222 
f 222/222/222 142/142/142 142/142/142 
f 142/142/142 228/228/228 142/142/142 
f 142/142/142 228/228/228 140/140/140 
f 228/228/228 136/136/136 140/140/140 
f 140/140/140 136/136/136 136/136/136 
f 136/136/136 229/229/229 136/136/136 
f 136/136/136 229/229/229 229/229/229 
f 229/229/229 230/230/230 229/229/229 
f 229/229/229 230/230/230 231/231/231 
f 230/230/230 232/232/232 231/231/231 
f 231/231/231 232/232/232 233/233/233 
f 232/232/232 234/234/234 233/233/233 
f 233/233/233 234/234/234 234/234/234 
f 234/234/234 230/230/230 234/234/234 
f 234/234/234 230/230/230 230/230/230 
f 230/230/230 235/235/235 230/230/230 
f 230/230/230 235/235/235 232/232/232 
f 235/235/235 236/236/236 232/232/232 
f 232/232/232 236/236/236 234/234/234 
f 236/236/236 237/237/237 234/234/234 
f 234/234/234 237/237/237 237/237/237 
f 237/237/237 235/235/235 237/237/237 
f 237/237/237 235/235/235 235/235/235 
f 235/235/235 238/238/238 235/235/235 
f 235/235/235 238/238/238 236/236/236 
f 238/238/238 239/239/239 236/236/236 
f 236/236/236 239/239/239 237/237/237 
f 239/239/239 240/240/240 237/237/237 
f 237/237/237 240/240/240 240/240/240 
f 240/240/240 238/238/238 240/240/240 
f 240/240/240 238/238/238 238/238/238 
f 238/238/238 241/241/241 238/238/238 
f 238/238/238 241/241/241 239/239/239 
f 241/241/241 242/242/242 239/239/239 
f 239/239/239 242/242/242 240/240/240 
f 242/242/242 240/240/240 240/240/240 
f 240/240/240 240/240/240 238/238/238 
f 240/240/240 238/238/238 238/238/238 
f 238/238/238 238/238/238 238/238/238 
f 238/238/238 243/243/243 238/238/238 
f 238/238/238 243/243/243 241/241/241 
f 243/243/243 244/244/244 241/241/241 
f 241/241/241 244/244/244 245/245/245 
f 244/244/244 246/246/246 245/245/245 
f 245/245/245 246/246/246 247/247/247 
f 246/246/246 248/248/248 247/247/247 
f 247/247/247 248/248/248 249/249/249 
f 248/248/248 231/231/231 249/249/249 
f 249/249/249 231/231/231 233/233/233 
f 231/231/231 233/233/233 233/233/233 
f 233/233/233 233/233/233 233/233/233 
f 233/233/233 250/250/250 233/233/233 
f 233/233/233 250/250/250 249/249/249 
f 250/250/250 251/251/251 249/249/249 
f 249/249/249 251/251/251 247/247/247 
f 251/251/251 252/252/252 247/247/247 
f 247/247/247 252/252/252 245/245/245 
f 252/252/252 242/242/242 245/245/245 
f 245/245/245 242/242/242 241/241/241 
f 15/15/15 10/10/10 253/253/253 
f 248/248/248 229/229/229 231/231/231 
f 3/3/3 5/5/5 254/254/254 
f 31/31/31 255/255/255 33/33/33 
f 80/80/80 256/256/256 82/82/82 
f 87/87/87 257/257/257 85/85/85 
f 128/128/128 126/126/126 141/141/141 
f 226/226/226 214/214/214 212/212/212 
f 227/227/227 258/258/258 222/222/222 
f 198/198/198 209/209/209 200/200/200 
f 153/153/153 152/152/152 170/170/170 

