# Blender 4.5.10 LTS
# www.blender.org
mtllib combinezyns2.mtl
o zyn_can_combine
v 0.392550 -0.450737 1.973476
v 0.388989 -0.535127 1.955576
v 0.574669 -0.535127 1.899251
v 0.195889 -0.535127 1.974595
v -1.600454 -0.550700 -1.069388
v -1.361076 -0.550700 -1.361072
v -1.309455 -0.546499 -1.309454
v -1.099808 -0.532538 -1.645976
v -0.757562 -0.532538 -1.828911
v -0.736609 -0.550700 -1.778328
v -1.069391 -0.550700 -1.600453
v -1.399789 -0.532538 -1.399786
v -1.645977 -0.532538 -1.099804
v -1.828912 -0.532538 -0.757557
v -1.778329 -0.550700 -0.736606
v -1.941562 -0.532538 -0.386198
v -1.887864 -0.550700 -0.375517
v -1.979599 -0.532538 0.000003
v -1.924849 -0.550700 0.000003
v -1.816266 -0.546499 -0.361275
v -1.851848 -0.546499 0.000003
v -1.710885 -0.546499 -0.708669
v -1.539756 -0.546499 -1.028830
v -0.708673 -0.546499 -1.710884
v -0.000002 -0.546499 -1.851848
v -1.028834 -0.546499 -1.539755
v -0.361279 -0.546499 -1.816265
v -0.375521 -0.550700 -1.887863
v -0.000002 -0.550700 -1.924849
v 0.361277 -0.546499 -1.816266
v 0.375518 -0.550700 -1.887864
v 0.708670 -0.546499 -1.710885
v 0.736607 -0.550700 -1.778329
v 1.028831 -0.546499 -1.539756
v 1.069389 -0.550700 -1.600453
v 1.309455 -0.546499 -1.309455
v 1.361073 -0.550700 -1.361074
v 1.851848 -0.546499 -0.000001
v 1.710885 -0.546499 -0.708672
v 1.816266 -0.546499 -0.361278
v 1.539756 -0.546499 -1.028832
v 1.600453 -0.550700 -1.069389
v 1.778329 -0.550700 -0.736609
v 1.887864 -0.550700 -0.375520
v 1.924849 -0.550700 -0.000001
v 1.816266 -0.546499 0.361277
v 1.887864 -0.550700 0.375518
v 1.710885 -0.546499 0.708672
v 1.778329 -0.550700 0.736607
v 1.828912 -0.532538 -0.757561
v 1.941562 -0.532538 -0.386201
v 1.645977 -0.532538 -1.099806
v 1.399788 -0.532538 -1.399788
v 1.099805 -0.532538 -1.645977
v 0.757560 -0.532538 -1.828912
v 0.386199 -0.532538 -1.941562
v -0.000002 -0.532538 -1.979599
v -0.386202 -0.532538 -1.941562
v 0.000001 -0.546499 1.851848
v 1.309455 -0.546499 1.309455
v 1.539756 -0.546499 1.028831
v 1.600453 -0.550700 1.069389
v 1.361074 -0.550700 1.361073
v 1.028832 -0.546499 1.539756
v 1.069389 -0.550700 1.600453
v 0.708673 -0.546499 1.710885
v 0.736609 -0.550700 1.778329
v 0.361279 -0.546499 1.816266
v 0.375520 -0.550700 1.887864
v 0.000001 -0.550700 1.924849
v 0.386202 -0.532538 1.941562
v 0.000001 -0.532538 1.979599
v 0.757561 -0.532538 1.828911
v 1.099808 -0.532538 1.645977
v 1.399788 -0.532538 1.399788
v 1.645977 -0.532538 1.099805
v 1.828911 -0.532538 0.757559
v 1.941562 -0.532538 0.386200
v 1.979599 -0.532538 -0.000001
v -1.941562 -0.532538 0.386204
v -1.887863 -0.550700 0.375522
v -1.816265 -0.546499 0.361281
v -1.710884 -0.546499 0.708675
v -1.778328 -0.550700 0.736611
v -1.600452 -0.550700 1.069391
v -1.645976 -0.532538 1.099810
v -1.399786 -0.532538 1.399791
v -1.361071 -0.550700 1.361076
v -1.099803 -0.532538 1.645978
v -1.069386 -0.550700 1.600455
v -0.757556 -0.532538 1.828912
v -0.736605 -0.550700 1.778330
v -0.386197 -0.532538 1.941563
v -0.375517 -0.550700 1.887864
v -1.828910 -0.532538 0.757563
v -0.361274 -0.546499 1.816266
v -0.708668 -0.546499 1.710886
v -1.028830 -0.546499 1.539757
v -1.309453 -0.546499 1.309456
v -1.539755 -0.546499 1.028834
v -1.959461 0.241174 0.389764
v -1.997850 0.241174 0.000003
v -1.996923 0.233909 0.000003
v -1.958552 0.233909 0.389583
v -1.996923 0.226645 0.000003
v -1.845772 0.241174 0.764547
v -1.958552 0.226645 0.389583
v -1.997850 0.219380 0.000003
v -1.844915 0.233909 0.764192
v -1.661150 0.241174 1.109949
v -1.660379 0.233909 1.109434
v -1.412691 0.241174 1.412696
v -1.412035 0.233909 1.412040
v -1.109944 0.241174 1.661153
v -1.109429 0.233909 1.660382
v -0.764540 0.241174 1.845773
v -0.764186 0.233909 1.844917
v -0.389757 0.241174 1.959462
v -0.389576 0.233909 1.958553
v 0.000001 0.241174 1.997850
v 0.000001 0.233909 1.996923
v 0.389762 0.241174 1.959461
v 0.389581 0.233909 1.958552
v -1.959461 0.219380 0.389764
v -1.844915 0.226645 0.764192
v -1.660379 0.226645 1.109434
v -1.412035 0.226645 1.412040
v -1.109429 0.226645 1.660382
v -0.764186 0.226645 1.844917
v -0.389576 0.226645 1.958553
v 0.000001 0.226645 1.996923
v 0.389581 0.226645 1.958552
v 0.764190 0.233909 1.844916
v -1.661150 0.219380 1.109949
v -1.412691 0.219380 1.412696
v -1.845772 0.219380 0.764547
v 1.412694 0.219380 1.412693
v 1.661151 0.219380 1.109946
v 1.660381 0.226645 1.109431
v 1.412038 0.226645 1.412037
v 1.109946 0.219380 1.661151
v 1.109432 0.226645 1.660380
v 0.764545 0.219380 1.845772
v 0.764190 0.226645 1.844916
v 0.389762 0.219380 1.959461
v 0.000001 0.219380 1.997850
v -0.389757 0.219380 1.959462
v -0.764540 0.219380 1.845773
v -1.109944 0.219380 1.661153
v 1.109432 0.233909 1.660380
v 1.412038 0.233909 1.412037
v 1.660381 0.233909 1.109431
v 1.844916 0.233909 0.764188
v 1.844916 0.226645 0.764188
v 1.958552 0.233909 0.389579
v 1.958552 0.226645 0.389579
v 1.996923 0.233909 -0.000001
v 1.996923 0.226645 -0.000001
v 1.958552 0.233909 -0.389581
v 1.958552 0.226645 -0.389581
v 1.844916 0.233909 -0.764190
v 1.844916 0.226645 -0.764190
v 1.660381 0.233909 -1.109432
v 0.764545 0.241174 1.845772
v 1.109946 0.241174 1.661151
v 1.412694 0.241174 1.412693
v 1.661151 0.241174 1.109946
v 1.845772 0.241174 0.764543
v 1.959461 0.241174 0.389760
v 1.997850 0.241174 -0.000001
v 1.959462 0.241174 -0.389762
v 1.845773 0.241174 -0.764545
v 1.661151 0.241174 -1.109946
v 1.412693 0.241174 -1.412694
v 1.412037 0.233909 -1.412038
v 1.109946 0.241174 -1.661151
v 1.109431 0.233909 -1.660381
v 0.764543 0.241174 -1.845773
v 0.764188 0.233909 -1.844916
v 0.389760 0.241174 -1.959462
v 0.389579 0.233909 -1.958552
v -0.000002 0.241174 -1.997850
v -0.000002 0.233909 -1.996923
v -0.389763 0.241174 -1.959461
v -0.389582 0.233909 -1.958552
v -0.764546 0.241174 -1.845772
v -0.764191 0.233909 -1.844916
v -1.109947 0.241174 -1.661151
v -1.109432 0.233909 -1.660380
v 1.660381 0.226645 -1.109432
v 1.412037 0.226645 -1.412038
v 1.109431 0.226645 -1.660381
v 0.764188 0.226645 -1.844916
v 0.389579 0.226645 -1.958552
v -0.000002 0.226645 -1.996923
v -0.389582 0.226645 -1.958552
v -0.764191 0.226645 -1.844916
v -1.109432 0.226645 -1.660380
v -1.412040 0.233909 -1.412037
v -1.845773 0.219380 -0.764541
v -1.959462 0.219380 -0.389758
v -1.958553 0.226645 -0.389578
v -1.844917 0.226645 -0.764187
v -1.661152 0.219380 -1.109945
v -1.660381 0.226645 -1.109429
v -1.412694 0.219380 -1.412692
v -1.412040 0.226645 -1.412037
v -1.109947 0.219380 -1.661151
v -0.764546 0.219380 -1.845772
v -0.389763 0.219380 -1.959461
v -0.000002 0.219380 -1.997850
v 0.389760 0.219380 -1.959462
v 0.764543 0.219380 -1.845773
v -1.660381 0.233909 -1.109429
v -1.844917 0.233909 -0.764187
v -1.958553 0.233909 -0.389578
v -1.412694 0.241174 -1.412692
v -1.661152 0.241174 -1.109945
v -1.845773 0.241174 -0.764541
v -1.959462 0.241174 -0.389758
v 0.389760 0.466387 -1.959462
v 0.764543 0.353781 -1.845773
v 1.109946 0.353781 -1.661151
v 1.412693 0.353781 -1.412694
v 1.412693 0.466387 -1.412694
v 1.661151 0.466387 -1.109946
v 1.845773 0.466387 -0.764545
v 1.959462 0.466387 -0.389762
v 1.997850 0.466387 -0.000001
v 1.959461 0.466387 0.389760
v 0.764543 0.466387 -1.845773
v 1.845772 0.466387 0.764543
v 1.661151 0.466387 1.109946
v 1.412694 0.466387 1.412693
v 1.109946 0.466387 1.661151
v 0.764545 0.466387 1.845772
v 0.389762 0.466387 1.959461
v 0.000001 0.466387 1.997850
v -0.389757 0.466387 1.959462
v -0.764540 0.353781 1.845773
v -0.764540 0.466387 1.845773
v -1.109944 0.353781 1.661153
v -1.412691 0.353781 1.412696
v -1.412691 0.466387 1.412696
v -1.661150 0.466387 1.109949
v -1.845772 0.466387 0.764547
v -1.959461 0.466387 0.389764
v -1.997850 0.466387 0.000003
v -1.959462 0.466387 -0.389758
v -1.845773 0.466387 -0.764541
v -1.661152 0.466387 -1.109945
v -1.412694 0.466387 -1.412692
v -1.109947 0.466387 -1.661151
v -0.764546 0.466387 -1.845772
v -0.389763 0.466387 -1.959461
v -0.000002 0.466387 -1.997850
v -1.415902 0.358181 1.417501
v -1.113155 0.358181 1.665959
v -1.113155 0.470788 1.665959
v -1.415902 0.470788 1.417501
v -0.767752 0.358181 1.850580
v -0.767752 0.470788 1.850580
v -0.766006 0.502571 1.846364
v -1.110620 0.502571 1.662165
v -1.412675 0.502571 1.414276
v -0.760768 0.525274 1.833719
v -1.120837 0.543437 1.557976
v -1.172353 0.543437 1.429413
v -1.312664 0.543437 1.314262
v -1.364282 0.543437 1.365883
v -1.090341 0.538896 1.631816
v -1.386866 0.538896 1.388466
v -1.253007 0.525274 1.527690
v -1.402997 0.525274 1.404596
v -1.103015 0.525274 1.650784
v -0.931891 0.525274 1.742252
v -0.752038 0.538896 1.812642
v -0.739817 0.543437 1.783136
v -1.010452 0.543437 1.631733
v -0.711880 0.543437 1.715692
v -0.871961 0.543437 1.630128
v -0.386197 0.520873 1.941563
v -0.757556 0.520873 1.828912
v -0.762794 0.498171 1.841558
v 1.099808 0.520873 1.645977
v 1.399788 0.520873 1.399788
v 1.383657 0.534495 1.383657
v 1.087134 0.534495 1.627009
v 0.757561 0.520873 1.828911
v 0.748831 0.534495 1.807835
v 0.386202 0.520873 1.941562
v 0.381751 0.534495 1.919188
v 0.000001 0.520873 1.979599
v 0.000001 0.534495 1.956787
v -0.381746 0.534495 1.919188
v -0.748827 0.534495 1.807836
v 1.627009 0.534495 1.087131
v 1.807835 0.534495 0.748829
v 1.778329 0.539036 0.736607
v 1.600453 0.539036 1.069389
v 1.361074 0.539036 1.361073
v 1.069389 0.539036 1.600453
v 0.736609 0.539036 1.778329
v 0.375520 0.539036 1.887864
v 0.000001 0.539036 1.924849
v -0.375515 0.539036 1.887864
v -0.736605 0.539036 1.778330
v 1.479058 0.539036 -0.988275
v 1.643441 0.539036 -0.680736
v 1.778329 0.539036 -0.736609
v 1.887864 0.539036 -0.375520
v 1.744668 0.539036 -0.347037
v 1.924849 0.539036 -0.000001
v 1.778848 0.539036 -0.000001
v 1.887864 0.539036 0.375518
v 1.744668 0.539036 0.347035
v 1.643441 0.539036 0.680735
v 1.479058 0.539036 0.988275
v 1.257835 0.539036 1.257835
v 0.988275 0.539036 1.479058
v 0.680737 0.539036 1.643441
v -0.680732 0.539036 1.643442
v 0.000001 0.539036 1.778848
v 0.347037 0.539036 1.744668
v -0.347033 0.539036 1.744668
v -0.708668 0.539036 1.710886
v -1.028830 0.539036 1.539757
v -0.988272 0.539036 1.479059
v -1.309453 0.539036 1.309456
v -1.257834 0.539036 1.257837
v -1.600452 0.539036 1.069391
v -1.479057 0.539036 0.988277
v -1.778328 0.539036 0.736611
v -1.643440 0.539036 0.680738
v -1.887863 0.539036 0.375522
v -1.744667 0.539036 0.347039
v -1.924849 0.539036 0.000003
v -1.778848 0.539036 0.000003
v -1.643442 0.539036 -0.680733
v 0.680734 0.539036 -1.643441
v -1.744668 0.539036 -0.347034
v 1.257835 0.539036 -1.257835
v 0.988275 0.539036 -1.479058
v -0.680737 0.539036 -1.643441
v -1.257836 0.539036 -1.257835
v -1.479059 0.539036 -0.988273
v -1.361076 0.539036 -1.361072
v -1.600454 0.539036 -1.069388
v -1.778329 0.539036 -0.736606
v -1.887864 0.539036 -0.375517
v -1.919188 0.534495 -0.381747
v -1.956787 0.534495 0.000003
v -1.807836 0.534495 -0.748827
v -0.988276 0.539036 -1.479057
v -0.000002 0.539036 -1.778848
v -0.347038 0.539036 -1.744668
v -0.000002 0.539036 -1.924849
v -0.375521 0.539036 -1.887863
v -0.736609 0.539036 -1.778328
v -1.069391 0.539036 -1.600453
v -1.627010 0.534495 -1.087130
v -1.383659 0.534495 -1.383655
v -1.087134 0.534495 -1.627008
v -0.748832 0.534495 -1.807835
v -0.381752 0.534495 -1.919187
v -0.000002 0.534495 -1.956787
v 0.381749 0.534495 -1.919188
v 0.375518 0.539036 -1.887864
v 0.347035 0.539036 -1.744668
v -0.000002 0.520873 -1.979599
v -0.386202 0.520873 -1.941562
v 0.386199 0.520873 -1.941562
v 0.757560 0.520873 -1.828912
v 0.748829 0.534495 -1.807835
v 0.736607 0.539036 -1.778329
v 0.708670 0.539036 -1.710885
v 1.028831 0.539036 -1.539756
v 1.309455 0.539036 -1.309455
v 1.600453 0.539036 -1.069389
v 1.361073 0.539036 -1.361074
v -1.954987 0.498171 -0.388868
v -1.841558 0.498171 -0.762795
v -1.941562 0.520873 -0.386198
v -1.828912 0.520873 -0.757557
v -1.657359 0.498171 -1.107410
v -1.645977 0.520873 -1.099804
v -1.409469 0.498171 -1.409465
v -1.399789 0.520873 -1.399786
v -1.107412 0.498171 -1.657357
v -1.099808 0.520873 -1.645976
v -0.762800 0.498171 -1.841557
v -0.757562 0.520873 -1.828911
v -0.388873 0.498171 -1.954986
v -0.000002 0.498171 -1.993287
v 0.388870 0.498171 -1.954987
v 0.762797 0.498171 -1.841557
v 1.120839 0.543437 -1.557975
v 1.172355 0.543437 -1.429411
v 1.312666 0.543437 -1.314261
v 1.364285 0.543437 -1.365880
v 1.090343 0.538896 -1.631815
v 1.386868 0.538896 -1.388463
v 1.103017 0.525274 -1.650783
v 0.931893 0.525274 -1.742250
v 1.253008 0.525274 -1.527689
v 1.402998 0.525274 -1.404594
v 1.412678 0.502571 -1.414274
v 1.110622 0.502571 -1.662164
v 0.760770 0.525274 -1.833718
v 0.752041 0.538896 -1.812641
v 0.739818 0.543437 -1.783135
v 1.010454 0.543437 -1.631732
v 0.711882 0.543437 -1.715691
v 0.871963 0.543437 -1.630126
v 1.415904 0.470788 -1.417499
v 0.766008 0.502571 -1.846363
v 1.113157 0.470788 -1.665957
v 1.415904 0.358181 -1.417499
v 1.113157 0.358181 -1.665957
v 0.767754 0.470788 -1.850579
v 0.767754 0.358181 -1.850579
v -1.409464 0.498171 1.409469
v -1.657356 0.498171 1.107414
v -1.399786 0.520873 1.399791
v -1.645976 0.520873 1.099810
v -1.383654 0.534495 1.383659
v -1.841556 0.498171 0.762801
v -1.361071 0.539036 1.361076
v -1.627008 0.534495 1.087135
v -1.828910 0.520873 0.757563
v -1.954986 0.498171 0.388874
v -1.993287 0.498171 0.000003
v -1.941562 0.520873 0.386204
v -1.807834 0.534495 0.748833
v -1.919187 0.534495 0.381753
v -1.979599 0.520873 0.000003
v 0.001403 -0.533592 1.986650
v 0.194504 -0.533592 1.967631
v 0.391164 -0.449202 1.966511
v 0.001403 -0.479105 2.004900
v 0.001403 -0.409362 2.004900
v 0.196284 -0.409362 1.985706
v 0.391164 -0.409362 1.966511
v 0.578556 -0.409362 1.909667
v 0.765947 -0.479105 1.852822
v 0.765947 -0.409362 1.852822
v 0.758963 -0.533592 1.835961
v 0.573284 -0.533592 1.892287
v -1.032105 0.550700 1.544659
v -1.172415 0.550700 1.429508
v -1.120901 0.550700 1.558072
v -1.069340 0.550700 1.600387
v -1.090405 0.546160 1.631912
v -1.010515 0.550700 1.631829
v -0.872025 0.550700 1.630223
v -0.195890 -0.535127 -1.974595
v -0.392551 -0.450737 -1.973476
v -0.391165 -0.449202 -1.966511
v -0.194504 -0.533592 -1.967631
v -0.574670 -0.535127 -1.899251
v -0.573284 -0.533592 -1.892286
v -1.032040 0.543437 1.544563
v 1.010517 0.550700 -1.631827
v 1.090407 0.546160 -1.631910
v 0.872026 0.550700 -1.630222
v 1.120903 0.550700 -1.558070
v 1.172417 0.550700 -1.429507
v 1.032107 0.550700 -1.544657
v 1.032042 0.543437 -1.544562
v -0.388990 -0.535127 -1.955576
v 1.383657 0.534495 -1.383657
v 1.399788 0.520873 -1.399788
v 1.409467 0.498171 -1.409467
v -0.765948 -0.479105 -1.852822
v -0.758964 -0.533592 -1.835961
v -0.764546 -0.478051 -1.845772
v -0.765948 -0.409362 -1.852822
v -0.764546 -0.408308 -1.845772
v -0.387605 -0.533592 -1.948612
v -0.001404 -0.533592 -1.986650
v 1.069342 0.550700 -1.600385
v -0.001404 -0.479105 -2.004900
v -0.001404 -0.409362 -2.004900
v -0.000002 -0.408308 -1.997850
v -0.000002 -0.478051 -1.997850
v 0.387604 -0.533592 1.948612
v 0.000001 -0.408308 1.997850
v 0.000001 -0.478051 1.997850
v 0.764545 -0.478051 1.845772
v 0.764545 -0.408308 1.845772
v -0.389757 -0.478051 1.959462
v -0.764540 -0.478051 1.845773
v -1.109944 -0.478051 1.661153
v -1.412691 -0.478051 1.412696
v -1.661150 -0.478051 1.109949
v -1.845772 -0.478051 0.764547
v -1.959461 -0.478051 0.389764
v -1.997850 -0.478051 0.000003
v -1.997850 -0.408308 0.000003
v -1.959461 -0.408308 0.389764
v -0.389757 -0.408308 1.959462
v -0.764540 -0.408308 1.845773
v -1.109944 -0.408308 1.661153
v -1.412691 -0.408308 1.412696
v -1.661150 -0.408308 1.109949
v -1.845772 -0.408308 0.764547
v -0.578557 -0.409362 -1.909667
v -0.391165 -0.409362 -1.966511
v -0.389763 -0.408308 -1.959461
v -0.196285 -0.409362 -1.985705
v -1.959462 -0.478051 -0.389758
v -1.845773 -0.478051 -0.764541
v -1.661152 -0.478051 -1.109945
v -1.412694 -0.478051 -1.412692
v -1.109947 -0.478051 -1.661151
v -1.109947 -0.408308 -1.661151
v -1.959462 -0.408308 -0.389758
v -1.845773 -0.408308 -0.764541
v -1.661152 -0.408308 -1.109945
v -1.412694 -0.408308 -1.412692
v 0.389762 -0.408308 1.959461
v 1.954987 0.498171 -0.388872
v 1.993287 0.498171 -0.000001
v 1.954987 0.498171 0.388870
v 1.841557 0.498171 0.762797
v 1.657358 0.498171 1.107411
v 1.409467 0.498171 1.409467
v 1.107412 0.498171 1.657357
v 0.762799 0.498171 1.841557
v 0.388872 0.498171 1.954987
v 0.000001 0.498171 1.993287
v -0.388867 0.498171 1.954987
v 1.645977 0.520873 1.099805
v 1.828911 0.520873 0.757559
v 1.941562 0.520873 0.386200
v 1.657358 0.498171 -1.107412
v 1.841557 0.498171 -0.762799
v 1.645977 0.520873 -1.099806
v 1.828912 0.520873 -0.757561
v 1.627009 0.534495 -1.087132
v 1.807835 0.534495 -0.748831
v 1.941562 0.520873 -0.386201
v 1.919188 0.534495 -0.381751
v 1.979599 0.520873 -0.000001
v 1.956787 0.534495 -0.000001
v 1.919188 0.534495 0.381749
v 1.959461 -0.478051 0.389760
v 1.959461 -0.408308 0.389760
v 1.845772 -0.408308 0.764543
v 1.845772 -0.478051 0.764543
v 1.661151 -0.408308 1.109946
v 1.661151 -0.478051 1.109946
v 1.412694 -0.408308 1.412693
v 1.412694 -0.478051 1.412693
v 1.109946 -0.408308 1.661151
v 1.109946 -0.478051 1.661151
v 1.997850 -0.478051 -0.000001
v 1.959462 -0.478051 -0.389762
v 0.389760 -0.408308 -1.959462
v 0.389760 -0.478051 -1.959462
v 0.764543 -0.408308 -1.845773
v 0.764543 -0.478051 -1.845773
v 1.109946 -0.408308 -1.661151
v 1.109946 -0.478051 -1.661151
v 1.412693 -0.408308 -1.412694
v 1.412693 -0.478051 -1.412694
v 1.661151 -0.408308 -1.109946
v 1.661151 -0.478051 -1.109946
v 1.845773 -0.408308 -0.764545
v 1.845773 -0.478051 -0.764545
v 1.959462 -0.408308 -0.389762
v 1.997850 -0.408308 -0.000001
v 1.109946 0.219380 -1.661151
v 1.412693 0.219380 -1.412694
v 1.661151 0.219380 -1.109946
v 1.845773 0.219380 -0.764545
v 1.959462 0.219380 -0.389762
v 1.997850 0.219380 -0.000001
v 1.959461 0.219380 0.389760
v 1.845772 0.219380 0.764543
vn 0.1907 -0.2114 0.9586
vn 0.2838 -0.2104 0.9355
vn 0.0958 -0.2104 0.9729
vn -0.1185 -0.9898 -0.0792
vn -0.1008 -0.9898 -0.1008
vn 0.0216 -0.9995 0.0216
vn -0.1749 -0.9491 -0.2618
vn -0.1205 -0.9491 -0.2909
vn -0.0545 -0.9898 -0.1317
vn -0.0792 -0.9898 -0.1185
vn -0.2226 -0.9491 -0.2226
vn -0.2618 -0.9491 -0.1749
vn -0.2909 -0.9491 -0.1205
vn -0.1317 -0.9898 -0.0545
vn -0.3088 -0.9491 -0.0614
vn -0.1398 -0.9898 -0.0278
vn -0.3149 -0.9491 -0.0000
vn -0.1425 -0.9898 -0.0000
vn 0.0299 -0.9995 0.0060
vn 0.0305 -0.9995 -0.0000
vn 0.0282 -0.9995 0.0117
vn 0.0254 -0.9995 0.0170
vn 0.0117 -0.9995 0.0282
vn -0.0000 -0.9995 0.0305
vn 0.0170 -0.9995 0.0254
vn 0.0060 -0.9995 0.0299
vn -0.0278 -0.9898 -0.1398
vn -0.0000 -0.9898 -0.1425
vn -0.0060 -0.9995 0.0299
vn 0.0278 -0.9898 -0.1398
vn -0.0117 -0.9995 0.0282
vn 0.0545 -0.9898 -0.1317
vn -0.0170 -0.9995 0.0254
vn 0.0792 -0.9898 -0.1185
vn -0.0216 -0.9995 0.0216
vn 0.1008 -0.9898 -0.1008
vn -0.0305 -0.9995 -0.0000
vn -0.0282 -0.9995 0.0117
vn -0.0299 -0.9995 0.0060
vn -0.0254 -0.9995 0.0170
vn 0.1185 -0.9898 -0.0792
vn 0.1317 -0.9898 -0.0545
vn 0.1398 -0.9898 -0.0278
vn 0.1425 -0.9898 -0.0000
vn -0.0299 -0.9995 -0.0060
vn 0.1398 -0.9898 0.0278
vn -0.0282 -0.9995 -0.0117
vn 0.1317 -0.9898 0.0545
vn 0.2909 -0.9491 -0.1205
vn 0.3088 -0.9491 -0.0614
vn 0.2618 -0.9491 -0.1749
vn 0.2226 -0.9491 -0.2226
vn 0.1749 -0.9491 -0.2618
vn 0.1205 -0.9491 -0.2909
vn 0.0614 -0.9491 -0.3088
vn -0.0000 -0.9491 -0.3149
vn -0.0614 -0.9491 -0.3088
vn -0.0000 -0.9995 -0.0305
vn -0.0216 -0.9995 -0.0216
vn -0.0254 -0.9995 -0.0170
vn 0.1185 -0.9898 0.0792
vn 0.1008 -0.9898 0.1008
vn -0.0170 -0.9995 -0.0254
vn 0.0792 -0.9898 0.1185
vn -0.0117 -0.9995 -0.0282
vn 0.0545 -0.9898 0.1317
vn -0.0060 -0.9995 -0.0299
vn 0.0278 -0.9898 0.1398
vn -0.0000 -0.9898 0.1425
vn 0.0614 -0.9491 0.3088
vn -0.0000 -0.9491 0.3149
vn 0.1205 -0.9491 0.2909
vn 0.1749 -0.9491 0.2618
vn 0.2226 -0.9491 0.2226
vn 0.2618 -0.9491 0.1749
vn 0.2909 -0.9491 0.1205
vn 0.3088 -0.9491 0.0614
vn 0.3149 -0.9491 -0.0000
vn -0.3088 -0.9491 0.0614
vn -0.1398 -0.9898 0.0278
vn 0.0299 -0.9995 -0.0060
vn 0.0282 -0.9995 -0.0117
vn -0.1317 -0.9898 0.0545
vn -0.1185 -0.9898 0.0792
vn -0.2618 -0.9491 0.1749
vn -0.2226 -0.9491 0.2226
vn -0.1008 -0.9898 0.1008
vn -0.1749 -0.9491 0.2618
vn -0.0792 -0.9898 0.1185
vn -0.1205 -0.9491 0.2909
vn -0.0545 -0.9898 0.1317
vn -0.0614 -0.9491 0.3088
vn -0.0278 -0.9898 0.1398
vn -0.2909 -0.9491 0.1205
vn 0.0060 -0.9995 -0.0299
vn 0.0117 -0.9995 -0.0282
vn 0.0170 -0.9995 -0.0254
vn 0.0216 -0.9995 -0.0216
vn 0.0254 -0.9995 -0.0170
vn -0.9729 -0.1266 0.1935
vn -0.9920 -0.1266 -0.0000
vn -0.9980 -0.0637 -0.0000
vn -0.9788 -0.0637 0.1947
vn -0.9980 0.0637 -0.0000
vn -0.9164 -0.1266 0.3796
vn -0.9788 0.0637 0.1947
vn -0.9920 0.1266 -0.0000
vn -0.9220 -0.0637 0.3819
vn -0.8248 -0.1266 0.5511
vn -0.8298 -0.0637 0.5544
vn -0.7014 -0.1266 0.7014
vn -0.7057 -0.0637 0.7057
vn -0.5511 -0.1266 0.8248
vn -0.5544 -0.0637 0.8298
vn -0.3796 -0.1265 0.9165
vn -0.3819 -0.0636 0.9220
vn -0.1935 -0.1266 0.9729
vn -0.1947 -0.0637 0.9788
vn -0.0000 -0.1266 0.9920
vn -0.0000 -0.0637 0.9980
vn 0.1935 -0.1266 0.9729
vn 0.1947 -0.0637 0.9788
vn -0.9729 0.1266 0.1935
vn -0.9220 0.0637 0.3819
vn -0.8298 0.0637 0.5544
vn -0.7057 0.0637 0.7057
vn -0.5544 0.0637 0.8298
vn -0.3819 0.0636 0.9220
vn -0.1947 0.0637 0.9788
vn -0.0000 0.0637 0.9980
vn 0.1947 0.0637 0.9788
vn 0.3819 -0.0637 0.9220
vn -0.8248 0.1266 0.5511
vn -0.7014 0.1266 0.7014
vn -0.9164 0.1266 0.3796
vn 0.7014 0.1265 0.7014
vn 0.8248 0.1265 0.5511
vn 0.8298 0.0636 0.5544
vn 0.7057 0.0636 0.7057
vn 0.5511 0.1266 0.8248
vn 0.5544 0.0637 0.8298
vn 0.3796 0.1265 0.9165
vn 0.3819 0.0637 0.9220
vn 0.1935 0.1266 0.9729
vn -0.0000 0.1266 0.9920
vn -0.1935 0.1266 0.9729
vn -0.3796 0.1265 0.9165
vn -0.5511 0.1266 0.8248
vn 0.5544 -0.0637 0.8298
vn 0.7057 -0.0636 0.7057
vn 0.8298 -0.0636 0.5544
vn 0.9220 -0.0636 0.3819
vn 0.9220 0.0636 0.3819
vn 0.9788 -0.0637 0.1947
vn 0.9788 0.0637 0.1947
vn 0.9980 -0.0637 -0.0000
vn 0.9980 0.0637 -0.0000
vn 0.9788 -0.0637 -0.1947
vn 0.9788 0.0637 -0.1947
vn 0.9220 -0.0637 -0.3819
vn 0.9220 0.0637 -0.3819
vn 0.8298 -0.0636 -0.5544
vn 0.3796 -0.1266 0.9164
vn 0.5511 -0.1266 0.8248
vn 0.7014 -0.1265 0.7014
vn 0.8248 -0.1265 0.5511
vn 0.9165 -0.1265 0.3796
vn 0.9729 -0.1265 0.1935
vn 0.9920 -0.1266 -0.0000
vn 0.9729 -0.1267 -0.1935
vn 0.9165 -0.1263 -0.3796
vn 0.8248 -0.1265 -0.5511
vn 0.7014 -0.1265 -0.7014
vn 0.7057 -0.0636 -0.7057
vn 0.5511 -0.1265 -0.8248
vn 0.5544 -0.0636 -0.8298
vn 0.3796 -0.1266 -0.9164
vn 0.3819 -0.0637 -0.9220
vn 0.1935 -0.1267 -0.9729
vn 0.1947 -0.0637 -0.9788
vn -0.0000 -0.1266 -0.9920
vn -0.0000 -0.0637 -0.9980
vn -0.1935 -0.1265 -0.9729
vn -0.1947 -0.0637 -0.9788
vn -0.3796 -0.1265 -0.9165
vn -0.3819 -0.0636 -0.9220
vn -0.5511 -0.1266 -0.8248
vn -0.5544 -0.0637 -0.8298
vn 0.8298 0.0636 -0.5544
vn 0.7057 0.0636 -0.7057
vn 0.5544 0.0636 -0.8298
vn 0.3819 0.0637 -0.9220
vn 0.1947 0.0637 -0.9788
vn -0.0000 0.0637 -0.9980
vn -0.1947 0.0636 -0.9788
vn -0.3819 0.0636 -0.9220
vn -0.5544 0.0637 -0.8298
vn -0.7057 -0.0636 -0.7057
vn -0.9165 0.1265 -0.3796
vn -0.9729 0.1265 -0.1935
vn -0.9788 0.0636 -0.1947
vn -0.9220 0.0636 -0.3819
vn -0.8248 0.1266 -0.5511
vn -0.8298 0.0637 -0.5544
vn -0.7014 0.1265 -0.7014
vn -0.7057 0.0636 -0.7057
vn -0.5511 0.1266 -0.8248
vn -0.3796 0.1265 -0.9165
vn -0.1935 0.1265 -0.9729
vn -0.0000 0.1266 -0.9920
vn 0.1935 0.1267 -0.9729
vn 0.3796 0.1266 -0.9164
vn -0.8298 -0.0637 -0.5544
vn -0.9220 -0.0636 -0.3819
vn -0.9788 -0.0636 -0.1947
vn -0.7014 -0.1265 -0.7014
vn -0.8248 -0.1266 -0.5511
vn -0.9165 -0.1265 -0.3796
vn -0.9729 -0.1265 -0.1935
vn 0.1951 -0.0000 -0.9808
vn 0.1946 0.0709 -0.9783
vn 0.3827 -0.0000 -0.9239
vn 0.3522 -0.0000 -0.9359
vn 0.5556 -0.0000 -0.8315
vn 0.7071 -0.0000 -0.7071
vn 0.7299 -0.0000 -0.6835
vn 0.8315 -0.0000 -0.5556
vn 0.7711 0.0706 -0.6328
vn 0.8294 0.0709 -0.5542
vn 0.9239 -0.0000 -0.3827
vn 0.9216 0.0709 -0.3817
vn 0.9808 -0.0000 -0.1951
vn 0.9783 0.0709 -0.1946
vn 1.0000 -0.0000 -0.0000
vn 0.9975 0.0709 -0.0000
vn 0.9808 -0.0000 0.1951
vn 0.9783 0.0709 0.1946
vn 0.9239 -0.0000 0.3827
vn 0.2896 0.0706 -0.9546
vn 0.9216 0.0709 0.3817
vn 0.8315 -0.0000 0.5556
vn 0.8294 0.0709 0.5542
vn 0.7071 -0.0000 0.7071
vn 0.7053 0.0709 0.7053
vn 0.5556 -0.0000 0.8315
vn 0.5542 0.0709 0.8294
vn 0.3827 -0.0000 0.9239
vn 0.3817 0.0709 0.9216
vn 0.1951 -0.0000 0.9808
vn 0.1946 0.0709 0.9783
vn -0.0000 -0.0000 1.0000
vn -0.0000 0.0709 0.9975
vn -0.1951 -0.0000 0.9808
vn -0.1946 0.0709 0.9783
vn -0.3827 -0.0000 0.9239
vn -0.3522 -0.0000 0.9359
vn -0.5556 -0.0000 0.8315
vn -0.2896 0.0706 0.9546
vn -0.7071 -0.0000 0.7071
vn -0.7299 -0.0000 0.6835
vn -0.8315 -0.0000 0.5556
vn -0.7711 0.0706 0.6328
vn -0.8294 0.0709 0.5542
vn -0.9239 -0.0000 0.3827
vn -0.9216 0.0709 0.3817
vn -0.9808 -0.0000 0.1951
vn -0.9783 0.0709 0.1946
vn -1.0000 -0.0000 -0.0000
vn -0.9975 0.0709 -0.0000
vn -0.9808 -0.0000 -0.1951
vn -0.9783 0.0709 -0.1946
vn -0.9239 -0.0000 -0.3827
vn -0.9216 0.0709 -0.3817
vn -0.8315 -0.0000 -0.5556
vn -0.8294 0.0709 -0.5542
vn -0.7071 -0.0000 -0.7071
vn -0.7053 0.0709 -0.7053
vn -0.5556 -0.0000 -0.8315
vn -0.5542 0.0709 -0.8294
vn -0.3827 -0.0000 -0.9239
vn -0.3817 0.0709 -0.9216
vn -0.1951 -0.0000 -0.9808
vn -0.1946 0.0709 -0.9783
vn -0.0000 -0.0000 -1.0000
vn -0.0000 0.0709 -0.9975
vn -0.6344 -0.0000 0.7730
vn -0.5542 0.0709 0.8294
vn -0.6328 0.0706 0.7711
vn -0.4714 -0.0000 0.8819
vn -0.4702 0.0706 0.8797
vn -0.4449 0.3306 0.8323
vn -0.5240 0.3320 0.7843
vn -0.5987 0.3306 0.7295
vn -0.3369 0.6994 0.6303
vn -0.0597 0.9953 0.0757
vn -0.0000 1.0000 -0.0000
vn -0.0477 0.9972 0.0583
vn -0.2382 0.9034 0.3564
vn -0.2192 0.9384 0.2672
vn -0.4486 0.7071 0.5466
vn -0.4534 0.6994 0.5525
vn -0.3961 0.7011 0.5929
vn -0.3333 0.7071 0.6236
vn -0.1629 0.9384 0.3048
vn -0.0356 0.9972 0.0664
vn -0.0471 0.9953 0.0841
vn -0.1391 0.7011 0.6993
vn -0.2075 0.6994 0.6840
vn -0.2740 0.3306 0.9031
vn 0.3962 0.7011 0.5929
vn 0.5042 0.7011 0.5042
vn 0.2433 0.9389 0.2433
vn 0.1912 0.9389 0.2861
vn 0.2729 0.7011 0.6588
vn 0.1317 0.9389 0.3179
vn 0.1391 0.7011 0.6993
vn 0.0671 0.9389 0.3375
vn -0.0000 0.7011 0.7130
vn -0.0000 0.9389 0.3441
vn -0.0671 0.9389 0.3375
vn -0.1003 0.9384 0.3307
vn 0.2861 0.9389 0.1912
vn 0.3179 0.9389 0.1317
vn 0.0692 0.9972 0.0287
vn 0.0623 0.9972 0.0416
vn 0.0530 0.9972 0.0530
vn 0.0416 0.9972 0.0623
vn 0.0287 0.9972 0.0692
vn 0.0146 0.9972 0.0735
vn -0.0000 0.9972 0.0749
vn -0.0146 0.9972 0.0735
vn -0.0219 0.9972 0.0721
vn 0.0692 0.9972 -0.0287
vn 0.0735 0.9972 -0.0146
vn 0.0749 0.9972 -0.0000
vn 0.0735 0.9972 0.0146
vn -0.0623 0.9972 0.0416
vn -0.0692 0.9972 0.0287
vn -0.0735 0.9972 0.0146
vn -0.0749 0.9972 -0.0000
vn -0.0530 0.9972 -0.0530
vn -0.0623 0.9972 -0.0416
vn -0.0692 0.9972 -0.0287
vn -0.0735 0.9972 -0.0146
vn -0.3375 0.9389 -0.0671
vn -0.3441 0.9389 -0.0000
vn -0.3179 0.9389 -0.1317
vn -0.0000 0.9972 -0.0749
vn -0.0146 0.9972 -0.0735
vn -0.0287 0.9972 -0.0692
vn -0.0416 0.9972 -0.0623
vn -0.2861 0.9389 -0.1912
vn -0.2433 0.9389 -0.2433
vn -0.1912 0.9389 -0.2861
vn -0.1317 0.9389 -0.3179
vn -0.0671 0.9389 -0.3375
vn -0.0000 0.9389 -0.3441
vn 0.0671 0.9389 -0.3375
vn 0.0146 0.9972 -0.0735
vn -0.0000 0.7011 -0.7130
vn -0.1391 0.7011 -0.6993
vn 0.1391 0.7011 -0.6993
vn 0.2075 0.6994 -0.6840
vn 0.1003 0.9384 -0.3307
vn 0.0219 0.9972 -0.0721
vn 0.0623 0.9972 -0.0416
vn 0.0582 0.9972 -0.0478
vn -0.9251 0.3321 -0.1840
vn -0.8715 0.3321 -0.3610
vn -0.6993 0.7011 -0.1391
vn -0.6588 0.7011 -0.2729
vn -0.7843 0.3321 -0.5240
vn -0.5929 0.7011 -0.3961
vn -0.6670 0.3321 -0.6670
vn -0.5042 0.7011 -0.5042
vn -0.5240 0.3321 -0.7843
vn -0.3961 0.7011 -0.5929
vn -0.3610 0.3321 -0.8715
vn -0.2729 0.7011 -0.6588
vn -0.1840 0.3320 -0.9251
vn -0.0000 0.3321 -0.9433
vn 0.1840 0.3321 -0.9251
vn 0.2740 0.3306 -0.9031
vn 0.0597 0.9953 -0.0757
vn 0.0477 0.9972 -0.0583
vn 0.2382 0.9034 -0.3564
vn 0.2192 0.9384 -0.2672
vn 0.3961 0.7011 -0.5929
vn 0.3333 0.7071 -0.6236
vn 0.4486 0.7071 -0.5466
vn 0.4534 0.6994 -0.5525
vn 0.5987 0.3306 -0.7295
vn 0.5240 0.3320 -0.7843
vn 0.3369 0.6994 -0.6303
vn 0.1629 0.9384 -0.3048
vn 0.0356 0.9972 -0.0664
vn 0.0471 0.9953 -0.0841
vn 0.6328 0.0706 -0.7711
vn 0.4449 0.3306 -0.8323
vn 0.5542 0.0709 -0.8294
vn 0.6344 -0.0000 -0.7730
vn 0.4702 0.0706 -0.8797
vn 0.4714 -0.0000 -0.8819
vn -0.7295 0.3306 0.5987
vn -0.7843 0.3320 0.5241
vn -0.5525 0.6994 0.4534
vn -0.5929 0.7011 0.3962
vn -0.2671 0.9384 0.2192
vn -0.8715 0.3321 0.3610
vn -0.0582 0.9972 0.0478
vn -0.2861 0.9389 0.1912
vn -0.6588 0.7011 0.2729
vn -0.9251 0.3320 0.1840
vn -0.9433 0.3321 -0.0000
vn -0.6993 0.7011 0.1391
vn -0.3179 0.9389 0.1317
vn -0.3375 0.9389 0.0671
vn -0.7130 0.7011 -0.0000
vn 0.1142 -0.3014 0.9466
vn 0.1949 -0.0442 0.9798
vn 0.1093 -0.1658 0.9801
vn 0.0980 -0.0000 0.9952
vn 0.2903 -0.0000 0.9569
vn 0.2741 -0.1658 0.9473
vn 0.2568 -0.3014 0.9183
vn -0.0120 0.9998 0.0146
vn -0.0351 0.9980 0.0526
vn -0.0661 0.9929 0.0989
vn -0.0089 0.9998 0.0167
vn 0.3783 0.8853 -0.2704
vn 0.3784 0.8853 -0.2704
vn -0.4530 0.8853 -0.1050
vn -0.4531 0.8852 -0.1053
vn -0.3783 0.8853 0.2704
vn -0.3784 0.8853 0.2704
vn 0.4531 0.8852 0.1053
vn 0.4530 0.8853 0.1050
vn 0.0068 -0.0131 0.9999
vn 0.0018 -0.0132 0.9999
vn 0.0066 -0.0131 0.9999
vn 0.0116 -0.0130 0.9998
vn -0.9264 -0.0130 0.3764
vn -0.9282 -0.0129 0.3719
vn -0.9263 -0.0130 0.3765
vn -0.9245 -0.0131 0.3810
vn 0.5555 0.0159 -0.8314
vn 0.4713 0.0157 -0.8818
vn 0.6343 0.0156 -0.7729
vn 0.6343 0.0160 -0.7729
vn -0.0067 -0.0130 -0.9999
vn -0.0018 -0.0131 -0.9999
vn -0.0066 -0.0130 -0.9999
vn -0.0116 -0.0131 -0.9998
vn 0.9264 -0.0130 -0.3764
vn 0.9282 -0.0130 -0.3719
vn 0.9263 -0.0130 -0.3765
vn 0.9245 -0.0130 -0.3810
vn -0.5555 0.0158 0.8314
vn -0.4713 0.0158 0.8818
vn -0.6343 0.0157 0.7729
vn -0.1907 -0.2114 -0.9586
vn -0.2838 -0.2104 -0.9355
vn -0.0958 -0.2104 -0.9729
vn -0.3365 -0.7957 0.5036
vn -0.3854 -0.7943 0.4696
vn -0.2864 -0.7943 0.5357
vn -0.8387 0.0175 -0.5443
vn -0.8315 -0.0000 -0.5555
vn -0.8349 0.0082 -0.5503
vn -0.8543 0.0593 -0.5165
vn -0.8503 0.0481 -0.5241
vn -0.8697 0.1089 -0.4814
vn -0.8711 0.1140 -0.4776
vn -0.8829 0.1632 -0.4404
vn -0.8875 0.1883 -0.4206
vn -0.8921 0.2198 -0.3948
vn -0.8942 0.2391 -0.3785
vn -0.8950 0.2480 -0.3707
vn -0.8949 0.2483 -0.3707
vn 0.3365 -0.7957 -0.5036
vn 0.3854 -0.7943 -0.4697
vn 0.2864 -0.7943 -0.5358
vn 0.7061 0.2199 0.6731
vn 0.6850 0.2483 0.6850
vn 0.6918 0.2392 0.6813
vn 0.7447 0.1633 0.6471
vn 0.7282 0.1883 0.6590
vn 0.7776 0.1089 0.6193
vn 0.7747 0.1140 0.6220
vn 0.8041 0.0594 0.5916
vn 0.8096 0.0481 0.5850
vn 0.8239 0.0175 0.5665
vn 0.8280 0.0082 0.5607
vn 0.8315 -0.0000 0.5555
vn -0.9794 -0.0308 0.1994
vn -0.9771 -0.0622 0.2036
vn -0.9794 -0.0314 0.1994
vn -0.9808 -0.0000 0.1950
vn 0.0412 -0.9774 0.2072
vn 0.0208 -0.9772 0.2113
vn 0.0164 -0.9859 0.1663
vn 0.0352 -0.9836 0.1769
vn 0.0616 -0.9772 0.2031
vn 0.0485 -0.9859 0.1599
vn 0.0143 -0.9893 0.1450
vn 0.0283 -0.9894 0.1423
vn 0.0423 -0.9893 0.1395
vn 0.0120 0.9998 -0.0146
vn 0.0351 0.9980 -0.0526
vn 0.0661 0.9929 -0.0989
vn 0.0089 0.9998 -0.0167
vn 0.9812 -0.0308 -0.1905
vn 0.9808 -0.0000 -0.1950
vn 0.9812 -0.0313 -0.1904
vn 0.9806 -0.0622 -0.1857
vn -0.0412 -0.9774 -0.2072
vn -0.0208 -0.9772 -0.2113
vn -0.0164 -0.9859 -0.1663
vn -0.0352 -0.9836 -0.1769
vn -0.0616 -0.9772 -0.2031
vn -0.0485 -0.9859 -0.1599
vn -0.0143 -0.9893 -0.1450
vn -0.0283 -0.9894 -0.1423
vn -0.0423 -0.9893 -0.1395
vn -0.2864 0.7942 0.5359
vn -0.2865 0.7942 0.5359
vn -0.3366 0.7956 0.5037
vn -0.3855 0.7942 0.4697
vn -0.9812 -0.0308 0.1905
vn -0.9812 -0.0314 0.1904
vn -0.9806 -0.0622 0.1857
vn 0.9794 -0.0308 -0.1994
vn 0.9771 -0.0622 -0.2036
vn 0.9794 -0.0314 -0.1994
vn -0.1850 -0.3176 0.9300
vn -0.0930 -0.3162 0.9441
vn -0.0968 -0.1586 0.9826
vn -0.1926 -0.1593 0.9683
vn -0.3629 -0.3176 0.8760
vn -0.3778 -0.1593 0.9121
vn -0.5268 -0.3176 0.7884
vn -0.5485 -0.1593 0.8208
vn -0.6705 -0.3176 0.6705
vn -0.6981 -0.1593 0.6981
vn -0.7884 -0.3176 0.5268
vn -0.8208 -0.1593 0.5485
vn -0.8760 -0.3176 0.3629
vn -0.9121 -0.1593 0.3778
vn -0.9300 -0.3176 0.1850
vn -0.9683 -0.1593 0.1926
vn -0.9482 -0.3176 -0.0000
vn -0.9872 -0.1593 -0.0000
vn -0.0328 -0.0000 0.9995
vn -0.0423 0.9893 -0.1395
vn -0.0283 0.9894 -0.1423
vn -0.0143 0.9893 -0.1451
vn -0.9300 -0.3176 -0.1850
vn -0.9683 -0.1593 -0.1926
vn -0.8760 -0.3176 -0.3629
vn -0.9121 -0.1593 -0.3778
vn -0.7884 -0.3176 -0.5268
vn -0.8208 -0.1593 -0.5485
vn -0.6705 -0.3176 -0.6705
vn -0.6981 -0.1593 -0.6981
vn -0.5268 -0.3176 -0.7884
vn -0.5485 -0.1593 -0.8208
vn -0.4472 -0.3162 -0.8367
vn -0.4654 -0.1586 -0.8708
vn -0.4128 -0.0000 -0.9108
vn 0.0423 0.9893 0.1395
vn 0.0283 0.9894 0.1423
vn 0.0143 0.9893 0.1450
vn 0.0143 0.9893 0.1451
vn -0.2568 -0.3014 -0.9183
vn -0.2741 -0.1658 -0.9473
vn -0.1949 -0.0442 -0.9798
vn -0.1142 -0.3014 -0.9466
vn -0.1093 -0.1658 -0.9801
vn -0.0980 -0.0000 -0.9952
vn -0.2903 -0.0000 -0.9569
vn -0.8280 0.0082 -0.5607
vn -0.8239 0.0175 -0.5665
vn -0.8096 0.0481 -0.5850
vn -0.8041 0.0593 -0.5916
vn -0.7747 0.1139 -0.6220
vn -0.7776 0.1088 -0.6193
vn -0.7282 0.1882 -0.6590
vn -0.7447 0.1632 -0.6471
vn -0.6918 0.2392 -0.6813
vn -0.7061 0.2199 -0.6731
vn -0.6850 0.2482 -0.6850
vn 0.2864 0.7942 -0.5359
vn 0.2864 0.7943 -0.5358
vn 0.3366 0.7956 -0.5037
vn 0.3854 0.7943 -0.4696
vn 0.3855 0.7942 -0.4697
vn 0.9251 0.3321 -0.1840
vn 0.9433 0.3321 -0.0000
vn 0.9251 0.3320 0.1840
vn 0.8715 0.3321 0.3610
vn 0.7843 0.3321 0.5240
vn 0.6670 0.3321 0.6670
vn 0.5240 0.3320 0.7843
vn 0.3610 0.3321 0.8715
vn 0.1840 0.3320 0.9251
vn -0.0000 0.3321 0.9433
vn -0.1840 0.3320 0.9251
vn 0.5929 0.7011 0.3961
vn 0.6588 0.7011 0.2729
vn 0.6993 0.7011 0.1391
vn 0.7843 0.3321 -0.5240
vn 0.8715 0.3321 -0.3610
vn 0.5929 0.7011 -0.3961
vn 0.6588 0.7011 -0.2729
vn 0.2861 0.9389 -0.1912
vn 0.3179 0.9389 -0.1317
vn 0.6993 0.7011 -0.1391
vn 0.3375 0.9389 -0.0671
vn 0.7130 0.7011 -0.0000
vn 0.3441 0.9389 -0.0000
vn 0.3375 0.9389 0.0671
vn 0.7295 0.3306 -0.5987
vn 0.5525 0.6994 -0.4534
vn 0.2671 0.9384 -0.2192
vn 0.9683 -0.1593 0.1926
vn 0.9121 -0.1593 0.3778
vn 0.8208 -0.1593 0.5485
vn 0.6981 -0.1593 0.6981
vn 0.5485 -0.1593 0.8208
vn 0.4128 -0.0000 0.9108
vn 0.4654 -0.1586 0.8708
vn 0.4472 -0.3162 0.8367
vn 0.5268 -0.3176 0.7884
vn 0.6705 -0.3176 0.6705
vn 0.7884 -0.3176 0.5268
vn 0.8760 -0.3176 0.3629
vn 0.9300 -0.3176 0.1850
vn 0.9872 -0.1593 -0.0000
vn 0.9482 -0.3176 -0.0000
vn 0.9683 -0.1593 -0.1926
vn 0.9300 -0.3176 -0.1850
vn 0.0968 -0.1586 -0.9826
vn 0.0328 -0.0000 -0.9995
vn 0.1926 -0.1593 -0.9683
vn 0.3778 -0.1593 -0.9121
vn 0.5485 -0.1593 -0.8208
vn 0.6981 -0.1593 -0.6981
vn 0.8208 -0.1593 -0.5485
vn 0.9121 -0.1593 -0.3778
vn 0.8760 -0.3176 -0.3629
vn 0.7884 -0.3176 -0.5268
vn 0.6705 -0.3176 -0.6705
vn 0.5268 -0.3176 -0.7884
vn 0.3629 -0.3176 -0.8760
vn 0.1850 -0.3176 -0.9300
vn 0.0930 -0.3162 -0.9441
vn 0.8387 0.0175 0.5443
vn 0.8349 0.0082 0.5504
vn 0.8542 0.0594 0.5165
vn 0.8502 0.0481 0.5242
vn 0.8697 0.1089 0.4814
vn 0.8711 0.1140 0.4777
vn 0.8828 0.1633 0.4404
vn 0.8875 0.1884 0.4206
vn 0.8922 0.2195 0.3947
vn 0.8942 0.2393 0.3784
vn 0.8949 0.2483 0.3707
vn 0.5511 0.1265 -0.8248
vn 0.7014 0.1265 -0.7014
vn 0.8248 0.1265 -0.5511
vn 0.9164 0.1267 -0.3796
vn 0.9729 0.1263 -0.1935
vn 0.9920 0.1266 -0.0000
vn 0.9729 0.1265 0.1935
vn 0.9165 0.1265 0.3796
vt 0.398734 0.305395
vt 0.399254 0.291722
vt 0.418242 0.293920
vt 0.378293 0.293488
vt 0.573091 0.640242
vt 0.598453 0.609597
vt 0.603755 0.615187
vt 0.626029 0.579333
vt 0.662210 0.560196
vt 0.664375 0.565879
vt 0.629266 0.584482
vt 0.594276 0.605177
vt 0.568138 0.636715
vt 0.548602 0.672815
vt 0.554147 0.675310
vt 0.536453 0.712035
vt 0.542374 0.713414
vt 0.532252 0.752568
vt 0.538227 0.752966
vt 0.549873 0.715162
vt 0.545885 0.753456
vt 0.561178 0.678462
vt 0.579374 0.644704
vt 0.667134 0.573078
vt 0.741624 0.558543
vt 0.633381 0.590999
vt 0.703699 0.562122
vt 0.702424 0.554526
vt 0.741788 0.550838
vt 0.779652 0.562205
vt 0.781298 0.554674
vt 0.816277 0.573238
vt 0.819363 0.566174
vt 0.850053 0.591222
vt 0.854474 0.584911
vt 0.879660 0.615445
vt 0.885214 0.610103
vt 0.936897 0.753308
vt 0.922022 0.678715
vt 0.933141 0.715298
vt 0.903956 0.644989
vt 0.910454 0.640842
vt 0.929205 0.675919
vt 0.940730 0.713980
vt 0.944600 0.753443
vt 0.933193 0.791308
vt 0.940724 0.792952
vt 0.922116 0.827905
vt 0.929181 0.830990
vt 0.934876 0.673722
vt 0.946720 0.712938
vt 0.915585 0.637577
vt 0.889606 0.605895
vt 0.857966 0.579933
vt 0.821810 0.560607
vt 0.782609 0.548736
vt 0.741930 0.544758
vt 0.701416 0.548530
vt 0.741849 0.948297
vt 0.879827 0.891227
vt 0.904092 0.861649
vt 0.910405 0.866067
vt 0.885173 0.896778
vt 0.850256 0.915481
vt 0.854405 0.921977
vt 0.816498 0.933505
vt 0.819298 0.940688
vt 0.779890 0.944581
vt 0.781207 0.952166
vt 0.741768 0.956006
vt 0.782256 0.958154
vt 0.741678 0.962088
vt 0.821497 0.946357
vt 0.857673 0.927105
vt 0.889383 0.901167
vt 0.915385 0.869556
vt 0.934750 0.833433
vt 0.946663 0.794258
vt 0.950681 0.753564
vt 0.536648 0.794748
vt 0.532279 0.754365
vt 0.538263 0.753964
vt 0.542586 0.793506
vt 0.550092 0.792028
vt 0.561487 0.828671
vt 0.554358 0.831567
vt 0.573262 0.866573
vt 0.568169 0.869892
vt 0.594240 0.901434
vt 0.598592 0.897186
vt 0.625870 0.927284
vt 0.629330 0.922285
vt 0.661980 0.946505
vt 0.664394 0.940924
vt 0.701103 0.958252
vt 0.702377 0.952306
vt 0.548732 0.833862
vt 0.703981 0.944765
vt 0.667443 0.933843
vt 0.633719 0.915956
vt 0.604097 0.891791
vt 0.579719 0.862378
vt 0.022427 0.114784
vt 0.003149 0.114784
vt 0.003149 0.113680
vt 0.022427 0.113680
vt 0.003149 0.112647
vt 0.053144 0.114784
vt 0.022427 0.112647
vt 0.003149 0.111597
vt 0.053144 0.113680
vt 0.084288 0.114784
vt 0.084288 0.113680
vt 0.115715 0.114784
vt 0.115715 0.113680
vt 0.147229 0.114784
vt 0.147229 0.113680
vt 0.178761 0.114784
vt 0.178761 0.113680
vt 0.210287 0.114784
vt 0.210287 0.113680
vt 0.241800 0.114784
vt 0.241800 0.113680
vt 0.273301 0.114784
vt 0.273301 0.113680
vt 0.022427 0.111597
vt 0.053144 0.112647
vt 0.084288 0.112647
vt 0.115715 0.112647
vt 0.147229 0.112647
vt 0.178761 0.112647
vt 0.210287 0.112647
vt 0.241800 0.112647
vt 0.273301 0.112647
vt 0.304733 0.113680
vt 0.084288 0.111597
vt 0.115715 0.111597
vt 0.053144 0.111597
vt 0.367692 0.111597
vt 0.399163 0.111597
vt 0.399163 0.112648
vt 0.367692 0.112648
vt 0.336215 0.111597
vt 0.336215 0.112647
vt 0.304733 0.111597
vt 0.304733 0.112647
vt 0.273301 0.111597
vt 0.241800 0.111597
vt 0.210287 0.111597
vt 0.178761 0.111597
vt 0.147229 0.111597
vt 0.336215 0.113680
vt 0.367692 0.113680
vt 0.399163 0.113680
vt 0.430631 0.113680
vt 0.430631 0.112648
vt 0.462095 0.113680
vt 0.462095 0.112648
vt 0.493558 0.113680
vt 0.493558 0.112648
vt 0.525020 0.113680
vt 0.525020 0.112648
vt 0.556481 0.113680
vt 0.556481 0.112648
vt 0.587942 0.113680
vt 0.304733 0.114784
vt 0.336215 0.114784
vt 0.367692 0.114784
vt 0.399163 0.114784
vt 0.430631 0.114784
vt 0.462095 0.114784
vt 0.493558 0.114784
vt 0.525020 0.114784
vt 0.556481 0.114784
vt 0.587942 0.114784
vt 0.619403 0.114784
vt 0.619403 0.113680
vt 0.650866 0.114784
vt 0.650866 0.113680
vt 0.682330 0.114784
vt 0.682330 0.113680
vt 0.713798 0.114784
vt 0.713798 0.113680
vt 0.745268 0.114784
vt 0.745268 0.113680
vt 0.776744 0.114784
vt 0.776744 0.113680
vt 0.808225 0.114784
vt 0.808225 0.113680
vt 0.839713 0.114784
vt 0.839713 0.113680
vt 0.587942 0.112648
vt 0.619403 0.112648
vt 0.650866 0.112648
vt 0.682330 0.112648
vt 0.713798 0.112648
vt 0.745268 0.112648
vt 0.776744 0.112648
vt 0.808225 0.112648
vt 0.839713 0.112648
vt 0.871209 0.113680
vt 0.934208 0.111597
vt 0.965795 0.111597
vt 0.965795 0.112648
vt 0.934208 0.112648
vt 0.902711 0.111597
vt 0.902711 0.112648
vt 0.871209 0.111597
vt 0.871209 0.112648
vt 0.839713 0.111597
vt 0.808225 0.111597
vt 0.776744 0.111597
vt 0.745268 0.111597
vt 0.713798 0.111597
vt 0.682330 0.111597
vt 0.902711 0.113680
vt 0.934208 0.113680
vt 0.965795 0.113680
vt 0.871209 0.114784
vt 0.902711 0.114784
vt 0.934208 0.114784
vt 0.965795 0.114784
vt 0.995105 0.114784
vt 0.995105 0.113680
vt 0.995105 0.112648
vt 0.995105 0.111597
vt 0.716072 0.119200
vt 0.716067 0.154929
vt 0.685075 0.119182
vt 0.685073 0.137047
vt 0.654078 0.119164
vt 0.654076 0.137028
vt 0.623081 0.119146
vt 0.623079 0.137010
vt 0.592085 0.119127
vt 0.623076 0.154875
vt 0.592079 0.154857
vt 0.561088 0.119110
vt 0.561082 0.154839
vt 0.530091 0.119091
vt 0.530086 0.154821
vt 0.499094 0.119073
vt 0.499089 0.154803
vt 0.468097 0.119055
vt 0.468092 0.154785
vt 0.437100 0.119037
vt 0.685070 0.154911
vt 0.437095 0.154766
vt 0.406103 0.119019
vt 0.406098 0.154748
vt 0.375106 0.119001
vt 0.375101 0.154730
vt 0.344109 0.118983
vt 0.344104 0.154712
vt 0.313112 0.118965
vt 0.313107 0.154694
vt 0.282115 0.118946
vt 0.282110 0.154676
vt 0.251118 0.118928
vt 0.251113 0.154658
vt 0.220122 0.118910
vt 0.220116 0.154640
vt 0.189125 0.118892
vt 0.189122 0.136757
vt 0.158128 0.118874
vt 0.189120 0.154622
vt 0.158125 0.136739
vt 0.127131 0.118856
vt 0.127128 0.136721
vt 0.096134 0.118838
vt 0.127126 0.154586
vt 0.096129 0.154568
vt 0.065137 0.118820
vt 0.065132 0.154549
vt 0.034140 0.118802
vt 0.034135 0.154532
vt 0.003143 0.118784
vt 0.003138 0.154513
vt 0.964048 0.119344
vt 0.995045 0.119362
vt 0.995040 0.155092
vt 0.964043 0.155074
vt 0.933051 0.119326
vt 0.933046 0.155056
vt 0.902054 0.119308
vt 0.902049 0.155038
vt 0.871057 0.119290
vt 0.871052 0.155020
vt 0.840060 0.119272
vt 0.840055 0.155001
vt 0.809063 0.119254
vt 0.809058 0.154983
vt 0.778066 0.119236
vt 0.778061 0.154965
vt 0.747069 0.119218
vt 0.747064 0.154947
vt 0.166635 0.292154
vt 0.213611 0.285354
vt 0.213661 0.303862
vt 0.166295 0.306777
vt 0.255643 0.290688
vt 0.254377 0.303888
vt 0.253961 0.307669
vt 0.213748 0.309122
vt 0.166511 0.311757
vt 0.253454 0.310764
vt 0.206538 0.325057
vt 0.193166 0.336778
vt 0.168437 0.335859
vt 0.167426 0.324738
vt 0.214325 0.318295
vt 0.166934 0.319754
vt 0.190059 0.314803
vt 0.166586 0.315737
vt 0.213816 0.313655
vt 0.233258 0.311797
vt 0.252692 0.312989
vt 0.251870 0.316639
vt 0.221766 0.323162
vt 0.249947 0.325121
vt 0.233350 0.331140
vt 0.522722 0.706581
vt 0.512014 0.666673
vt 0.514742 0.665932
vt 0.490176 0.863039
vt 0.464131 0.894347
vt 0.462216 0.892304
vt 0.487903 0.861403
vt 0.509628 0.827189
vt 0.507085 0.826016
vt 0.521812 0.788224
vt 0.519093 0.787555
vt 0.526249 0.747476
vt 0.523454 0.747331
vt 0.519951 0.706942
vt 0.509291 0.667504
vt 0.431035 0.917495
vt 0.395832 0.936114
vt 0.394569 0.932958
vt 0.429222 0.914623
vt 0.459894 0.889825
vt 0.485145 0.859419
vt 0.504001 0.824594
vt 0.515795 0.786744
vt 0.520064 0.747156
vt 0.516590 0.707382
vt 0.505977 0.668558
vt 0.213734 0.903865
vt 0.246299 0.920622
vt 0.240720 0.934878
vt 0.278656 0.945854
vt 0.281540 0.930802
vt 0.317988 0.949262
vt 0.317893 0.933892
vt 0.357134 0.944869
vt 0.354108 0.929805
vt 0.388743 0.918700
vt 0.421032 0.901661
vt 0.449332 0.878654
vt 0.472629 0.850493
vt 0.490005 0.818244
vt 0.491039 0.673852
vt 0.504733 0.746455
vt 0.500872 0.783141
vt 0.501410 0.709471
vt 0.498434 0.671066
vt 0.479572 0.637240
vt 0.473148 0.641493
vt 0.454752 0.607611
vt 0.449276 0.613174
vt 0.428574 0.577391
vt 0.420242 0.590129
vt 0.393427 0.559108
vt 0.387581 0.573207
vt 0.355623 0.547952
vt 0.352407 0.562883
vt 0.316111 0.543775
vt 0.315820 0.559559
vt 0.244563 0.574997
vt 0.142771 0.820133
vt 0.279109 0.563884
vt 0.184692 0.880899
vt 0.160769 0.852577
vt 0.143366 0.676162
vt 0.183863 0.615582
vt 0.212142 0.592374
vt 0.173183 0.604550
vt 0.203798 0.579574
vt 0.238407 0.560957
vt 0.275745 0.549025
vt 0.314826 0.543706
vt 0.274937 0.545740
vt 0.314580 0.540257
vt 0.237065 0.557846
vt 0.160624 0.643875
vt 0.128855 0.747887
vt 0.132599 0.711275
vt 0.113520 0.747322
vt 0.117653 0.707801
vt 0.129306 0.669957
vt 0.148033 0.635077
vt 0.201937 0.576739
vt 0.170829 0.602105
vt 0.145253 0.633125
vt 0.126207 0.668569
vt 0.114347 0.707023
vt 0.110129 0.747180
vt 0.113791 0.787443
vt 0.117146 0.786970
vt 0.132298 0.784741
vt 0.107333 0.747064
vt 0.111621 0.706383
vt 0.111024 0.787832
vt 0.121931 0.827570
vt 0.124641 0.826711
vt 0.127938 0.825622
vt 0.135432 0.823028
vt 0.154380 0.856874
vt 0.179263 0.886546
vt 0.205535 0.916720
vt 0.174083 0.892550
vt 0.233482 0.549624
vt 0.272741 0.537055
vt 0.273574 0.540330
vt 0.234836 0.552723
vt 0.274259 0.543032
vt 0.235952 0.555282
vt 0.198854 0.572076
vt 0.200396 0.574405
vt 0.166940 0.598087
vt 0.168884 0.600093
vt 0.140668 0.629919
vt 0.142959 0.631520
vt 0.121099 0.666287
vt 0.123651 0.667426
vt 0.108900 0.705745
vt 0.104541 0.746949
vt 0.108260 0.788221
vt 0.119212 0.828337
vt 0.196984 0.569258
vt 0.164583 0.595661
vt 0.137894 0.627984
vt 0.118009 0.664910
vt 0.105606 0.704974
vt 0.101161 0.746814
vt 0.104910 0.788698
vt 0.115907 0.829150
vt 0.298338 0.328063
vt 0.286830 0.338577
vt 0.266341 0.333471
vt 0.264657 0.322647
vt 0.305323 0.321779
vt 0.263225 0.317726
vt 0.305185 0.316650
vt 0.324072 0.315321
vt 0.283238 0.315362
vt 0.261970 0.313827
vt 0.261312 0.309754
vt 0.305246 0.311786
vt 0.343998 0.314831
vt 0.342708 0.317353
vt 0.341199 0.321374
vt 0.312131 0.327503
vt 0.339325 0.330356
vt 0.322767 0.336645
vt 0.260617 0.304597
vt 0.344890 0.311382
vt 0.305318 0.306141
vt 0.260383 0.289622
vt 0.305468 0.286440
vt 0.345684 0.307155
vt 0.347602 0.292402
vt 0.434965 0.566846
vt 0.467826 0.591962
vt 0.465815 0.594693
vt 0.433218 0.569737
vt 0.464065 0.596901
vt 0.398074 0.547678
vt 0.431776 0.572121
vt 0.462231 0.599064
vt 0.396816 0.550815
vt 0.358275 0.535899
vt 0.459959 0.601671
vt 0.430330 0.574505
vt 0.395771 0.553402
vt 0.357554 0.539204
vt 0.317052 0.531324
vt 0.316636 0.534697
vt 0.356955 0.541927
vt 0.394718 0.555985
vt 0.356353 0.544650
vt 0.316243 0.540329
vt 0.316393 0.537503
vt 0.355449 0.295566
vt 0.377348 0.293318
vt 0.398633 0.306509
vt 0.355839 0.304206
vt 0.356565 0.314526
vt 0.377637 0.314073
vt 0.398186 0.313522
vt 0.419265 0.314301
vt 0.439603 0.305030
vt 0.440133 0.315247
vt 0.439723 0.297119
vt 0.419179 0.293781
vt 0.217087 0.336493
vt 0.193809 0.336462
vt 0.207204 0.325969
vt 0.214769 0.325305
vt 0.214349 0.319405
vt 0.221287 0.324081
vt 0.232669 0.330844
vt 0.472350 0.293798
vt 0.492450 0.305328
vt 0.492302 0.306538
vt 0.471098 0.293593
vt 0.510928 0.294196
vt 0.512134 0.293973
vt 0.217378 0.337687
vt 0.311589 0.328503
vt 0.305321 0.322990
vt 0.322045 0.336309
vt 0.298926 0.329115
vt 0.287550 0.338272
vt 0.306649 0.342191
vt 0.306781 0.343556
vt 0.493054 0.291774
vt 0.166711 0.291188
vt 0.213661 0.284165
vt 0.255700 0.289658
vt 0.348250 0.292436
vt 0.346504 0.306902
vt 0.345795 0.311337
vt 0.344842 0.315178
vt 0.343253 0.318180
vt 0.341241 0.321947
vt 0.339583 0.330400
vt 0.260436 0.288631
vt 0.305523 0.285183
vt 0.347619 0.291336
vt 0.265799 0.333571
vt 0.264446 0.323113
vt 0.262670 0.318435
vt 0.261131 0.314097
vt 0.260355 0.309432
vt 0.259838 0.303154
vt 0.259857 0.289636
vt 0.532242 0.305306
vt 0.532391 0.297581
vt 0.533024 0.297643
vt 0.532928 0.304929
vt 0.532890 0.315653
vt 0.533753 0.315547
vt 0.493237 0.290550
vt 0.449140 0.294427
vt 0.449208 0.295408
vt 0.493499 0.289243
vt 0.532453 0.296618
vt 0.305541 0.329473
vt 0.449661 0.304181
vt 0.450468 0.314538
vt 0.449760 0.314569
vt 0.448808 0.304179
vt 0.448333 0.295505
vt 0.399383 0.290569
vt 0.355387 0.294597
vt 0.399537 0.289362
vt 0.439794 0.296149
vt 0.339248 0.330935
vt 0.306866 0.344914
vt 0.266499 0.334397
vt 0.355815 0.314438
vt 0.355032 0.304245
vt 0.354587 0.295660
vt 0.440390 0.297195
vt 0.440297 0.304584
vt 0.440992 0.315154
vt 0.032838 0.030445
vt 0.003086 0.030445
vt 0.003086 0.022082
vt 0.032838 0.022082
vt 0.062663 0.030445
vt 0.062663 0.022082
vt 0.092489 0.030445
vt 0.092489 0.022082
vt 0.122315 0.030445
vt 0.122315 0.022082
vt 0.152140 0.030445
vt 0.152140 0.022082
vt 0.181966 0.030445
vt 0.181966 0.022082
vt 0.211756 0.030445
vt 0.211756 0.022082
vt 0.241690 0.030445
vt 0.241690 0.022082
vt 0.241690 0.012615
vt 0.211756 0.012615
vt 0.003086 0.012615
vt 0.032838 0.012615
vt 0.062663 0.012615
vt 0.092489 0.012615
vt 0.122315 0.012615
vt 0.152140 0.012615
vt 0.181966 0.012615
vt 0.532898 0.316751
vt 0.512588 0.314322
vt 0.491795 0.313821
vt 0.491614 0.315186
vt 0.471584 0.314364
vt 0.450503 0.315633
vt 0.839336 0.033613
vt 0.808279 0.033613
vt 0.808279 0.023406
vt 0.839336 0.023406
vt 0.870469 0.033613
vt 0.870469 0.023406
vt 0.901604 0.033613
vt 0.901604 0.023406
vt 0.932738 0.033613
vt 0.932738 0.023406
vt 0.963857 0.033613
vt 0.963857 0.023406
vt 0.995104 0.033613
vt 0.995104 0.023406
vt 0.995104 0.011852
vt 0.963857 0.011852
vt 0.808279 0.011852
vt 0.839336 0.011852
vt 0.870469 0.011852
vt 0.901604 0.011852
vt 0.932738 0.011852
vt 0.440138 0.316340
vt 0.398061 0.314761
vt 0.356581 0.315625
vt 0.165561 0.305464
vt 0.166122 0.292129
vt 0.165658 0.311338
vt 0.165759 0.315861
vt 0.166280 0.320343
vt 0.166864 0.325396
vt 0.167877 0.335910
vt 0.249856 0.325668
vt 0.217601 0.338890
vt 0.168571 0.336779
vt 0.318057 0.961634
vt 0.276386 0.958010
vt 0.276998 0.954684
vt 0.318032 0.958251
vt 0.359562 0.957003
vt 0.358895 0.953686
vt 0.399171 0.944452
vt 0.397912 0.941310
vt 0.435825 0.925088
vt 0.434021 0.922226
vt 0.468356 0.898854
vt 0.466042 0.896387
vt 0.495191 0.866648
vt 0.492445 0.864672
vt 0.515238 0.829778
vt 0.512166 0.828361
vt 0.527810 0.789705
vt 0.524525 0.788894
vt 0.532419 0.747796
vt 0.529040 0.747622
vt 0.528846 0.705780
vt 0.525491 0.706220
vt 0.518056 0.665149
vt 0.432529 0.919863
vt 0.396873 0.938715
vt 0.358345 0.950946
vt 0.236283 0.946403
vt 0.199260 0.927345
vt 0.200975 0.924434
vt 0.237485 0.943243
vt 0.202390 0.922031
vt 0.238482 0.940636
vt 0.203808 0.919629
vt 0.239487 0.938030
vt 0.277507 0.951937
vt 0.278022 0.949187
vt 0.318014 0.955457
vt 0.318000 0.952658
vt 0.357796 0.948200
vt 0.166278 0.902331
vt 0.168271 0.899585
vt 0.170006 0.897362
vt 0.171826 0.895181
vt 0.462229 0.020347
vt 0.462229 0.033085
vt 0.430721 0.033085
vt 0.430721 0.020347
vt 0.399213 0.033085
vt 0.399213 0.020347
vt 0.367705 0.033085
vt 0.367705 0.020347
vt 0.336197 0.033085
vt 0.336197 0.020347
vt 0.304661 0.033085
vt 0.304661 0.020347
vt 0.304661 0.009188
vt 0.336197 0.009188
vt 0.367705 0.009188
vt 0.399213 0.009188
vt 0.430721 0.009188
vt 0.462229 0.009188
vt 0.493737 0.020347
vt 0.493737 0.009188
vt 0.525245 0.020347
vt 0.525245 0.009188
vt 0.745590 0.020347
vt 0.745590 0.033085
vt 0.714271 0.033085
vt 0.714271 0.020347
vt 0.682785 0.033085
vt 0.682785 0.020347
vt 0.651278 0.033085
vt 0.651278 0.020347
vt 0.619770 0.033085
vt 0.619770 0.020347
vt 0.588261 0.033085
vt 0.588261 0.020347
vt 0.556753 0.033085
vt 0.556753 0.020347
vt 0.525245 0.033085
vt 0.493737 0.033085
vt 0.556753 0.009188
vt 0.588261 0.009188
vt 0.619770 0.009188
vt 0.651278 0.009188
vt 0.682785 0.009188
vt 0.714271 0.009188
vt 0.745590 0.009188
vt 0.313474 0.531285
vt 0.314000 0.534635
vt 0.314337 0.537432
vt 0.256268 0.290741
vt 0.255118 0.303682
vt 0.254783 0.307635
vt 0.254263 0.311075
vt 0.253247 0.313735
vt 0.252198 0.316914
vt 0.250191 0.325155
vt 0.650866 0.111597
vt 0.619403 0.111597
vt 0.587942 0.111597
vt 0.556481 0.111597
vt 0.525020 0.111597
vt 0.493558 0.111597
vt 0.462095 0.111597
vt 0.430631 0.111597
vt 0.115715 0.038774
vt 0.147229 0.038774
vt 0.084288 0.038774
vt 0.053144 0.038774
vt 0.022427 0.038774
vt 0.003149 0.038774
vt 0.399163 0.038774
vt 0.430631 0.038774
vt 0.367692 0.038774
vt 0.336215 0.038774
vt 0.304733 0.038774
vt 0.273301 0.038774
vt 0.241800 0.038774
vt 0.210287 0.038774
vt 0.178761 0.038774
vt 0.682330 0.038774
vt 0.713798 0.038774
vt 0.650866 0.038774
vt 0.619403 0.038774
vt 0.587942 0.038774
vt 0.556481 0.038774
vt 0.525020 0.038774
vt 0.493558 0.038774
vt 0.462095 0.038774
vt 0.965795 0.038774
vt 0.995105 0.038774
vt 0.934208 0.038774
vt 0.902711 0.038774
vt 0.871209 0.038774
vt 0.839713 0.038774
vt 0.808225 0.038774
vt 0.776744 0.038774
vt 0.745268 0.038774
s 1
usemtl zyn_can_combine
f 1/1/1 2/2/1 3/3/2
f 1/1/1 4/4/3 2/2/1
f 5/5/4 6/6/5 7/7/6
f 8/8/7 9/9/8 10/10/9
f 10/10/9 11/11/10 8/8/7
f 12/12/11 8/8/7 11/11/10
f 11/11/10 6/6/5 12/12/11
f 13/13/12 12/12/11 6/6/5
f 6/6/5 5/5/4 13/13/12
f 14/14/13 13/13/12 5/5/4
f 5/5/4 15/15/14 14/14/13
f 16/16/15 14/14/13 15/15/14
f 15/15/14 17/17/16 16/16/15
f 18/18/17 16/16/15 17/17/16
f 17/17/16 19/19/18 18/18/17
f 19/19/18 17/17/16 20/20/19
f 20/20/19 21/21/20 19/19/18
f 21/21/20 20/20/19 22/22/21
f 21/21/20 22/22/21 7/7/6
f 22/22/21 23/23/22 7/7/6
f 7/7/6 23/23/22 5/5/4
f 15/15/14 5/5/4 23/23/22
f 23/23/22 22/22/21 15/15/14
f 17/17/16 15/15/14 22/22/21
f 22/22/21 20/20/19 17/17/16
f 7/7/6 24/24/23 25/25/24
f 7/7/6 26/26/25 24/24/23
f 26/26/25 7/7/6 6/6/5
f 6/6/5 11/11/10 26/26/25
f 24/24/23 26/26/25 11/11/10
f 11/11/10 10/10/9 24/24/23
f 27/27/26 24/24/23 10/10/9
f 10/10/9 28/28/27 27/27/26
f 25/25/24 27/27/26 28/28/27
f 28/28/27 29/29/28 25/25/24
f 30/30/29 25/25/24 29/29/28
f 29/29/28 31/31/30 30/30/29
f 32/32/31 30/30/29 31/31/30
f 31/31/30 33/33/32 32/32/31
f 34/34/33 32/32/31 33/33/32
f 33/33/32 35/35/34 34/34/33
f 36/36/35 34/34/33 35/35/34
f 35/35/34 37/37/36 36/36/35
f 24/24/23 27/27/26 25/25/24
f 25/25/24 30/30/29 32/32/31
f 25/25/24 36/36/35 38/38/37
f 25/25/24 32/32/31 36/36/35
f 32/32/31 34/34/33 36/36/35
f 39/39/38 40/40/39 38/38/37
f 36/36/35 39/39/38 38/38/37
f 36/36/35 41/41/40 39/39/38
f 41/41/40 36/36/35 37/37/36
f 37/37/36 42/42/41 41/41/40
f 39/39/38 41/41/40 42/42/41
f 42/42/41 43/43/42 39/39/38
f 40/40/39 39/39/38 43/43/42
f 43/43/42 44/44/43 40/40/39
f 38/38/37 40/40/39 44/44/43
f 44/44/43 45/45/44 38/38/37
f 46/46/45 38/38/37 45/45/44
f 45/45/44 47/47/46 46/46/45
f 48/48/47 46/46/45 47/47/46
f 47/47/46 49/49/48 48/48/47
f 38/38/37 46/46/45 48/48/47
f 50/50/49 51/51/50 44/44/43
f 44/44/43 43/43/42 50/50/49
f 52/52/51 50/50/49 43/43/42
f 43/43/42 42/42/41 52/52/51
f 53/53/52 52/52/51 42/42/41
f 42/42/41 37/37/36 53/53/52
f 54/54/53 53/53/52 37/37/36
f 37/37/36 35/35/34 54/54/53
f 55/55/54 54/54/53 35/35/34
f 35/35/34 33/33/32 55/55/54
f 56/56/55 55/55/54 33/33/32
f 33/33/32 31/31/30 56/56/55
f 57/57/56 56/56/55 31/31/30
f 31/31/30 29/29/28 57/57/56
f 58/58/57 57/57/56 29/29/28
f 29/29/28 28/28/27 58/58/57
f 9/9/8 58/58/57 28/28/27
f 28/28/27 10/10/9 9/9/8
f 21/21/20 7/7/6 25/25/24
f 21/21/20 25/25/24 59/59/58
f 25/25/24 38/38/37 59/59/58
f 38/38/37 60/60/59 59/59/58
f 38/38/37 48/48/47 60/60/59
f 48/48/47 61/61/60 60/60/59
f 61/61/60 48/48/47 49/49/48
f 49/49/48 62/62/61 61/61/60
f 60/60/59 61/61/60 62/62/61
f 62/62/61 63/63/62 60/60/59
f 64/64/63 60/60/59 63/63/62
f 63/63/62 65/65/64 64/64/63
f 66/66/65 64/64/63 65/65/64
f 65/65/64 67/67/66 66/66/65
f 68/68/67 66/66/65 67/67/66
f 67/67/66 69/69/68 68/68/67
f 59/59/58 68/68/67 69/69/68
f 69/69/68 70/70/69 59/59/58
f 66/66/65 68/68/67 59/59/58
f 60/60/59 66/66/65 59/59/58
f 60/60/59 64/64/63 66/66/65
f 71/71/70 72/72/71 70/70/69
f 70/70/69 69/69/68 71/71/70
f 73/73/72 71/71/70 69/69/68
f 69/69/68 67/67/66 73/73/72
f 74/74/73 73/73/72 67/67/66
f 67/67/66 65/65/64 74/74/73
f 75/75/74 74/74/73 65/65/64
f 65/65/64 63/63/62 75/75/74
f 76/76/75 75/75/74 63/63/62
f 63/63/62 62/62/61 76/76/75
f 77/77/76 76/76/75 62/62/61
f 62/62/61 49/49/48 77/77/76
f 78/78/77 77/77/76 49/49/48
f 49/49/48 47/47/46 78/78/77
f 79/79/78 78/78/77 47/47/46
f 47/47/46 45/45/44 79/79/78
f 51/51/50 79/79/78 45/45/44
f 45/45/44 44/44/43 51/51/50
f 80/80/79 18/81/17 19/82/18
f 19/82/18 81/83/80 80/80/79
f 81/83/80 19/82/18 21/21/20
f 21/21/20 82/84/81 81/83/80
f 83/85/82 82/84/81 21/21/20
f 82/84/81 83/85/82 84/86/83
f 85/87/84 84/86/83 83/85/82
f 84/86/83 85/87/84 86/88/85
f 87/89/86 86/88/85 85/87/84
f 85/87/84 88/90/87 87/89/86
f 89/91/88 87/89/86 88/90/87
f 88/90/87 90/92/89 89/91/88
f 91/93/90 89/91/88 90/92/89
f 90/92/89 92/94/91 91/93/90
f 93/95/92 91/93/90 92/94/91
f 92/94/91 94/96/93 93/95/92
f 72/72/71 93/95/92 94/96/93
f 94/96/93 70/70/69 72/72/71
f 84/86/83 81/83/80 82/84/81
f 81/83/80 84/86/83 95/97/94
f 86/88/85 95/97/94 84/86/83
f 95/97/94 80/80/79 81/83/80
f 96/98/95 59/59/58 70/70/69
f 70/70/69 94/96/93 96/98/95
f 97/99/96 96/98/95 94/96/93
f 94/96/93 92/94/91 97/99/96
f 98/100/97 97/99/96 92/94/91
f 92/94/91 90/92/89 98/100/97
f 99/101/98 98/100/97 90/92/89
f 90/92/89 88/90/87 99/101/98
f 100/102/99 99/101/98 88/90/87
f 88/90/87 85/87/84 100/102/99
f 83/85/82 100/102/99 85/87/84
f 99/101/98 100/102/99 83/85/82
f 99/101/98 83/85/82 21/21/20
f 99/101/98 21/21/20 59/59/58
f 97/99/96 99/101/98 59/59/58
f 96/98/95 97/99/96 59/59/58
f 97/99/96 98/100/97 99/101/98
f 101/103/100 102/104/101 103/105/102
f 104/106/103 103/105/102 105/107/104
f 103/105/102 104/106/103 101/103/100
f 106/108/105 101/103/100 104/106/103
f 107/109/106 105/107/104 108/110/107
f 105/107/104 107/109/106 104/106/103
f 109/111/108 104/106/103 107/109/106
f 104/106/103 109/111/108 106/108/105
f 110/112/109 106/108/105 109/111/108
f 109/111/108 111/113/110 110/112/109
f 112/114/111 110/112/109 111/113/110
f 111/113/110 113/115/112 112/114/111
f 114/116/113 112/114/111 113/115/112
f 113/115/112 115/117/114 114/116/113
f 116/118/115 114/116/113 115/117/114
f 115/117/114 117/119/116 116/118/115
f 118/120/117 116/118/115 117/119/116
f 117/119/116 119/121/118 118/120/117
f 120/122/119 118/120/117 119/121/118
f 119/121/118 121/123/120 120/122/119
f 122/124/121 120/122/119 121/123/120
f 121/123/120 123/125/122 122/124/121
f 108/110/107 124/126/123 107/109/106
f 125/127/124 107/109/106 124/126/123
f 107/109/106 125/127/124 109/111/108
f 111/113/110 109/111/108 125/127/124
f 125/127/124 126/128/125 111/113/110
f 113/115/112 111/113/110 126/128/125
f 126/128/125 127/129/126 113/115/112
f 115/117/114 113/115/112 127/129/126
f 127/129/126 128/130/127 115/117/114
f 117/119/116 115/117/114 128/130/127
f 128/130/127 129/131/128 117/119/116
f 119/121/118 117/119/116 129/131/128
f 129/131/128 130/132/129 119/121/118
f 121/123/120 119/121/118 130/132/129
f 130/132/129 131/133/130 121/123/120
f 123/125/122 121/123/120 131/133/130
f 131/133/130 132/134/131 123/125/122
f 133/135/132 123/125/122 132/134/131
f 134/136/133 135/137/134 127/129/126
f 127/129/126 126/128/125 134/136/133
f 136/138/135 134/136/133 126/128/125
f 126/128/125 125/127/124 136/138/135
f 124/126/123 136/138/135 125/127/124
f 137/139/136 138/140/137 139/141/138
f 139/141/138 140/142/139 137/139/136
f 141/143/140 137/139/136 140/142/139
f 140/142/139 142/144/141 141/143/140
f 143/145/142 141/143/140 142/144/141
f 142/144/141 144/146/143 143/145/142
f 145/147/144 143/145/142 144/146/143
f 144/146/143 132/134/131 145/147/144
f 146/148/145 145/147/144 132/134/131
f 132/134/131 131/133/130 146/148/145
f 147/149/146 146/148/145 131/133/130
f 131/133/130 130/132/129 147/149/146
f 148/150/147 147/149/146 130/132/129
f 130/132/129 129/131/128 148/150/147
f 149/151/148 148/150/147 129/131/128
f 129/131/128 128/130/127 149/151/148
f 135/137/134 149/151/148 128/130/127
f 128/130/127 127/129/126 135/137/134
f 132/134/131 144/146/143 133/135/132
f 150/152/149 133/135/132 144/146/143
f 144/146/143 142/144/141 150/152/149
f 151/153/150 150/152/149 142/144/141
f 142/144/141 140/142/139 151/153/150
f 152/154/151 151/153/150 140/142/139
f 140/142/139 139/141/138 152/154/151
f 153/155/152 152/154/151 139/141/138
f 139/141/138 154/156/153 153/155/152
f 155/157/154 153/155/152 154/156/153
f 154/156/153 156/158/155 155/157/154
f 157/159/156 155/157/154 156/158/155
f 156/158/155 158/160/157 157/159/156
f 159/161/158 157/159/156 158/160/157
f 158/160/157 160/162/159 159/161/158
f 161/163/160 159/161/158 160/162/159
f 160/162/159 162/164/161 161/163/160
f 163/165/162 161/163/160 162/164/161
f 164/166/163 122/124/121 123/125/122
f 123/125/122 133/135/132 164/166/163
f 165/167/164 164/166/163 133/135/132
f 133/135/132 150/152/149 165/167/164
f 166/168/165 165/167/164 150/152/149
f 150/152/149 151/153/150 166/168/165
f 167/169/166 166/168/165 151/153/150
f 151/153/150 152/154/151 167/169/166
f 168/170/167 167/169/166 152/154/151
f 152/154/151 153/155/152 168/170/167
f 169/171/168 168/170/167 153/155/152
f 153/155/152 155/157/154 169/171/168
f 170/172/169 169/171/168 155/157/154
f 155/157/154 157/159/156 170/172/169
f 171/173/170 170/172/169 157/159/156
f 157/159/156 159/161/158 171/173/170
f 172/174/171 171/173/170 159/161/158
f 159/161/158 161/163/160 172/174/171
f 173/175/172 172/174/171 161/163/160
f 161/163/160 163/165/162 173/175/172
f 174/176/173 173/175/172 163/165/162
f 163/165/162 175/177/174 174/176/173
f 176/178/175 174/176/173 175/177/174
f 175/177/174 177/179/176 176/178/175
f 178/180/177 176/178/175 177/179/176
f 177/179/176 179/181/178 178/180/177
f 180/182/179 178/180/177 179/181/178
f 179/181/178 181/183/180 180/182/179
f 182/184/181 180/182/179 181/183/180
f 181/183/180 183/185/182 182/184/181
f 184/186/183 182/184/181 183/185/182
f 183/185/182 185/187/184 184/186/183
f 186/188/185 184/186/183 185/187/184
f 185/187/184 187/189/186 186/188/185
f 188/190/187 186/188/185 187/189/186
f 187/189/186 189/191/188 188/190/187
f 162/164/161 190/192/189 163/165/162
f 175/177/174 163/165/162 190/192/189
f 190/192/189 191/193/190 175/177/174
f 177/179/176 175/177/174 191/193/190
f 191/193/190 192/194/191 177/179/176
f 179/181/178 177/179/176 192/194/191
f 192/194/191 193/195/192 179/181/178
f 181/183/180 179/181/178 193/195/192
f 193/195/192 194/196/193 181/183/180
f 183/185/182 181/183/180 194/196/193
f 194/196/193 195/197/194 183/185/182
f 185/187/184 183/185/182 195/197/194
f 195/197/194 196/198/195 185/187/184
f 187/189/186 185/187/184 196/198/195
f 196/198/195 197/199/196 187/189/186
f 189/191/188 187/189/186 197/199/196
f 197/199/196 198/200/197 189/191/188
f 199/201/198 189/191/188 198/200/197
f 200/202/199 201/203/200 202/204/201
f 202/204/201 203/205/202 200/202/199
f 204/206/203 200/202/199 203/205/202
f 203/205/202 205/207/204 204/206/203
f 206/208/205 204/206/203 205/207/204
f 205/207/204 207/209/206 206/208/205
f 208/210/207 206/208/205 207/209/206
f 207/209/206 198/200/197 208/210/207
f 209/211/208 208/210/207 198/200/197
f 198/200/197 197/199/196 209/211/208
f 210/212/209 209/211/208 197/199/196
f 197/199/196 196/198/195 210/212/209
f 211/213/210 210/212/209 196/198/195
f 196/198/195 195/197/194 211/213/210
f 212/214/211 211/213/210 195/197/194
f 195/197/194 194/196/193 212/214/211
f 213/215/212 212/214/211 194/196/193
f 194/196/193 193/195/192 213/215/212
f 198/200/197 207/209/206 199/201/198
f 214/216/213 199/201/198 207/209/206
f 207/209/206 205/207/204 214/216/213
f 215/217/214 214/216/213 205/207/204
f 205/207/204 203/205/202 215/217/214
f 216/218/215 215/217/214 203/205/202
f 203/205/202 202/204/201 216/218/215
f 217/219/216 188/190/187 189/191/188
f 189/191/188 199/201/198 217/219/216
f 218/220/217 217/219/216 199/201/198
f 199/201/198 214/216/213 218/220/217
f 219/221/218 218/220/217 214/216/213
f 214/216/213 215/217/214 219/221/218
f 220/222/219 219/221/218 215/217/214
f 215/217/214 216/218/215 220/222/219
f 102/223/101 220/222/219 216/218/215
f 216/218/215 103/224/102 102/223/101
f 103/224/102 216/218/215 202/204/201
f 202/204/201 105/225/104 103/224/102
f 105/225/104 202/204/201 201/203/200
f 201/203/200 108/226/107 105/225/104
f 180/227/220 221/228/221 178/229/222
f 221/228/221 222/230/223 178/229/222
f 176/231/224 178/229/222 222/230/223
f 222/230/223 223/232/224 176/231/224
f 174/233/225 176/231/224 223/232/224
f 223/232/224 224/234/226 174/233/225
f 174/233/225 224/234/226 173/235/227
f 224/234/226 225/236/228 173/235/227
f 225/236/228 226/237/229 173/235/227
f 172/238/230 173/235/227 226/237/229
f 226/237/229 227/239/231 172/238/230
f 171/240/232 172/238/230 227/239/231
f 227/239/231 228/241/233 171/240/232
f 170/242/234 171/240/232 228/241/233
f 228/241/233 229/243/235 170/242/234
f 169/244/236 170/242/234 229/243/235
f 229/243/235 230/245/237 169/244/236
f 168/246/238 169/244/236 230/245/237
f 221/228/221 231/247/239 222/230/223
f 230/245/237 232/248/240 168/246/238
f 167/249/241 168/246/238 232/248/240
f 232/248/240 233/250/242 167/249/241
f 166/251/243 167/249/241 233/250/242
f 233/250/242 234/252/244 166/251/243
f 165/253/245 166/251/243 234/252/244
f 234/252/244 235/254/246 165/253/245
f 164/255/247 165/253/245 235/254/246
f 235/254/246 236/256/248 164/255/247
f 122/257/249 164/255/247 236/256/248
f 236/256/248 237/258/250 122/257/249
f 120/259/251 122/257/249 237/258/250
f 237/258/250 238/260/252 120/259/251
f 118/261/253 120/259/251 238/260/252
f 238/260/252 239/262/254 118/261/253
f 118/261/253 239/262/254 116/263/255
f 239/262/254 240/264/256 116/263/255
f 114/265/257 116/263/255 240/264/256
f 239/262/254 241/266/258 240/264/256
f 240/264/256 242/267/257 114/265/257
f 112/268/259 114/265/257 242/267/257
f 242/267/257 243/269/260 112/268/259
f 112/268/259 243/269/260 110/270/261
f 243/269/260 244/271/262 110/270/261
f 244/271/262 245/272/263 110/270/261
f 106/273/264 110/270/261 245/272/263
f 245/272/263 246/274/265 106/273/264
f 101/275/266 106/273/264 246/274/265
f 246/274/265 247/276/267 101/275/266
f 102/277/268 101/275/266 247/276/267
f 247/276/267 248/278/269 102/277/268
f 220/279/270 102/280/268 248/281/269
f 248/281/269 249/282/271 220/279/270
f 219/283/272 220/279/270 249/282/271
f 249/282/271 250/284/273 219/283/272
f 218/285/274 219/283/272 250/284/273
f 250/284/273 251/286/275 218/285/274
f 217/287/276 218/285/274 251/286/275
f 251/286/275 252/288/277 217/287/276
f 188/289/278 217/287/276 252/288/277
f 252/288/277 253/290/279 188/289/278
f 186/291/280 188/289/278 253/290/279
f 253/290/279 254/292/281 186/291/280
f 184/293/282 186/291/280 254/292/281
f 254/292/281 255/294/283 184/293/282
f 182/295/284 184/293/282 255/294/283
f 255/294/283 256/296/285 182/295/284
f 180/227/220 182/295/284 256/296/285
f 256/296/285 221/228/221 180/227/220
f 257/297/286 258/298/257 259/299/287
f 259/299/287 260/300/288 257/297/286
f 258/298/257 261/301/289 262/302/290
f 262/302/290 259/299/287 258/298/257
f 259/299/287 262/302/290 263/303/291
f 263/303/291 264/304/292 259/299/287
f 260/300/288 259/299/287 264/304/292
f 264/304/292 265/305/293 260/300/288
f 264/304/292 263/303/291 266/306/294
f 267/307/295 268/308/296 269/309/296
f 269/309/296 270/310/297 267/307/295
f 271/311/298 267/307/295 270/310/297
f 270/310/297 272/312/299 271/311/298
f 273/313/300 271/311/298 272/312/299
f 272/312/299 274/314/301 273/313/300
f 265/305/293 273/313/300 274/314/301
f 265/305/293 275/315/302 273/313/300
f 265/305/293 264/304/292 275/315/302
f 264/304/292 276/316/303 275/315/302
f 264/304/292 266/306/294 276/316/303
f 276/316/303 266/306/294 277/317/304
f 277/317/304 271/311/298 276/316/303
f 271/311/298 277/317/304 278/318/305
f 278/318/305 279/319/306 271/311/298
f 279/319/306 278/318/305 280/320/296
f 280/320/296 281/321/296 279/319/306
f 271/311/298 275/315/302 276/316/303
f 271/311/298 273/313/300 275/315/302
f 282/322/307 283/323/308 284/324/309
f 285/325/310 286/326/311 287/327/312
f 287/327/312 288/328/313 285/325/310
f 289/329/314 285/325/310 288/328/313
f 288/328/313 290/330/315 289/329/314
f 291/331/316 289/329/314 290/330/315
f 290/330/315 292/332/317 291/331/316
f 293/333/318 291/331/316 292/332/317
f 292/332/317 294/334/319 293/333/318
f 282/322/307 293/333/318 294/334/319
f 294/334/319 295/335/320 282/322/307
f 283/323/308 282/322/307 295/335/320
f 295/335/320 296/336/321 283/323/308
f 297/337/322 298/338/323 299/339/324
f 299/339/324 300/340/325 297/337/322
f 287/327/312 297/337/322 300/340/325
f 300/340/325 301/341/326 287/327/312
f 288/328/313 287/327/312 301/341/326
f 301/341/326 302/342/327 288/328/313
f 290/330/315 288/328/313 302/342/327
f 302/342/327 303/343/328 290/330/315
f 292/332/317 290/330/315 303/343/328
f 303/343/328 304/344/329 292/332/317
f 294/334/319 292/332/317 304/344/329
f 304/344/329 305/345/330 294/334/319
f 295/335/320 294/334/319 305/345/330
f 305/345/330 306/346/331 295/335/320
f 296/336/321 295/335/320 306/346/331
f 306/346/331 307/347/332 296/336/321
f 308/348/296 309/349/296 310/350/333
f 311/351/334 310/350/333 309/349/296
f 309/349/296 312/352/296 311/351/334
f 313/353/335 311/351/334 312/352/296
f 312/352/296 314/354/296 313/353/335
f 315/355/336 313/353/335 314/354/296
f 314/354/296 316/356/296 315/355/336
f 299/339/324 315/355/336 316/356/296
f 316/356/296 317/357/296 299/339/324
f 300/340/325 299/339/324 317/357/296
f 317/357/296 318/358/296 300/340/325
f 301/341/326 300/340/325 318/358/296
f 318/358/296 319/359/296 301/341/326
f 302/342/327 301/341/326 319/359/296
f 319/359/296 320/360/296 302/342/327
f 303/343/328 302/342/327 320/360/296
f 320/360/296 321/361/296 303/343/328
f 304/344/329 303/343/328 321/361/296
f 317/357/296 316/356/296 314/354/296
f 321/361/296 320/360/296 319/359/296
f 319/359/296 318/358/296 317/357/296
f 321/361/296 319/359/296 317/357/296
f 321/361/296 317/357/296 322/362/296
f 323/363/296 321/361/296 322/362/296
f 323/363/296 324/364/296 321/361/296
f 325/365/296 323/363/296 322/362/296
f 321/361/296 324/364/296 304/344/329
f 305/345/330 304/344/329 324/364/296
f 324/364/296 323/363/296 305/345/330
f 306/346/331 305/345/330 323/363/296
f 323/363/296 325/365/296 306/346/331
f 307/347/332 306/346/331 325/365/296
f 307/347/332 325/365/296 326/366/296
f 325/365/296 322/362/296 326/366/296
f 327/367/296 326/366/296 322/362/296
f 322/362/296 328/368/296 327/367/296
f 329/369/296 327/367/296 328/368/296
f 328/368/296 330/370/296 329/369/296
f 331/371/337 329/369/296 330/370/296
f 331/371/337 330/370/296 332/372/296
f 333/373/338 331/371/337 332/372/296
f 332/372/296 334/374/296 333/373/338
f 335/375/339 333/373/338 334/374/296
f 334/374/296 336/376/296 335/375/339
f 330/370/296 328/368/296 322/362/296
f 334/374/296 330/370/296 322/362/296
f 334/374/296 332/372/296 330/370/296
f 337/377/340 335/375/339 336/376/296
f 336/376/296 338/378/296 337/377/340
f 338/378/296 336/376/296 334/374/296
f 339/379/296 338/378/296 334/374/296
f 339/379/296 334/374/296 322/362/296
f 340/380/296 339/379/296 322/362/296
f 317/357/296 340/380/296 322/362/296
f 317/357/296 309/349/296 340/380/296
f 317/357/296 314/354/296 309/349/296
f 314/354/296 312/352/296 309/349/296
f 339/379/296 341/381/296 338/378/296
f 342/382/296 343/383/296 340/380/296
f 309/349/296 342/382/296 340/380/296
f 309/349/296 308/348/296 342/382/296
f 340/380/296 344/384/296 339/379/296
f 344/384/296 345/385/296 339/379/296
f 345/385/296 346/386/296 339/379/296
f 346/386/296 345/385/296 347/387/341
f 347/387/341 348/388/342 346/386/296
f 339/379/296 346/386/296 348/388/342
f 348/388/342 349/389/343 339/379/296
f 341/381/296 339/379/296 349/389/343
f 349/389/343 350/390/344 341/381/296
f 338/378/296 341/381/296 350/390/344
f 350/390/344 337/391/340 338/378/296
f 337/391/340 350/390/344 351/392/345
f 351/392/345 352/393/346 337/391/340
f 350/390/344 349/389/343 353/394/347
f 353/394/347 351/392/345 350/390/344
f 344/384/296 354/395/296 345/385/296
f 355/396/296 356/397/296 344/384/296
f 356/397/296 355/396/296 357/398/348
f 357/398/348 358/399/349 356/397/296
f 344/384/296 356/397/296 358/399/349
f 358/399/349 359/400/350 344/384/296
f 354/395/296 344/384/296 359/400/350
f 359/400/350 360/401/351 354/395/296
f 345/385/296 354/395/296 360/401/351
f 360/401/351 347/387/341 345/385/296
f 361/402/352 353/394/347 349/389/343
f 349/389/343 348/388/342 361/402/352
f 362/403/353 361/402/352 348/388/342
f 348/388/342 347/387/341 362/403/353
f 363/404/354 362/403/353 347/387/341
f 347/387/341 360/401/351 363/404/354
f 364/405/355 363/404/354 360/401/351
f 360/401/351 359/400/350 364/405/355
f 365/406/356 364/405/355 359/400/350
f 359/400/350 358/399/349 365/406/356
f 366/407/357 365/406/356 358/399/349
f 358/399/349 357/398/348 366/407/357
f 367/408/358 366/407/357 357/398/348
f 357/398/348 368/409/359 367/408/358
f 368/409/359 357/398/348 355/396/296
f 355/396/296 369/410/296 368/409/359
f 340/380/296 369/410/296 355/396/296
f 340/380/296 355/396/296 344/384/296
f 370/411/360 371/412/361 365/406/356
f 365/406/356 366/407/357 370/411/360
f 372/413/362 370/411/360 366/407/357
f 366/407/357 367/408/358 372/413/362
f 373/414/363 372/413/362 367/408/358
f 367/408/358 374/415/364 373/414/363
f 374/415/364 367/408/358 368/409/359
f 368/409/359 375/416/365 374/415/364
f 375/416/365 368/409/359 369/410/296
f 375/416/365 369/410/296 376/417/296
f 369/410/296 340/380/296 376/417/296
f 377/418/296 376/417/296 340/380/296
f 340/380/296 343/383/296 377/418/296
f 378/419/296 377/418/296 343/383/296
f 343/383/296 342/382/296 378/419/296
f 379/420/366 378/419/296 342/382/296
f 379/420/366 342/382/296 308/348/296
f 310/350/333 379/420/366 308/348/296
f 379/420/366 380/421/367 378/419/296
f 250/422/273 249/423/271 381/424/368
f 381/424/368 382/425/369 250/422/273
f 382/425/369 381/424/368 383/426/370
f 383/426/370 384/427/371 382/425/369
f 385/428/372 382/425/369 384/427/371
f 384/427/371 386/429/373 385/428/372
f 387/430/374 385/428/372 386/429/373
f 386/429/373 388/431/375 387/430/374
f 389/432/376 387/430/374 388/431/375
f 388/431/375 390/433/377 389/432/376
f 391/434/378 389/432/376 390/433/377
f 390/433/377 392/435/379 391/434/378
f 393/436/380 391/434/378 392/435/379
f 392/435/379 371/412/361 393/436/380
f 394/437/381 393/436/380 371/412/361
f 371/412/361 370/411/360 394/437/381
f 395/438/382 394/437/381 370/411/360
f 370/411/360 372/413/362 395/438/382
f 396/439/383 395/438/382 372/413/362
f 372/413/362 373/414/363 396/439/383
f 251/440/275 250/422/273 382/425/369
f 382/425/369 385/428/372 251/440/275
f 252/441/277 251/440/275 385/428/372
f 385/428/372 387/430/374 252/441/277
f 253/442/279 252/441/277 387/430/374
f 387/430/374 389/432/376 253/442/279
f 254/443/281 253/442/279 389/432/376
f 389/432/376 391/434/378 254/443/281
f 255/444/283 254/443/281 391/434/378
f 391/434/378 393/436/380 255/444/283
f 256/445/285 255/444/283 393/436/380
f 393/436/380 394/437/381 256/445/285
f 221/446/221 256/445/285 394/437/381
f 394/437/381 395/438/382 221/446/221
f 231/447/239 221/446/221 395/438/382
f 395/438/382 396/439/383 231/447/239
f 397/448/384 398/449/296 399/450/296
f 399/450/296 400/451/385 397/448/384
f 401/452/386 397/448/384 400/451/385
f 400/451/385 402/453/387 401/452/386
f 401/452/386 403/454/388 404/455/389
f 401/452/386 405/456/390 403/454/388
f 405/456/390 401/452/386 402/453/387
f 402/453/387 406/457/391 405/456/390
f 407/458/392 405/456/390 406/457/391
f 407/458/392 403/454/388 405/456/390
f 407/458/392 408/459/393 403/454/388
f 408/459/393 404/455/389 403/454/388
f 408/459/393 409/460/394 404/455/389
f 404/455/389 409/460/394 410/461/395
f 410/461/395 401/452/386 404/455/389
f 401/452/386 410/461/395 411/462/396
f 411/462/396 412/463/397 401/452/386
f 412/463/397 411/462/396 413/464/296
f 413/464/296 414/465/296 412/463/397
f 408/459/393 407/458/392 415/466/398
f 408/459/393 416/467/399 409/460/394
f 416/467/399 408/459/393 417/468/400
f 415/466/398 417/468/400 408/459/393
f 417/468/400 415/466/398 418/469/401
f 418/469/401 419/470/224 417/468/400
f 420/471/402 417/468/400 419/470/224
f 419/470/224 421/472/403 420/471/402
f 417/468/400 420/471/402 416/467/399
f 245/473/263 244/474/262 422/475/404
f 423/476/405 422/475/404 424/477/406
f 422/475/404 423/476/405 245/473/263
f 246/478/265 245/473/263 423/476/405
f 425/479/407 424/477/406 426/480/408
f 424/477/406 425/479/407 423/476/405
f 427/481/409 423/476/405 425/479/407
f 423/476/405 427/481/409 246/478/265
f 247/482/267 246/478/265 427/481/409
f 331/371/337 428/483/410 329/369/296
f 428/483/410 331/371/337 429/484/411
f 429/484/411 426/480/408 428/483/410
f 426/480/408 429/484/411 425/479/407
f 430/485/412 425/479/407 429/484/411
f 425/479/407 430/485/412 427/481/409
f 431/486/413 427/481/409 430/485/412
f 427/481/409 431/486/413 247/482/267
f 248/487/269 247/482/267 431/486/413
f 431/486/413 432/488/414 248/487/269
f 432/488/414 431/486/413 433/489/415
f 430/485/412 433/489/415 431/486/413
f 433/489/415 430/485/412 434/490/416
f 429/484/411 434/490/416 430/485/412
f 434/490/416 429/484/411 331/371/337
f 331/371/337 333/373/338 434/490/416
f 435/491/417 434/490/416 333/373/338
f 333/373/338 335/375/339 435/491/417
f 352/492/346 435/491/417 335/375/339
f 335/375/339 337/377/340 352/492/346
f 434/490/416 435/491/417 433/489/415
f 436/493/418 433/489/415 435/491/417
f 435/491/417 352/492/346 436/493/418
f 433/489/415 436/493/418 432/488/414
f 437/494/419 438/495/3 439/496/420
f 439/496/420 440/497/421 437/494/419
f 441/498/422 440/497/421 439/496/420
f 439/496/420 442/499/422 441/498/422
f 439/496/420 443/500/249 442/499/422
f 439/496/420 444/501/423 443/500/249
f 444/501/423 439/496/420 445/502/424
f 445/502/424 446/503/423 444/501/423
f 447/504/425 445/502/424 439/496/420
f 439/496/420 448/505/2 447/504/425
f 449/506/296 450/507/296 451/508/426
f 451/508/426 452/509/427 449/506/296
f 452/509/427 451/508/426 453/510/428
f 454/511/429 452/509/427 453/510/428
f 449/506/296 452/509/427 454/511/429
f 454/511/429 455/512/296 449/506/296
f 456/513/430 457/514/431 458/515/431
f 458/515/431 459/516/430 456/513/430
f 457/514/432 460/517/433 461/518/432
f 461/518/432 458/515/432 457/514/432
f 4/4/434 1/1/435 439/496/435
f 439/496/435 438/495/434 4/4/434
f 1/1/436 3/3/437 448/505/437
f 448/505/437 439/496/436 1/1/436
f 454/511/438 453/510/439 271/311/439
f 271/311/439 279/319/440 454/511/438
f 455/512/441 454/511/438 279/319/440
f 279/319/440 281/321/441 455/512/441
f 451/508/442 450/507/443 268/308/443
f 268/308/443 267/307/444 451/508/442
f 453/510/445 451/508/442 267/307/444
f 267/307/444 271/311/445 453/510/445
f 449/506/446 455/512/447 281/321/447
f 281/321/447 462/519/446 449/506/446
f 450/507/448 449/506/446 462/519/446
f 462/519/446 268/308/449 450/507/448
f 463/520/450 464/521/451 401/452/451
f 401/452/451 412/463/452 463/520/450
f 465/522/453 463/520/450 412/463/452
f 412/463/452 414/465/453 465/522/453
f 466/523/454 467/524/455 398/449/455
f 398/449/455 397/448/456 466/523/454
f 464/521/457 466/523/454 397/448/456
f 397/448/456 401/452/457 464/521/457
f 468/525/458 465/522/459 414/465/459
f 414/465/459 469/526/458 468/525/458
f 467/524/460 468/525/458 469/526/458
f 469/526/458 398/449/460 467/524/460
f 457/514/461 470/527/461 460/517/462
f 457/514/461 456/513/463 470/527/461
f 258/298/464 257/297/465 243/528/465
f 243/528/465 242/529/464 258/298/464
f 261/301/466 258/298/464 242/529/464
f 242/529/464 240/530/466 261/301/466
f 420/471/467 421/472/468 222/531/468
f 222/531/468 231/532/469 420/471/467
f 416/467/470 420/471/467 231/532/469
f 231/532/469 396/533/471 416/467/470
f 409/460/472 416/467/470 396/533/471
f 396/533/471 373/534/473 409/460/472
f 410/461/474 409/460/472 373/534/473
f 373/534/473 374/535/475 410/461/474
f 411/462/476 410/461/474 374/535/475
f 374/535/475 375/536/477 411/462/476
f 413/464/478 411/462/476 375/536/477
f 375/536/477 376/537/479 413/464/478
f 419/470/480 418/469/481 224/538/481
f 224/538/481 223/539/480 419/470/480
f 421/472/482 419/470/480 223/539/480
f 223/539/480 222/540/482 421/472/482
f 400/451/483 399/450/484 378/541/484
f 378/541/484 380/542/485 400/451/483
f 402/453/486 400/451/483 380/542/485
f 380/542/485 471/543/487 402/453/486
f 406/457/488 402/453/486 471/543/487
f 471/543/487 472/544/489 406/457/488
f 407/458/490 406/457/488 472/544/489
f 472/544/489 473/545/491 407/458/490
f 415/466/492 407/458/490 473/545/491
f 473/545/491 225/546/493 415/466/492
f 418/469/494 415/466/492 225/546/493
f 225/546/493 224/547/494 418/469/494
f 474/548/495 475/549/496 9/550/496
f 9/550/496 476/551/497 474/548/495
f 477/552/498 474/548/495 476/551/497
f 476/551/497 478/553/498 477/552/498
f 470/527/499 456/513/500 459/516/501
f 459/516/501 479/554/502 470/527/499
f 460/517/503 470/527/499 479/554/502
f 479/554/502 461/518/504 460/517/503
f 57/555/505 459/516/501 480/556/505
f 57/555/505 479/554/502 459/516/501
f 57/555/505 58/557/506 479/554/502
f 58/557/506 461/518/504 479/554/502
f 58/557/506 475/549/507 461/518/504
f 58/557/506 9/558/507 475/549/507
f 468/525/296 467/524/296 466/523/508
f 466/523/508 481/559/509 468/525/296
f 481/559/509 466/523/508 464/521/510
f 463/520/511 481/559/509 464/521/510
f 468/525/296 481/559/509 463/520/511
f 463/520/511 465/522/296 468/525/296
f 482/560/512 483/561/513 484/562/513
f 484/562/513 485/563/514 482/560/512
f 480/556/515 482/560/512 485/563/514
f 485/563/514 57/564/515 480/556/515
f 2/2/516 4/4/517 438/495/518
f 438/495/518 486/565/519 2/2/516
f 3/3/520 2/2/516 486/565/519
f 486/565/519 448/505/521 3/3/520
f 72/566/522 438/495/518 437/494/522
f 72/566/522 486/565/519 438/495/518
f 72/566/522 71/567/523 486/565/519
f 71/567/523 448/505/521 486/565/519
f 71/567/523 447/504/524 448/505/521
f 71/567/523 73/568/524 447/504/524
f 376/569/525 414/465/526 413/464/525
f 376/569/525 469/526/527 414/465/526
f 376/569/525 377/570/527 469/526/527
f 377/570/527 398/449/528 469/526/527
f 377/570/527 399/450/528 398/449/528
f 377/570/527 378/571/528 399/450/528
f 440/497/529 441/498/498 487/572/498
f 487/572/498 488/573/530 440/497/529
f 437/494/531 440/497/529 488/573/530
f 488/573/530 72/574/531 437/494/531
f 445/502/532 447/504/533 73/575/533
f 73/575/533 489/576/534 445/502/532
f 446/503/513 445/502/532 489/576/534
f 489/576/534 490/577/513 446/503/513
f 93/578/535 72/579/536 488/580/537
f 488/580/537 491/581/538 93/578/535
f 91/582/539 93/578/535 491/581/538
f 491/581/538 492/583/540 91/582/539
f 89/584/541 91/582/539 492/583/540
f 492/583/540 493/585/542 89/584/541
f 87/586/543 89/584/541 493/585/542
f 493/585/542 494/587/544 87/586/543
f 86/588/545 87/586/543 494/587/544
f 494/587/544 495/589/546 86/588/545
f 95/590/547 86/588/545 495/589/546
f 495/589/546 496/591/548 95/590/547
f 80/592/549 95/590/547 496/591/548
f 496/591/548 497/593/550 80/592/549
f 18/594/551 80/592/549 497/593/550
f 497/593/550 498/595/552 18/594/551
f 499/596/268 498/595/552 497/593/550
f 497/593/550 500/597/266 499/596/268
f 488/580/537 487/598/553 501/599/253
f 501/599/253 491/581/538 488/580/537
f 491/581/538 501/599/253 502/600/255
f 502/600/255 492/583/540 491/581/538
f 492/583/540 502/600/255 503/601/257
f 503/601/257 493/585/542 492/583/540
f 493/585/542 503/601/257 504/602/259
f 504/602/259 494/587/544 493/585/542
f 494/587/544 504/602/259 505/603/261
f 505/603/261 495/589/546 494/587/544
f 495/589/546 505/603/261 506/604/264
f 506/604/264 496/591/548 495/589/546
f 496/591/548 506/604/264 500/597/266
f 500/597/266 497/593/550 496/591/548
f 478/605/554 507/606/554 477/552/554
f 478/605/554 508/607/555 507/606/554
f 478/605/554 509/608/555 508/607/555
f 509/608/555 510/609/556 508/607/555
f 509/608/555 483/561/556 510/609/556
f 509/608/555 484/610/556 483/561/556
f 16/611/557 18/612/551 498/613/552
f 498/613/552 511/614/558 16/611/557
f 14/615/559 16/611/557 511/614/558
f 511/614/558 512/616/560 14/615/559
f 13/617/561 14/615/559 512/616/560
f 512/616/560 513/618/562 13/617/561
f 12/619/563 13/617/561 513/618/562
f 513/618/562 514/620/564 12/619/563
f 8/621/565 12/619/563 514/620/564
f 514/620/564 515/622/566 8/621/565
f 9/623/567 8/621/565 515/622/566
f 515/622/566 476/624/568 9/623/567
f 478/625/569 476/624/568 515/622/566
f 515/622/566 516/626/278 478/625/569
f 498/613/552 499/627/268 517/628/270
f 517/628/270 511/614/558 498/613/552
f 511/614/558 517/628/270 518/629/272
f 518/629/272 512/616/560 511/614/558
f 512/616/560 518/629/272 519/630/274
f 519/630/274 513/618/562 512/616/560
f 513/618/562 519/630/274 520/631/276
f 520/631/276 514/620/564 513/618/562
f 514/620/564 520/631/276 516/626/278
f 516/626/278 515/622/566 514/620/564
f 490/632/570 444/501/570 446/503/570
f 490/632/570 443/500/571 444/501/570
f 490/632/570 521/633/571 443/500/571
f 521/633/571 442/499/572 443/500/571
f 521/633/571 441/498/573 442/499/572
f 521/633/571 487/634/573 441/498/573
f 475/549/574 474/548/575 458/515/576
f 458/515/576 461/518/462 475/549/574
f 480/556/577 459/516/463 458/515/576
f 458/515/576 482/560/578 480/556/577
f 483/561/579 482/560/578 458/515/576
f 458/515/576 510/609/579 483/561/579
f 458/515/576 508/607/282 510/609/579
f 458/515/576 507/606/580 508/607/282
f 507/606/580 458/515/576 474/548/575
f 474/548/575 477/552/580 507/606/580
f 244/635/581 243/636/274 257/297/274
f 257/297/274 260/300/582 244/635/581
f 422/637/583 244/635/581 260/300/582
f 260/300/582 265/305/584 422/637/583
f 424/638/585 422/637/583 265/305/584
f 265/305/584 274/314/586 424/638/585
f 426/639/587 424/638/585 274/314/586
f 274/314/586 272/312/588 426/639/587
f 428/640/589 426/639/587 272/312/588
f 272/312/588 270/310/590 428/640/589
f 329/641/591 428/640/589 270/310/590
f 270/310/590 269/309/591 329/641/591
f 326/642/592 281/321/593 280/320/592
f 326/642/592 462/519/594 281/321/593
f 326/642/592 327/643/594 462/519/594
f 327/643/594 268/308/595 462/519/594
f 327/643/594 269/309/596 268/308/595
f 327/643/594 329/644/596 269/309/596
f 229/645/235 228/646/233 522/647/597
f 522/647/597 523/648/598 229/645/235
f 230/649/237 229/645/235 523/648/598
f 523/648/598 524/650/599 230/649/237
f 232/651/240 230/649/237 524/650/599
f 524/650/599 525/652/600 232/651/240
f 233/653/242 232/651/240 525/652/600
f 525/652/600 526/654/601 233/653/242
f 234/655/244 233/653/242 526/654/601
f 526/654/601 527/656/602 234/655/244
f 235/657/246 234/655/244 527/656/602
f 527/656/602 528/658/603 235/657/246
f 236/659/248 235/657/246 528/658/603
f 528/658/603 529/660/604 236/659/248
f 237/661/250 236/659/248 529/660/604
f 529/660/604 530/662/605 237/661/250
f 238/663/252 237/661/250 530/662/605
f 530/662/605 531/664/606 238/663/252
f 239/665/254 238/663/252 531/664/606
f 531/664/606 532/666/607 239/665/254
f 241/667/258 239/665/254 532/666/607
f 532/666/607 284/324/309 241/667/258
f 284/324/309 532/666/607 282/322/307
f 293/333/318 282/322/307 532/666/607
f 532/666/607 531/664/606 293/333/318
f 291/331/316 293/333/318 531/664/606
f 531/664/606 530/662/605 291/331/316
f 289/329/314 291/331/316 530/662/605
f 530/662/605 529/660/604 289/329/314
f 285/325/310 289/329/314 529/660/604
f 529/660/604 528/658/603 285/325/310
f 286/326/311 285/325/310 528/658/603
f 528/658/603 527/656/602 286/326/311
f 533/668/608 286/326/311 527/656/602
f 527/656/602 526/654/601 533/668/608
f 534/669/609 533/668/608 526/654/601
f 526/654/601 525/652/600 534/669/609
f 535/670/610 534/669/609 525/652/600
f 525/652/600 524/650/599 535/670/610
f 227/671/231 226/672/229 536/673/611
f 536/673/611 537/674/612 227/671/231
f 537/674/612 536/673/611 538/675/613
f 538/675/613 539/676/614 537/674/612
f 539/676/614 538/675/613 540/677/615
f 540/677/615 541/678/616 539/676/614
f 542/679/617 539/676/614 541/678/616
f 541/678/616 543/680/618 542/679/617
f 544/681/619 542/679/617 543/680/618
f 543/680/618 545/682/620 544/681/619
f 535/670/610 544/681/619 545/682/620
f 545/682/620 546/683/621 535/670/610
f 534/669/609 535/670/610 546/683/621
f 546/683/621 298/338/323 534/669/609
f 533/668/608 534/669/609 298/338/323
f 298/338/323 297/337/322 533/668/608
f 286/326/311 533/668/608 297/337/322
f 297/337/322 287/327/312 286/326/311
f 226/672/229 225/684/228 473/685/622
f 473/685/622 536/673/611 226/672/229
f 536/673/611 473/685/622 472/686/623
f 472/686/623 538/675/613 536/673/611
f 538/675/613 472/686/623 471/687/624
f 471/687/624 540/677/615 538/675/613
f 540/677/615 471/687/624 380/421/367
f 380/421/367 379/420/366 540/677/615
f 541/678/616 540/677/615 379/420/366
f 379/420/366 310/350/333 541/678/616
f 543/680/618 541/678/616 310/350/333
f 310/350/333 311/351/334 543/680/618
f 545/682/620 543/680/618 311/351/334
f 311/351/334 313/353/335 545/682/620
f 546/683/621 545/682/620 313/353/335
f 313/353/335 315/355/336 546/683/621
f 298/338/323 546/683/621 315/355/336
f 315/355/336 299/339/324 298/338/323
f 544/681/619 535/670/610 524/650/599
f 524/650/599 523/648/598 544/681/619
f 542/679/617 544/681/619 523/648/598
f 523/648/598 522/647/597 542/679/617
f 539/676/614 542/679/617 522/647/597
f 522/647/597 537/674/612 539/676/614
f 537/674/612 522/647/597 228/646/233
f 228/646/233 227/671/231 537/674/612
f 547/688/625 548/689/236 549/690/238
f 549/690/238 550/691/626 547/688/625
f 550/691/626 549/690/238 551/692/241
f 551/692/241 552/693/627 550/691/626
f 552/693/627 551/692/241 553/694/243
f 553/694/243 554/695/628 552/693/627
f 554/695/628 553/694/243 555/696/245
f 555/696/245 556/697/629 554/695/628
f 556/697/629 555/696/245 490/698/630
f 490/698/630 489/699/631 556/697/629
f 556/697/629 489/699/631 73/700/632
f 73/700/632 74/701/633 556/697/629
f 554/695/628 556/697/629 74/701/633
f 74/701/633 75/702/634 554/695/628
f 552/693/627 554/695/628 75/702/634
f 75/702/634 76/703/635 552/693/627
f 550/691/626 552/693/627 76/703/635
f 76/703/635 77/704/636 550/691/626
f 547/688/625 550/691/626 77/704/636
f 77/704/636 78/705/637 547/688/625
f 557/706/638 547/688/625 78/705/637
f 78/705/637 79/707/639 557/706/638
f 558/708/640 557/706/638 79/707/639
f 79/707/639 51/709/641 558/708/640
f 485/710/642 484/711/643 559/712/220
f 559/712/220 560/713/644 485/710/642
f 560/713/644 559/712/220 561/714/222
f 561/714/222 562/715/645 560/713/644
f 562/715/645 561/714/222 563/716/224
f 563/716/224 564/717/646 562/715/645
f 564/717/646 563/716/224 565/718/225
f 565/718/225 566/719/647 564/717/646
f 566/719/647 565/718/225 567/720/227
f 567/720/227 568/721/648 566/719/647
f 568/721/648 567/720/227 569/722/230
f 569/722/230 570/723/649 568/721/648
f 570/723/649 569/722/230 571/724/232
f 571/724/232 558/708/640 570/723/649
f 558/708/640 571/724/232 572/725/234
f 572/725/234 557/706/638 558/708/640
f 557/706/638 572/725/234 548/689/236
f 548/689/236 547/688/625 557/706/638
f 570/723/649 558/708/640 51/709/641
f 51/709/641 50/726/650 570/723/649
f 568/721/648 570/723/649 50/726/650
f 50/726/650 52/727/651 568/721/648
f 566/719/647 568/721/648 52/727/651
f 52/727/651 53/728/652 566/719/647
f 564/717/646 566/719/647 53/728/652
f 53/728/652 54/729/653 564/717/646
f 562/715/645 564/717/646 54/729/653
f 54/729/653 55/730/654 562/715/645
f 560/713/644 562/715/645 55/730/654
f 55/730/654 56/731/655 560/713/644
f 485/710/642 560/713/644 56/731/655
f 56/731/655 57/732/656 485/710/642
f 249/423/271 248/733/269 432/734/414
f 432/734/414 381/424/368 249/423/271
f 381/424/368 432/734/414 436/735/418
f 436/735/418 383/426/370 381/424/368
f 383/426/370 436/735/418 352/393/346
f 352/393/346 351/392/345 383/426/370
f 384/427/371 383/426/370 351/392/345
f 351/392/345 353/394/347 384/427/371
f 386/429/373 384/427/371 353/394/347
f 353/394/347 361/402/352 386/429/373
f 388/431/375 386/429/373 361/402/352
f 361/402/352 362/403/353 388/431/375
f 390/433/377 388/431/375 362/403/353
f 362/403/353 363/404/354 390/433/377
f 392/435/379 390/433/377 363/404/354
f 363/404/354 364/405/355 392/435/379
f 371/412/361 392/435/379 364/405/355
f 364/405/355 365/406/356 371/412/361
f 262/302/657 261/301/241 240/736/241
f 240/736/241 241/737/658 262/302/657
f 263/303/659 262/302/657 241/737/658
f 241/737/658 284/738/660 263/303/659
f 266/306/661 263/303/659 284/738/660
f 284/738/660 283/739/662 266/306/661
f 277/317/663 266/306/661 283/739/662
f 283/739/662 296/740/664 277/317/663
f 278/318/665 277/317/663 296/740/664
f 296/740/664 307/741/666 278/318/665
f 280/320/667 278/318/665 307/741/666
f 307/741/666 326/742/667 280/320/667
f 573/743/668 213/215/212 193/195/192
f 193/195/192 192/194/191 573/743/668
f 574/744/669 573/743/668 192/194/191
f 192/194/191 191/193/190 574/744/669
f 575/745/670 574/744/669 191/193/190
f 191/193/190 190/192/189 575/745/670
f 576/746/671 575/745/670 190/192/189
f 190/192/189 162/164/161 576/746/671
f 577/747/672 576/746/671 162/164/161
f 162/164/161 160/162/159 577/747/672
f 578/748/673 577/747/672 160/162/159
f 160/162/159 158/160/157 578/748/673
f 579/749/674 578/748/673 158/160/157
f 158/160/157 156/158/155 579/749/674
f 580/750/675 579/749/674 156/158/155
f 156/158/155 154/156/153 580/750/675
f 138/140/137 580/750/675 154/156/153
f 154/156/153 139/141/138 138/140/137
f 504/751/259 503/752/257 149/151/257
f 149/151/257 135/137/259 504/751/259
f 505/753/261 504/751/259 135/137/259
f 135/137/259 134/136/261 505/753/261
f 506/754/264 505/753/261 134/136/261
f 134/136/261 136/138/264 506/754/264
f 500/755/266 506/754/264 136/138/264
f 136/138/264 124/126/266 500/755/266
f 499/756/268 500/755/266 124/126/266
f 124/126/266 108/110/268 499/756/268
f 551/757/241 549/758/238 580/750/238
f 580/750/238 138/140/241 551/757/241
f 553/759/243 551/757/241 138/140/241
f 138/140/241 137/139/243 553/759/243
f 555/760/245 553/759/243 137/139/243
f 137/139/243 141/143/245 555/760/245
f 490/761/630 555/760/245 141/143/245
f 141/143/245 143/145/247 490/761/630
f 521/762/249 490/761/630 143/145/247
f 143/145/247 145/147/249 521/762/249
f 487/763/553 521/762/249 145/147/249
f 145/147/249 146/148/251 487/763/553
f 501/764/253 487/763/553 146/148/251
f 146/148/251 147/149/253 501/764/253
f 502/765/255 501/764/253 147/149/253
f 147/149/253 148/150/255 502/765/255
f 503/752/257 502/765/255 148/150/255
f 148/150/255 149/151/257 503/752/257
f 561/766/222 559/767/220 212/214/220
f 212/214/220 213/215/222 561/766/222
f 563/768/224 561/766/222 213/215/222
f 213/215/222 573/743/224 563/768/224
f 565/769/225 563/768/224 573/743/224
f 573/743/224 574/744/225 565/769/225
f 567/770/227 565/769/225 574/744/225
f 574/744/225 575/745/227 567/770/227
f 569/771/230 567/770/227 575/745/227
f 575/745/227 576/746/230 569/771/230
f 571/772/232 569/771/230 576/746/230
f 576/746/230 577/747/232 571/772/232
f 572/773/234 571/772/232 577/747/232
f 577/747/232 578/748/234 572/773/234
f 548/774/236 572/773/234 578/748/234
f 578/748/234 579/749/236 548/774/236
f 549/758/238 548/774/236 579/749/236
f 579/749/236 580/750/238 549/758/238
f 517/775/270 499/776/268 108/226/268
f 108/226/268 201/203/270 517/775/270
f 518/777/272 517/775/270 201/203/270
f 201/203/270 200/202/272 518/777/272
f 519/778/274 518/777/272 200/202/272
f 200/202/272 204/206/274 519/778/274
f 520/779/276 519/778/274 204/206/274
f 204/206/274 206/208/276 520/779/276
f 516/780/278 520/779/276 206/208/276
f 206/208/276 208/210/278 516/780/278
f 478/781/569 516/780/278 208/210/278
f 208/210/278 209/211/280 478/781/569
f 509/782/282 478/781/569 209/211/280
f 209/211/280 210/212/282 509/782/282
f 484/783/643 509/782/282 210/212/282
f 210/212/282 211/213/284 484/783/643
f 559/767/220 484/783/643 211/213/284
f 211/213/284 212/214/220 559/767/220
