# Blender 4.5.10 LTS
# www.blender.org
mtllib model_0.mtl
o model_0
v 0.011284 0.110043 -0.027238
v 0.016378 0.110043 -0.024519
v 0.011441 0.018638 -0.027619
v 0.016618 0.018638 -0.024872
v 0.020855 0.110043 -0.020847
v 0.021150 0.018638 -0.021146
v 0.024522 0.110043 -0.016387
v 0.024872 0.018638 -0.016604
v 0.027239 0.110043 -0.011273
v 0.027635 0.018638 -0.011437
v 0.028925 0.110043 -0.005752
v 0.029330 0.018638 -0.005834
v 0.029487 0.110043 -0.000014
v 0.029910 0.018638 -0.000014
v 0.028925 0.110043 0.005752
v 0.029330 0.018638 0.005834
v 0.027239 0.110043 0.011273
v 0.027635 0.018638 0.011437
v 0.024522 0.110043 0.016386
v 0.024872 0.018638 0.016604
v 0.020855 0.110043 0.020847
v 0.021150 0.018638 0.021146
v 0.016378 0.110043 0.024518
v 0.016618 0.018638 0.024872
v 0.011284 0.110043 0.027238
v 0.011441 0.018638 0.027619
v 0.016747 0.018638 -0.025063
v 0.021012 0.110043 -0.021010
v 0.021316 0.018638 -0.021309
v 0.024715 0.110043 -0.016523
v 0.025065 0.018638 -0.016740
v 0.027460 0.110043 -0.011382
v 0.027847 0.018638 -0.011545
v 0.029146 0.110043 -0.005807
v 0.029560 0.018638 -0.005888
v 0.029717 0.110043 -0.000014
v 0.030141 0.018638 -0.000014
v 0.029146 0.110043 0.005807
v 0.029560 0.018638 0.005888
v 0.027460 0.110043 0.011382
v 0.027847 0.018638 0.011545
v 0.024715 0.110043 0.016522
v 0.025065 0.018638 0.016740
v 0.021012 0.110043 0.021010
v 0.021316 0.018638 0.021309
v 0.016507 0.110043 0.024709
v 0.016747 0.018638 0.025062
v 0.011395 0.110043 0.027456
v 0.011552 0.018638 0.027837
v 0.016507 0.110043 -0.024709
v 0.011552 0.018638 -0.027837
v 0.011395 0.110043 -0.027456
v 0.028925 0.110043 0.005752
v 0.029487 0.110043 -0.000014
v 0.029717 0.110043 -0.000014
v 0.029146 0.110043 -0.005807
v 0.028925 0.110043 -0.005752
v 0.027460 0.110043 -0.011382
v 0.027239 0.110043 -0.011273
v 0.024715 0.110043 -0.016523
v 0.024522 0.110043 -0.016387
v 0.021012 0.110043 -0.021010
v 0.020855 0.110043 -0.020847
v 0.016507 0.110043 -0.024709
v 0.016378 0.110043 -0.024519
v 0.011395 0.110043 -0.027456
v 0.011284 0.110043 -0.027238
v 0.029146 0.110043 0.005807
v 0.027239 0.110043 0.011273
v 0.027460 0.110043 0.011382
v 0.024522 0.110043 0.016386
v 0.024715 0.110043 0.016522
v 0.020855 0.110043 0.020847
v 0.021012 0.110043 0.021010
v 0.016378 0.110043 0.024518
v 0.016507 0.110043 0.024709
v 0.011284 0.110043 0.027238
v 0.011395 0.110043 0.027456
v 0.021150 0.018638 -0.021146
v 0.024872 0.018638 -0.016604
v 0.025065 0.018638 -0.016740
v 0.027847 0.018638 -0.011545
v 0.027635 0.018638 -0.011437
v 0.029560 0.018638 -0.005888
v 0.029330 0.018638 -0.005834
v 0.030141 0.018638 -0.000014
v 0.029910 0.018638 -0.000014
v 0.029560 0.018638 0.005888
v 0.029330 0.018638 0.005834
v 0.027847 0.018638 0.011545
v 0.027635 0.018638 0.011437
v 0.025065 0.018638 0.016740
v 0.024872 0.018638 0.016604
v 0.021316 0.018638 0.021309
v 0.021150 0.018638 0.021146
v 0.016747 0.018638 0.025062
v 0.016618 0.018638 0.024872
v 0.011552 0.018638 0.027837
v 0.011441 0.018638 0.027619
v 0.021316 0.018638 -0.021309
v 0.016618 0.018638 -0.024872
v 0.016747 0.018638 -0.025063
v 0.011441 0.018638 -0.027619
v 0.011552 0.018638 -0.027837
v 0.011441 0.018638 -0.027619
v 0.011552 0.018638 -0.027837
v 0.011284 0.110043 -0.027238
v 0.011395 0.110043 -0.027456
v 0.011284 0.110043 0.027238
v 0.011395 0.110043 0.027456
v 0.011441 0.018638 0.027619
v 0.011552 0.018638 0.027837
vn 0.4714 0.0066 -0.8819
vn 0.5556 0.0065 -0.8315
vn 0.8819 -0.0022 -0.4714
vn 0.5555 0.0065 -0.8315
vn 0.7071 0.0064 -0.7071
vn 0.7071 0.0065 -0.7071
vn 0.8315 0.0065 -0.5555
vn 0.9239 0.0065 -0.3827
vn 0.9808 0.0065 -0.1951
vn 1.0000 0.0065 -0.0000
vn 0.9808 0.0065 0.1951
vn 0.9239 0.0065 0.3827
vn 0.8315 0.0065 0.5556
vn 0.8315 0.0066 0.5556
vn 0.7071 0.0065 0.7071
vn 0.5556 0.0065 0.8315
vn 0.5555 0.0065 0.8315
vn 0.4714 0.0066 0.8819
vn 0.8819 -0.0022 0.4714
vn -0.0065 0.9999 0.0113
vn -0.0066 0.9999 0.0114
vn -0.5556 -0.0065 0.8315
vn -0.7071 -0.0065 0.7071
vn -0.8314 -0.0065 0.5556
vn -0.8315 -0.0066 0.5556
vn -0.9239 -0.0065 0.3827
vn -0.9808 -0.0066 0.1951
vn -0.9808 -0.0065 0.1951
vn -1.0000 -0.0065 -0.0000
vn -1.0000 -0.0066 -0.0000
vn -0.9808 -0.0065 -0.1951
vn -0.9239 -0.0065 -0.3827
vn -0.8314 -0.0065 -0.5556
vn -0.8315 -0.0065 -0.5556
vn -0.7071 -0.0065 -0.7071
vn -0.5556 -0.0065 -0.8314
vn -0.5556 -0.0065 -0.8315
vn -0.4714 -0.0065 -0.8819
vn -0.0113 0.9999 0.0065
vn -0.5556 -0.0065 0.8314
vn -0.0065 0.9999 -0.0113
vn -0.4714 -0.0065 0.8819
vn -0.0113 0.9999 -0.0065
vn 0.0131 -0.9999 -0.0000
vn 0.0106 -0.9999 -0.0077
vn 0.0040 -0.9999 -0.0125
vn 0.0040 -0.9999 -0.0124
vn -0.0131 0.9999 -0.0000
vn 0.0106 -0.9999 0.0077
vn 0.0041 -0.9999 0.0125
vn 0.0040 -0.9999 0.0124
vt 0.993065 0.890930
vt 0.943988 0.890930
vt 1.000128 0.162056
vt 0.009707 0.890930
vt 0.002644 0.162056
vt 0.950199 0.162056
vt 0.877741 0.890930
vt 0.883099 0.162056
vt 0.797124 0.890930
vt 0.801264 0.162056
vt 0.705060 0.890930
vt 0.707982 0.162056
vt 0.605202 0.890930
vt 0.606663 0.162056
vt 0.501447 0.890930
vt 0.501447 0.162056
vt 0.397570 0.890930
vt 0.396109 0.162056
vt 0.297712 0.890930
vt 0.294790 0.162056
vt 0.205648 0.890930
vt 0.201508 0.162056
vt 0.125031 0.890930
vt 0.119673 0.162056
vt 0.058784 0.890930
vt 0.052573 0.162056
s 1
f 1/1/1 2/2/2 3/3/1
f 110/4/3 112/5/3 111/5/3
f 3/3/1 2/2/2 4/6/4
f 2/2/2 5/7/5 4/6/4
f 4/6/4 5/7/5 6/8/6
f 5/7/5 7/9/7 6/8/6
f 6/8/6 7/9/7 8/10/7
f 7/9/7 9/11/8 8/10/7
f 8/10/7 9/11/8 10/12/8
f 9/11/8 11/13/9 10/12/8
f 10/12/8 11/13/9 12/14/9
f 11/13/9 13/15/10 12/14/9
f 12/14/9 13/15/10 14/16/10
f 13/15/10 15/17/11 14/16/10
f 14/16/10 15/17/11 16/18/11
f 15/17/11 17/19/12 16/18/11
f 16/18/11 17/19/12 18/20/12
f 17/19/12 19/21/13 18/20/12
f 18/20/12 19/21/13 20/22/14
f 19/21/13 21/23/15 20/22/14
f 20/22/14 21/23/15 22/24/15
f 21/23/15 23/25/16 22/24/15
f 22/24/15 23/25/16 24/26/17
f 23/25/16 25/4/18 24/26/17
f 24/26/17 25/4/18 26/5/18
f 109/4/3 110/4/3 111/5/3
f 106/3/19 108/1/19 107/1/19
f 105/3/19 106/3/19 107/1/19
f 102/6/20 104/3/21 103/3/21
f 27/6/22 29/8/23 28/7/23
f 28/7/23 29/8/23 30/9/24
f 29/8/23 31/10/25 30/9/24
f 30/9/24 31/10/25 32/11/26
f 31/10/25 33/12/26 32/11/26
f 32/11/26 33/12/26 34/13/27
f 33/12/26 35/14/28 34/13/27
f 34/13/27 35/14/28 36/15/29
f 35/14/28 37/16/30 36/15/29
f 36/15/29 37/16/30 38/17/31
f 37/16/30 39/18/31 38/17/31
f 38/17/31 39/18/31 40/19/32
f 39/18/31 41/20/32 40/19/32
f 40/19/32 41/20/32 42/21/33
f 41/20/32 43/22/34 42/21/33
f 42/21/33 43/22/34 44/23/35
f 43/22/34 45/24/35 44/23/35
f 44/23/35 45/24/35 46/25/36
f 45/24/35 47/26/37 46/25/36
f 46/25/36 47/26/37 48/4/38
f 47/26/37 49/5/38 48/4/38
f 101/6/20 102/6/20 103/3/21
f 100/8/39 102/6/20 101/6/20
f 79/8/39 100/8/39 101/6/20
f 81/10/39 100/8/39 79/8/39
f 28/7/23 50/2/40 27/6/22
f 97/26/41 99/5/41 98/5/41
f 27/6/22 50/2/40 51/3/42
f 50/2/40 52/1/42 51/3/42
f 96/26/41 97/26/41 98/5/41
f 95/24/43 97/26/41 96/26/41
f 94/24/43 95/24/43 96/26/41
f 93/22/43 95/24/43 94/24/43
f 53/17/44 54/15/44 55/15/44
f 92/22/43 93/22/43 94/24/43
f 55/15/44 54/15/44 56/13/44
f 54/15/44 57/13/44 56/13/44
f 56/13/44 57/13/44 58/11/45
f 57/13/44 59/11/45 58/11/45
f 58/11/45 59/11/45 60/9/45
f 59/11/45 61/9/45 60/9/45
f 60/9/45 61/9/45 62/7/45
f 61/9/45 63/7/45 62/7/45
f 62/7/45 63/7/45 64/2/46
f 63/7/45 65/2/46 64/2/46
f 64/2/46 65/2/46 66/1/47
f 65/2/46 67/1/47 66/1/47
f 91/20/43 93/22/43 92/22/43
f 90/20/43 91/20/43 92/22/43
f 89/18/48 91/20/43 90/20/43
f 88/18/48 89/18/48 90/20/43
f 55/15/44 68/17/44 53/17/44
f 87/16/48 89/18/48 88/18/48
f 53/17/44 68/17/44 69/19/49
f 68/17/44 70/19/49 69/19/49
f 69/19/49 70/19/49 71/21/49
f 70/19/49 72/21/49 71/21/49
f 71/21/49 72/21/49 73/23/49
f 72/21/49 74/23/49 73/23/49
f 73/23/49 74/23/49 75/25/50
f 74/23/49 76/25/50 75/25/50
f 75/25/50 76/25/50 77/4/51
f 76/25/50 78/4/51 77/4/51
f 86/16/48 87/16/48 88/18/48
f 85/14/48 87/16/48 86/16/48
f 84/14/48 85/14/48 86/16/48
f 83/12/39 85/14/48 84/14/48
f 79/8/39 80/10/39 81/10/39
f 82/12/39 83/12/39 84/14/48
f 81/10/39 80/10/39 82/12/39
f 80/10/39 83/12/39 82/12/39
